{
.appVersion = "3249";
.formatVersion = 3;
axes = (
{
name = Weight;
tag = wght;
}
);
classes = (
{
automatic = 1;
code = "A Aacute Abreve Acaron Acircumflex Adieresis Agrave Amacron Aogonek Aring Aringacute Atilde AE B C Cacute Ccaron Ccedilla Cdotaccent D Dcaron Dcroat Eth E Eacute Ecaron Ecircumflex Edieresis Edotaccent Egrave Emacron Eogonek F Fhook G Gbreve Gcommaaccent Gdotaccent H Hbar I IJ Iacute Icaron Icircumflex Idieresis Idotaccent Igrave Imacron Iogonek J K Kcommaaccent L Lacute Lcaron Lcommaaccent Ldot Lslash M N Nacute Ncaron Ncommaaccent Ntilde Eng O Oacute Ocaron Ocircumflex Odieresis Ograve Ohungarumlaut Omacron Oslash Otilde OE P Thorn Q R Racute Rcaron Rcommaaccent S Sacute Scaron Scedilla Scommaaccent Germandbls T Tbar Tcaron Tcedilla Tcommaaccent U Uacute Ubreve Ucaron Ucircumflex Udieresis Udieresisacute Udieresiscaron Udieresisgrave Udieresismacron Ugrave Uhungarumlaut Umacron Uogonek Uring Utilde V W Wacute Wcircumflex Wdieresis Wgrave X Y Yacute Ycircumflex Ydieresis Ygrave Ytilde Z Zacute Zcaron Zdotaccent J.ss01 Y.ss01";
name = Uppercase;
}
);
customParameters = (
{
name = fsType;
value = (
);
},
{
name = "Use Typo Metrics";
value = 1;
},
{
name = "Write lastChange";
value = 0;
},
{
name = "Use Line Breaks";
value = 1;
},
{
name = panose;
value = (
0,
0,
0,
0,
0,
0,
0,
0,
0,
0
);
},
{
name = "Axis Mappings";
value = {
wght = {
400 = 85;
500 = 102;
600 = 120;
700 = 155;
};
};
}
);
date = "2018-11-04 19:35:33 +0000";
familyName = Baskervville;
featurePrefixes = (
{
automatic = 1;
code = "languagesystem DFLT dflt;

languagesystem latn dflt;
languagesystem latn AZE;
languagesystem latn CRT;
languagesystem latn KAZ;
languagesystem latn TAT;
languagesystem latn TRK;
languagesystem latn ROM;
languagesystem latn MOL;
languagesystem latn CAT;
";
name = Languagesystems;
}
);
features = (
{
automatic = 1;
code = "feature locl;
feature sups;
feature lnum;
feature onum;
feature case;
feature calt;
feature subs;
feature sinf;
feature numr;

glyphs = (
{
color = 6;
glyphname = A;
kernLeft = A;
kernRight = A;
layers = (
{
anchors = (
{
name = bottom;
pos = (241,0);
},
{
name = ogonek;
pos = (500,0);
},
{
name = top;
pos = (514,710);
}
);
layerId = "9372F035-DA38-4B54-966C-CEBA9B53DD02";
shapes = (
{
closed = 1;
nodes = (
(53,0,l),
(171,-3,l),
(179,22,l),
(160,24,ls),
(117,28,o),
(95,39,o),
(95,60,cs),
(95,73,o),
(102,89,o),
(117,111,cs),
(496,659,l),
(448,621,l),
(448,116,ls),
(448,44,o),
(414,30,o),
(355,24,cs),
(334,22,l),
(326,-3,l),
(471,0,l),
(616,-3,l),
(624,22,l),
(605,24,ls),
(533,32,o),
(530,59,o),
(530,114,cs),
(530,710,l),
(508,724,l),
(84,112,ls),
(56,71,o),
(28,31,o),
(-41,24,cs),
(-62,22,l),
(-70,-3,l)
);
},
{
closed = 1;
nodes = (
(467,258,l),
(479,284,l),
(219,284,l),
(200,258,l)
);
}
);
width = 662;
},
{
anchors = (
{
name = bottom;
pos = (287,0);
},
{
name = ogonek;
pos = (615,-2);
},
{
name = top;
pos = (538,710);
}
);
layerId = m002;
shapes = (
{
closed = 1;
nodes = (
(47,-1,l),
(176,-3,l),
(188,37,l),
(159,39,ls),
(130,41,o),
(119,56,o),
(119,76,cs),
(119,101,o),
(140,137,o),
(156,160,cs),
(487,635,l),
(465,635,l),
(461,123,ls),
(461,87,o),
(450,44,o),
(398,39,cs),
(377,37,l),
(364,-3,l),
(519,0,l),
(661,-3,l),
(674,37,l),
(655,39,ls),
(617,43,o),
(610,63,o),
(610,103,cs),
(610,712,l),
(491,724,l),
(92,153,ls),
(32,67,o),
(7,44,o),
(-46,38,cs),
(-55,37,l),
(-68,-3,l)
);
},
{
closed = 1;
nodes = (
(505,233,l),
(508,287,l),
(222,287,l),
(192,233,l)
);
}
);
width = 729;
}
);
unicode = 65;
},
{
color = 6;
glyphname = AE;
kernLeft = A;
kernRight = E;
layers = (
{
layerId = "9372F035-DA38-4B54-966C-CEBA9B53DD02";
shapes = (
{
closed = 1;
nodes = (
(53,0,l),
(171,-3,l),
(180,22,l),
(161,24,ls),
(118,29,o),
(95,38,o),
(95,61,cs),
(95,73,o),
(102,89,o),
(117,111,cs),
(473,632,l),
(466,116,ls),
(465,44,o),
(430,30,o),
(370,24,cs),
(349,22,l),
(340,-3,l),
(485,0,l),
(852,0,l),
(876,74,l),
(926,210,l),
(900,210,l),
(848,90,o),
(799,25,o),
(683,25,cs),
(622,25,ls),
(548,25,o),
(549,59,o),
(549,114,cs),
(549,685,l),
(771,685,ls),
(867,685,o),
(895,615,o),
(895,526,c),
(921,526,l),
(924,709,l),
(495,710,l),
(81,112,ls),
(51,69,o),
(32,31,o),
(-40,24,cs),
(-61,22,l),
(-70,-3,l)
);
},
{
closed = 1;
nodes = (
(482,258,l),
(495,284,l),
(218,284,l),
(205,258,l)
);
},
{
closed = 1;
nodes = (
(691,226,l),
(732,371,l),
(781,508,l),
(755,508,l),
(715,399,o),
(689,388,o),
(646,388,cs),
(533,388,l),
(525,362,l),
(638,362,ls),
(703,362,o),
(682,278,o),
(665,226,c)
);
}
);
width = 951;
},
{
layerId = m002;
shapes = (
{
closed = 1;
nodes = (
(47,-1,l),
(176,-3,l),
(188,37,l),
(159,39,ls),
(130,41,o),
(119,56,o),
(119,76,cs),
(119,101,o),
(140,137,o),
(156,160,cs),
(461,598,l),
(461,123,ls),
(461,87,o),
(450,44,o),
(398,39,cs),
(377,37,l),
(364,-3,l),
(519,0,l),
(939,0,l),
(965,85,l),
(1012,230,l),
(972,230,l),
(913,89,o),
(841,44,o),
(724,44,cs),
(676,44,ls),
(625,44,o),
(608,62,o),
(608,113,cs),
(608,666,l),
(753,666,ls),
(869,666,o),
(934,615,o),
(934,508,c),
(974,508,l),
(971,710,l),
(481,710,l),
(92,153,ls),
(32,67,o),
(7,44,o),
(-46,38,cs),
(-55,37,l),
(-68,-3,l)
);
},
{
closed = 1;
nodes = (
(505,233,l),
(508,287,l),
(222,287,l),
(192,233,l)
);
},
{
closed = 1;
nodes = (
(768,226,l),
(811,374,l),
(859,508,l),
(820,508,l),
(781,416,o),
(735,396,o),
(668,396,cs),
(580,396,l),
(566,352,l),
(654,352,ls),
(728,352,o),
(755,317,o),
(728,226,c)
);
}
);
width = 1041;
}
);
metricLeft = A;
metricRight = E;
unicode = 198;
},
{
color = 6;
glyphname = B;
kernLeft = I;
kernRight = B;
layers = (
{
anchors = (
{
name = bottom;
pos = (246,0);
},
{
name = top;
pos = (480,710);
}
);
layerId = "9372F035-DA38-4B54-966C-CEBA9B53DD02";
shapes = (
{
closed = 1;
nodes = (
(119,0,l),
(270,0,ls),
(437,0,o),
(611,69,o),
(611,221,cs),
(611,320,o),
(538,376,o),
(419,385,c),
(425,376,l),
(545,390,o),
(664,457,o),
(653,576,cs),
(643,682,o),
(540,713,o),
(411,711,cs),
(349,710,l),
(204,713,l),
(196,688,l),
(215,686,ls),
(288,678,o),
(300,670,o),
(282,616,cs),
(119,124,ls),
(97,59,o),
(72,31,o),
(-1,24,cs),
(-22,22,l),
(-30,-3,l)
);
},
{
closed = 1;
nodes = (
(190,26,o),
(173,50,o),
(191,106,cs),
(382,685,l),
(391,685,ls),
(511,685,o),
(561,650,o),
(569,577,cs),
(580,476,o),
(499,397,o),
(379,397,cs),
(280,397,l),
(272,372,l),
(368,372,ls),
(465,372,o),
(527,337,o),
(527,240,cs),
(527,106,o),
(407,26,o),
(267,26,cs)
);
}
);
width = 658;
},
{
anchors = (
{
name = bottom;
pos = (273,0);
},
{
name = top;
pos = (484,710);
}
);
layerId = m002;
shapes = (
{
closed = 1;
nodes = (
(124,0,l),
(317,0,ls),
(533,0,o),
(681,88,o),
(681,218,cs),
(681,312,o),
(605,384,o),
(435,384,c),
(424,357,l),
(613,357,o),
(747,432,o),
(747,550,cs),
(747,634,o),
(678,710,o),
(507,710,cs),
(349,710,l),
(192,713,l),
(179,673,l),
(198,671,ls),
(247,666,o),
(258,654,o),
(233,577,cs),
(89,133,ls),
(65,59,o),
(48,45,o),
(-7,40,cs),
(-28,38,l),
(-41,-3,l)
);
},
{
closed = 1;
nodes = (
(238,50,o),
(223,68,o),
(244,133,cs),
(415,660,l),
(487,660,ls),
(552,660,o),
(578,623,o),
(578,570,cs),
(578,485,o),
(513,396,o),
(405,396,cs),
(294,396,l),
(278,346,l),
(385,346,ls),
(485,346,o),
(512,302,o),
(512,242,cs),
(512,153,o),
(451,50,o),
(301,50,cs)
);
}
);
width = 719;
}
);
metricLeft = I;
unicode = 66;
},
{
color = 6;
glyphname = C;
kernLeft = O;
kernRight = C;
layers = (
{
anchors = (
{
name = bottom;
pos = (344,0);
},
{
name = top;
pos = (518,710);
}
);
layerId = "9372F035-DA38-4B54-966C-CEBA9B53DD02";
shapes = (
{
closed = 1;
nodes = (
(391,-11,o),
(448,11,o),
(485,29,cs),
(502,37,o),
(513,44,o),
(522,44,cs),
(540,44,o),
(536,18,o),
(534,0,c),
(560,0,l),
(588,106,l),
(638,247,l),
(612,247,l),
(559,121,o),
(437,20,o),
(330,20,cs),
(230,20,o),
(168,109,o),
(168,246,cs),
(168,476,o),
(344,694,o),
(522,694,cs),
(655,694,o),
(678,572,o),
(663,485,c),
(689,485,l),
(724,594,l),
(762,697,l),
(738,697,l),
(731,676,o),
(717,663,o),
(701,663,cs),
(687,663,o),
(675,672,o),
(659,682,cs),
(619,707,o),
(575,724,o),
(512,724,cs),
(268,724,o),
(79,464,o),
(79,236,cs),
(79,55,o),
(197,-11,o),
(320,-11,cs)
);
}
);
width = 694;
},
{
anchors = (
{
name = bottom;
pos = (356,0);
},
{
name = top;
pos = (533,710);
}
);
layerId = m002;
shapes = (
{
closed = 1;
nodes = (
(421,-14,o),
(470,6,o),
(496,16,cs),
(517,24,o),
(527,27,o),
(537,27,cs),
(552,27,o),
(556,18,o),
(556,-3,c),
(589,-3,l),
(626,115,l),
(673,247,l),
(632,247,l),
(568,117,o),
(458,36,o),
(365,36,cs),
(275,36,o),
(237,113,o),
(237,213,cs),
(237,380,o),
(358,674,o),
(541,674,cs),
(636,674,o),
(668,589,o),
(668,465,c),
(708,465,l),
(748,592,l),
(792,710,l),
(751,710,l),
(741,688,o),
(730,680,o),
(713,680,cs),
(693,680,o),
(667,691,o),
(650,698,cs),
(611,714,o),
(581,724,o),
(527,724,cs),
(261,724,o),
(69,464,o),
(69,247,cs),
(69,106,o),
(151,-14,o),
(343,-14,cs)
);
}
);
width = 715;
}
);
metricLeft = O;
unicode = 67;
},
{
color = 6;
glyphname = D;
kernLeft = I;
kernRight = O;
layers = (
{
anchors = (
{
name = bottom;
pos = (317,0);
},
{
name = center;
pos = (297,367);
},
{
name = top;
pos = (475,710);
}
);
layerId = "9372F035-DA38-4B54-966C-CEBA9B53DD02";
shapes = (
{
closed = 1;
nodes = (
(119,0,l),
(304,0,ls),
(576,0,o),
(820,199,o),
(807,450,cs),
(797,631,o),
(660,721,o),
(447,713,cs),
(364,710,l),
(217,713,l),
(209,688,l),
(228,686,ls),
(289,680,o),
(313,675,o),
(293,617,cs),
(110,88,ls),
(94,41,o),
(76,31,o),
(-1,24,cs),
(-22,22,l),
(-30,-3,l)
);
},
{
closed = 1;
nodes = (
(184,26,o),
(183,67,o),
(206,133,cs),
(396,683,l),
(431,684,ls),
(637,690,o),
(714,593,o),
(717,453,cs),
(721,237,o),
(549,26,o),
(304,26,cs),
(270,26,ls)
);
}
);
width = 808;
},
{
anchors = (
{
name = bottom;
pos = (377,0);
},
{
name = center;
pos = (279,367);
},
{
name = top;
pos = (619,710);
}
);
layerId = m002;
shapes = (
{
closed = 1;
nodes = (
(120,0,l),
(309,0,ls),
(622,0,o),
(811,236,o),
(811,436,cs),
(811,586,o),
(704,717,o),
(462,712,cs),
(369,710,l),
(191,713,l),
(178,673,l),
(207,671,ls),
(255,668,o),
(267,653,o),
(241,577,cs),
(91,133,ls),
(65,57,o),
(48,45,o),
(-3,40,cs),
(-23,38,l),
(-36,-3,l)
);
},
{
closed = 1;
nodes = (
(245,50,o),
(226,73,o),
(253,153,cs),
(424,660,l),
(456,660,ls),
(592,660,o),
(647,572,o),
(647,463,cs),
(647,284,o),
(501,50,o),
(319,50,cs),
(287,50,l)
);
}
);
width = 799;
}
);
metricLeft = I;
metricRight = O;
unicode = 68;
},
{
color = 10;
glyphname = Eth;
kernLeft = I;
kernRight = D;
layers = (
{
layerId = "9372F035-DA38-4B54-966C-CEBA9B53DD02";
shapes = (
{
ref = D;
},
{
closed = 1;
nodes = (
(486,353,l),
(496,382,l),
(111,382,l),
(101,353,l)
);
}
);
width = 808;
},
{
layerId = m002;
shapes = (
{
ref = D;
},
{
closed = 1;
nodes = (
(483,342,l),
(500,392,l),
(86,392,l),
(69,342,l)
);
}
);
width = 799;
}
);
unicode = 208;
},
{
color = 6;
glyphname = E;
kernLeft = I;
kernRight = E;
layers = (
{
anchors = (
{
name = bottom;
pos = (315,0);
},
{
name = ogonek;
pos = (546,0);
},
{
name = top;
pos = (496,710);
},
{
name = topleft;
pos = (178,710);
}
);
layerId = "9372F035-DA38-4B54-966C-CEBA9B53DD02";
shapes = (
{
closed = 1;
nodes = (
(119,0,l),
(595,0,l),
(617,74,l),
(662,210,l),
(636,210,l),
(588,90,o),
(541,26,o),
(426,25,cs),
(288,24,ls),
(191,23,o),
(183,73,o),
(213,165,cs),
(384,685,l),
(535,685,ls),
(631,685,o),
(662,616,o),
(665,527,c),
(691,527,l),
(688,710,l),
(351,710,l),
(204,713,l),
(196,688,l),
(215,686,ls),
(286,679,o),
(299,671,o),
(281,617,cs),
(106,81,ls),
(93,40,o),
(71,31,o),
(-1,24,cs),
(-22,22,l),
(-30,-3,l)
);
},
{
closed = 1;
nodes = (
(472,226,l),
(513,371,l),
(562,508,l),
(536,508,l),
(496,399,o),
(470,388,o),
(427,388,cs),
(254,388,l),
(246,362,l),
(419,362,ls),
(484,362,o),
(463,278,o),
(446,226,c)
);
}
);
width = 688;
},
{
anchors = (
{
name = bottom;
pos = (322,0);
},
{
name = ogonek;
pos = (548,0);
},
{
name = top;
pos = (508,710);
},
{
name = topleft;
pos = (172,710);
}
);
layerId = m002;
shapes = (
{
closed = 1;
nodes = (
(129,0,l),
(605,0,l),
(631,85,l),
(678,230,l),
(638,230,l),
(579,89,o),
(507,44,o),
(390,44,cs),
(332,44,ls),
(255,44,o),
(231,60,o),
(254,133,cs),
(424,666,l),
(496,666,ls),
(612,666,o),
(667,615,o),
(667,508,c),
(707,508,l),
(704,710,l),
(355,710,l),
(191,713,l),
(178,673,l),
(207,671,ls),
(255,668,o),
(265,653,o),
(241,577,cs),
(100,133,ls),
(76,57,o),
(57,45,o),
(6,40,cs),
(-14,38,l),
(-27,-3,l)
);
},
{
closed = 1;
nodes = (
(481,226,l),
(524,374,l),
(572,508,l),
(533,508,l),
(494,416,o),
(448,396,o),
(381,396,cs),
(293,396,l),
(279,352,l),
(367,352,ls),
(441,352,o),
(468,317,o),
(441,226,c)
);
}
);
width = 707;
}
);
metricLeft = I;
unicode = 69;
},
{
color = 6;
glyphname = F;
kernLeft = I;
kernRight = F;
layers = (
{
anchors = (
{
name = bottom;
pos = (229,0);
},
{
name = top;
pos = (463,710);
}
);
layerId = "9372F035-DA38-4B54-966C-CEBA9B53DD02";
shapes = (
{
closed = 1;
nodes = (
(116,0,l),
(285,-3,l),
(294,22,l),
(275,24,ls),
(215,30,o),
(165,25,o),
(185,87,cs),
(381,685,l),
(525,685,ls),
(621,685,o),
(653,615,o),
(655,526,c),
(681,526,l),
(675,709,l),
(349,710,l),
(202,713,l),
(194,688,l),
(213,686,ls),
(262,681,o),
(298,676,o),
(283,631,cs),
(109,100,ls),
(87,33,o),
(62,30,o),
(1,24,cs),
(-20,22,l),
(-29,-3,l)
);
},
{
closed = 1;
nodes = (
(451,196,l),
(492,341,l),
(541,478,l),
(515,478,l),
(476,369,o),
(449,358,o),
(406,358,cs),
(243,358,l),
(235,332,l),
(398,332,ls),
(463,332,o),
(442,248,o),
(425,196,c)
);
}
);
width = 590;
},
{
anchors = (
{
name = bottom;
pos = (253,0);
},
{
name = top;
pos = (483,710);
}
);
layerId = m002;
shapes = (
{
closed = 1;
nodes = (
(129,0,l),
(296,-3,l),
(309,38,l),
(290,40,ls),
(241,45,o),
(229,56,o),
(254,133,cs),
(424,666,l),
(485,666,ls),
(601,666,o),
(656,618,o),
(656,507,c),
(696,507,l),
(703,710,l),
(355,710,l),
(191,713,l),
(178,673,l),
(207,671,ls),
(255,668,o),
(265,653,o),
(241,577,cs),
(100,133,ls),
(76,57,o),
(57,45,o),
(6,40,cs),
(-14,38,l),
(-27,-3,l)
);
},
{
closed = 1;
nodes = (
(467,196,l),
(510,344,l),
(558,478,l),
(519,478,l),
(480,386,o),
(434,366,o),
(367,366,cs),
(279,366,l),
(265,322,l),
(353,322,ls),
(427,322,o),
(454,287,o),
(427,196,c)
);
}
);
width = 630;
}
);
metricLeft = I;
unicode = 70;
},
{
color = 6;
glyphname = Fhook;
kernRight = F;
layers = (
{
layerId = "9372F035-DA38-4B54-966C-CEBA9B53DD02";
shapes = (
{
closed = 1;
nodes = (
(15,-294,o),
(70,-259,o),
(112,-131,cs),
(380,685,l),
(524,685,ls),
(620,685,o),
(652,615,o),
(654,526,c),
(680,526,l),
(674,709,l),
(348,710,l),
(201,713,l),
(193,688,l),
(212,686,ls),
(262,681,o),
(298,679,o),
(282,631,cs),
(33,-128,ls),
(3,-219,o),
(-22,-272,o),
(-54,-272,cs),
(-98,-272,o),
(-75,-174,o),
(-134,-174,cs),
(-160,-174,o),
(-183,-192,o),
(-183,-223,cs),
(-183,-257,o),
(-155,-294,o),
(-69,-294,cs)
);
},
{
closed = 1;
nodes = (
(450,196,l),
(489,341,l),
(540,478,l),
(514,478,l),
(475,369,o),
(448,358,o),
(405,358,cs),
(242,358,l),
(234,332,l),
(397,332,ls),
(462,332,o),
(441,248,o),
(424,196,c)
);
}
);
width = 589;
},
{
layerId = m002;
shapes = (
{
closed = 1;
nodes = (
(36,-294,o),
(123,-251,o),
(167,-117,cs),
(422,666,l),
(483,666,ls),
(599,666,o),
(654,618,o),
(654,507,c),
(694,507,l),
(701,710,l),
(353,710,l),
(189,713,l),
(176,673,l),
(205,671,ls),
(253,668,o),
(266,653,o),
(241,577,cs),
(21,-103,ls),
(-7,-190,o),
(-29,-258,o),
(-65,-258,cs),
(-121,-258,o),
(-42,-130,o),
(-150,-130,cs),
(-204,-130,o),
(-234,-162,o),
(-234,-201,cs),
(-234,-254,o),
(-185,-294,o),
(-90,-294,cs)
);
},
{
closed = 1;
nodes = (
(465,196,l),
(508,344,l),
(556,478,l),
(517,478,l),
(478,386,o),
(432,366,o),
(365,366,cs),
(277,366,l),
(263,322,l),
(351,322,ls),
(425,322,o),
(452,287,o),
(425,196,c)
);
}
);
width = 628;
}
);
metricRight = F;
unicode = 401;
},
{
color = 6;
glyphname = G;
kernLeft = O;
kernRight = G;
layers = (
{
anchors = (
{
name = bottom;
pos = (333,0);
},
{
name = top;
pos = (524,710);
}
);
layerId = "9372F035-DA38-4B54-966C-CEBA9B53DD02";
shapes = (
{
closed = 1;
nodes = (
(413,-14,o),
(471,15,o),
(513,40,cs),
(544,58,o),
(563,68,o),
(579,68,cs),
(596,68,o),
(608,56,o),
(627,32,c),
(652,58,l),
(626,95,o),
(631,117,o),
(643,154,cs),
(661,208,ls),
(670,235,o),
(691,257,o),
(724,261,cs),
(761,265,l),
(768,290,l),
(637,286,l),
(498,290,l),
(491,264,l),
(523,261,ls),
(578,256,o),
(590,236,o),
(573,187,cs),
(563,158,ls),
(536,80,o),
(439,16,o),
(344,16,cs),
(239,16,o),
(168,96,o),
(168,248,cs),
(168,459,o),
(333,694,o),
(519,694,cs),
(656,694,o),
(679,572,o),
(664,485,c),
(690,485,l),
(725,594,l),
(763,697,l),
(739,697,l),
(732,676,o),
(718,663,o),
(702,663,cs),
(688,663,o),
(676,672,o),
(660,682,cs),
(620,707,o),
(576,724,o),
(513,724,cs),
(254,724,o),
(79,457,o),
(79,235,cs),
(79,96,o),
(157,-14,o),
(327,-14,cs)
);
}
);
width = 755;
},
{
anchors = (
{
name = bottom;
pos = (351,0);
},
{
name = top;
pos = (533,710);
}
);
layerId = m002;
shapes = (
{
closed = 1;
nodes = (
(414,-14,o),
(462,10,o),
(501,31,cs),
(531,47,o),
(556,61,o),
(582,61,cs),
(607,61,o),
(629,51,o),
(642,21,c),
(683,45,l),
(673,100,o),
(671,131,o),
(682,169,cs),
(684,176,ls),
(702,238,o),
(742,255,o),
(785,260,cs),
(811,263,l),
(824,303,l),
(648,299,l),
(464,303,l),
(451,263,l),
(502,259,ls),
(554,255,o),
(557,227,o),
(540,172,cs),
(533,149,ls),
(515,89,o),
(450,36,o),
(364,36,cs),
(227,36,o),
(212,215,o),
(266,384,cs),
(314,533,o),
(418,674,o),
(539,674,cs),
(634,674,o),
(666,589,o),
(666,465,c),
(706,465,l),
(746,592,l),
(789,710,l),
(749,710,l),
(739,688,o),
(728,680,o),
(711,680,cs),
(691,680,o),
(665,691,o),
(648,698,cs),
(609,714,o),
(579,724,o),
(526,724,cs),
(311,724,o),
(149,556,o),
(92,382,cs),
(30,191,o),
(92,-14,o),
(342,-14,cs)
);
}
);
width = 796;
}
);
metricLeft = O;
unicode = 71;
},
{
color = 6;
glyphname = H;
kernLeft = I;
kernRight = I;
layers = (
{
anchors = (
{
name = bottom;
pos = (341,0);
},
{
name = center;
pos = (500,474);
},
{
name = top;
pos = (578,710);
},
{
name = topleft;
pos = (172,710);
}
);
layerId = "9372F035-DA38-4B54-966C-CEBA9B53DD02";
shapes = (
{
closed = 1;
nodes = (
(119,0,l),
(268,-3,l),
(276,22,l),
(257,24,ls),
(183,32,o),
(174,44,o),
(191,96,cs),
(347,573,ls),
(374,655,o),
(400,679,o),
(473,686,cs),
(494,688,l),
(502,713,l),
(353,710,l),
(204,713,l),
(196,688,l),
(215,686,ls),
(276,680,o),
(300,674,o),
(284,624,cs),
(124,136,ls),
(98,56,o),
(72,31,o),
(-1,24,cs),
(-22,22,l),
(-30,-3,l)
);
},
{
closed = 1;
nodes = (
(654,345,l),
(664,376,l),
(274,376,l),
(264,345,l)
);
},
{
closed = 1;
nodes = (
(574,0,l),
(723,-3,l),
(731,22,l),
(712,24,ls),
(646,31,o),
(624,34,o),
(645,97,cs),
(801,573,ls),
(829,659,o),
(854,679,o),
(927,686,cs),
(948,688,l),
(956,713,l),
(807,710,l),
(658,713,l),
(650,688,l),
(669,686,ls),
(730,680,o),
(755,675,o),
(738,624,cs),
(573,121,ls),
(549,47,o),
(522,30,o),
(454,24,cs),
(433,22,l),
(425,-3,l)
);
}
);
width = 838;
},
{
anchors = (
{
name = bottom;
pos = (352,0);
},
{
name = center;
pos = (513,496);
},
{
name = top;
pos = (582,710);
},
{
name = topleft;
pos = (175,710);
}
);
layerId = m002;
shapes = (
{
closed = 1;
nodes = (
(124,0,l),
(286,-3,l),
(299,38,l),
(280,40,ls),
(231,45,o),
(219,56,o),
(244,133,cs),
(388,577,ls),
(412,651,o),
(430,666,o),
(485,671,cs),
(506,673,l),
(519,713,l),
(355,710,l),
(192,713,l),
(179,673,l),
(198,671,ls),
(247,666,o),
(258,654,o),
(233,577,cs),
(89,133,ls),
(65,59,o),
(48,45,o),
(-7,40,cs),
(-28,38,l),
(-41,-3,l)
);
},
{
closed = 1;
nodes = (
(637,341,l),
(637,395,l),
(195,395,l),
(195,341,l)
);
},
{
closed = 1;
nodes = (
(577,0,l),
(739,-3,l),
(752,38,l),
(733,40,ls),
(684,45,o),
(672,56,o),
(697,133,cs),
(841,577,ls),
(865,651,o),
(883,666,o),
(938,671,cs),
(959,673,l),
(972,713,l),
(808,710,l),
(645,713,l),
(632,673,l),
(651,671,ls),
(700,666,o),
(711,654,o),
(686,577,cs),
(542,133,ls),
(518,59,o),
(501,45,o),
(446,40,cs),
(425,38,l),
(412,-3,l)
);
}
);
width = 845;
}
);
metricLeft = I;
metricRight = I;
unicode = 72;
},
{
color = 6;
glyphname = I;
kernLeft = I;
kernRight = I;
layers = (
{
anchors = (
{
name = bottom;
pos = (117,0);
},
{
name = ogonek;
pos = (217,-2);
},
{
name = top;
pos = (351,710);
},
{
name = topleft;
pos = (174,710);
}
);
layerId = "9372F035-DA38-4B54-966C-CEBA9B53DD02";
shapes = (
{
closed = 1;
nodes = (
(119,0,l),
(268,-3,l),
(276,22,l),
(257,24,ls),
(191,31,o),
(170,33,o),
(191,96,cs),
(347,573,ls),
(376,661,o),
(400,679,o),
(473,686,cs),
(494,688,l),
(502,713,l),
(353,710,l),
(204,713,l),
(196,688,l),
(215,686,ls),
(278,679,o),
(299,671,o),
(284,624,cs),
(124,136,ls),
(96,51,o),
(72,31,o),
(-1,24,cs),
(-22,22,l),
(-30,-3,l)
);
}
);
width = 384;
},
{
anchors = (
{
name = bottom;
pos = (125,0);
},
{
name = ogonek;
pos = (226,-2);
},
{
name = top;
pos = (354,710);
},
{
name = topleft;
pos = (156,710);
}
);
layerId = m002;
shapes = (
{
closed = 1;
nodes = (
(124,0,l),
(286,-3,l),
(299,38,l),
(280,40,ls),
(231,45,o),
(219,56,o),
(244,133,cs),
(388,577,ls),
(412,651,o),
(430,666,o),
(485,671,cs),
(506,673,l),
(519,713,l),
(355,710,l),
(192,713,l),
(179,673,l),
(198,671,ls),
(247,666,o),
(258,654,o),
(233,577,cs),
(89,133,ls),
(65,59,o),
(48,45,o),
(-7,40,cs),
(-28,38,l),
(-41,-3,l)
);
}
);
width = 392;
}
);
unicode = 73;
},
{
color = 6;
glyphname = J;
kernLeft = J;
kernRight = U;
layers = (
{
anchors = (
{
name = bottom;
pos = (133,0);
},
{
name = top;
pos = (366,710);
}
);
layerId = "9372F035-DA38-4B54-966C-CEBA9B53DD02";
shapes = (
{
closed = 1;
nodes = (
(217,-14,o),
(236,60,o),
(264,147,cs),
(403,574,ls),
(432,664,o),
(460,679,o),
(529,686,cs),
(550,688,l),
(558,713,l),
(409,710,l),
(260,713,l),
(252,688,l),
(271,686,ls),
(337,680,o),
(354,678,o),
(337,614,cs),
(207,217,ls),
(166,94,o),
(145,9,o),
(90,9,cs),
(73,9,o),
(64,14,o),
(57,22,cs),
(49,32,o),
(46,46,o),
(42,63,cs),
(35,93,o),
(24,120,o),
(-11,120,cs),
(-38,120,o),
(-56,101,o),
(-56,75,cs),
(-56,15,o),
(13,-14,o),
(87,-14,cs)
);
}
);
width = 430;
},
{
anchors = (
{
name = bottom;
pos = (296,0);
},
{
name = top;
pos = (587,710);
}
);
layerId = m002;
shapes = (
{
closed = 1;
nodes = (
(224,-14,o),
(309,42,o),
(353,179,cs),
(481,577,ls),
(505,653,o),
(525,666,o),
(577,671,cs),
(598,673,l),
(611,713,l),
(447,710,l),
(274,713,l),
(261,673,l),
(290,671,ls),
(339,668,o),
(351,654,o),
(326,577,cs),
(199,181,ls),
(173,99,o),
(144,32,o),
(98,32,cs),
(80,32,o),
(68,42,o),
(68,58,cs),
(68,76,o),
(83,96,o),
(83,120,cs),
(83,154,o),
(54,178,o),
(6,178,cs),
(-53,178,o),
(-82,143,o),
(-82,97,cs),
(-82,33,o),
(-25,-14,o),
(94,-14,cs)
);
}
);
width = 474;
}
);
unicode = 74;
},
{
color = 6;
glyphname = K;
kernLeft = I;
kernRight = K;
layers = (
{
anchors = (
{
name = bottom;
pos = (343,1);
},
{
name = top;
pos = (537,711);
}
);
layerId = "9372F035-DA38-4B54-966C-CEBA9B53DD02";
shapes = (
{
closed = 1;
nodes = (
(658,600,ls),
(722,652,o),
(769,682,o),
(799,686,cs),
(821,689,l),
(830,714,l),
(716,710,l),
(593,714,l),
(584,689,l),
(598,688,ls),
(634,685,o),
(651,673,o),
(651,654,cs),
(651,636,o),
(635,613,o),
(605,588,cs),
(232,287,l),
(228,251,l)
);
},
{
closed = 1;
nodes = (
(119,0,l),
(268,-3,l),
(276,22,l),
(257,24,ls),
(191,31,o),
(170,33,o),
(191,96,cs),
(347,573,ls),
(376,661,o),
(400,679,o),
(473,686,cs),
(494,688,l),
(502,713,l),
(353,710,l),
(204,713,l),
(196,688,l),
(215,686,ls),
(278,679,o),
(299,671,o),
(284,624,cs),
(124,136,ls),
(96,51,o),
(72,31,o),
(-1,24,cs),
(-22,22,l),
(-30,-3,l)
);
},
{
closed = 1;
nodes = (
(562,1,l),
(673,-2,l),
(682,23,l),
(617,34,o),
(585,64,o),
(554,140,cs),
(434,435,l),
(374,373,l),
(485,102,ls),
(489,91,o),
(492,81,o),
(492,72,cs),
(492,52,o),
(477,36,o),
(423,27,cs),
(405,24,l),
(396,-1,l)
);
}
);
width = 724;
},
{
anchors = (
{
name = bottom;
pos = (339,0);
},
{
name = top;
pos = (544,710);
}
);
layerId = m002;
shapes = (
{
closed = 1;
nodes = (
(686,592,ls),
(740,636,o),
(779,662,o),
(820,670,cs),
(840,674,l),
(852,713,l),
(733,710,l),
(588,713,l),
(576,673,l),
(595,671,ls),
(621,668,o),
(633,658,o),
(633,642,cs),
(633,622,o),
(613,594,o),
(576,564,cs),
(266,310,l),
(240,229,l)
);
},
{
closed = 1;
nodes = (
(124,0,l),
(286,-3,l),
(299,38,l),
(280,40,ls),
(231,45,o),
(219,56,o),
(244,133,cs),
(388,577,ls),
(412,651,o),
(430,666,o),
(485,671,cs),
(506,673,l),
(519,713,l),
(355,710,l),
(192,713,l),
(179,673,l),
(198,671,ls),
(247,666,o),
(258,654,o),
(233,577,cs),
(89,133,ls),
(65,59,o),
(48,45,o),
(-7,40,cs),
(-28,38,l),
(-41,-3,l)
);
},
{
closed = 1;
nodes = (
(571,0,l),
(699,-3,l),
(712,38,l),
(677,38,o),
(656,67,o),
(617,171,cs),
(503,472,l),
(377,370,l),
(470,123,ls),
(475,110,o),
(477,98,o),
(477,87,cs),
(477,61,o),
(462,42,o),
(424,39,cs),
(409,38,l),
(396,-3,l)
);
}
);
width = 760;
}
);
metricLeft = I;
unicode = 75;
},
{
color = 6;
glyphname = L;
kernLeft = I;
kernRight = L;
layers = (
{
anchors = (
{
name = bottom;
pos = (241,0);
},
{
name = center;
pos = (265,355);
},
{
name = top;
pos = (353,710);
},
{
name = topright;
pos = (531,710);
}
);
layerId = "9372F035-DA38-4B54-966C-CEBA9B53DD02";
shapes = (
{
closed = 1;
nodes = (
(110,0,l),
(545,-3,l),
(623,210,l),
(597,210,l),
(550,88,o),
(481,23,o),
(366,23,cs),
(291,23,ls),
(176,23,o),
(179,61,o),
(212,161,cs),
(347,574,ls),
(375,660,o),
(400,679,o),
(473,686,cs),
(494,688,l),
(502,713,l),
(353,710,l),
(204,713,l),
(196,688,l),
(215,686,ls),
(277,679,o),
(301,676,o),
(284,624,cs),
(105,80,ls),
(91,39,o),
(71,31,o),
(-1,24,cs),
(-22,22,l),
(-30,-3,l)
);
}
);
width = 639;
},
{
anchors = (
{
name = bottom;
pos = (299,0);
},
{
name = center;
pos = (268,355);
},
{
name = top;
pos = (355,710);
},
{
name = topright;
pos = (552,710);
}
);
layerId = m002;
shapes = (
{
closed = 1;
nodes = (
(120,0,l),
(544,0,l),
(630,230,l),
(590,230,l),
(518,89,o),
(442,44,o),
(326,44,cs),
(312,44,ls),
(237,44,o),
(222,60,o),
(240,117,cs),
(385,577,ls),
(412,661,o),
(425,666,o),
(478,671,cs),
(499,673,l),
(511,713,l),
(356,710,l),
(191,713,l),
(178,673,l),
(197,671,ls),
(245,666,o),
(255,653,o),
(231,577,cs),
(90,133,ls),
(66,57,o),
(48,45,o),
(-3,40,cs),
(-23,38,l),
(-36,-3,l)
);
}
);
width = 649;
}
);
metricLeft = I;
unicode = 76;
},
{
color = 6;
glyphname = M;
kernLeft = M;
kernRight = I;
layers = (
{
anchors = (
{
name = bottom;
pos = (399,0);
},
{
name = top;
pos = (633,710);
}
);
layerId = "9372F035-DA38-4B54-966C-CEBA9B53DD02";
shapes = (
{
closed = 1;
nodes = (
(97,0,l),
(215,-3,l),
(223,22,l),
(204,24,ls),
(132,32,o),
(119,38,o),
(136,90,cs),
(313,642,l),
(300,643,l),
(365,7,l),
(397,7,l),
(826,679,l),
(810,683,l),
(687,137,ls),
(667,48,o),
(635,31,o),
(562,24,cs),
(541,22,l),
(533,-3,l),
(682,0,l),
(831,-3,l),
(839,22,l),
(820,24,ls),
(754,31,o),
(739,31,o),
(754,96,cs),
(870,615,ls),
(883,675,o),
(921,681,o),
(969,686,cs),
(990,688,l),
(998,713,l),
(857,710,l),
(810,710,l),
(416,90,l),
(436,86,l),
(373,710,l),
(317,710,l),
(199,713,l),
(191,688,l),
(229,683,ls),
(255,680,o),
(270,671,o),
(287,652,c),
(112,116,ls),
(86,37,o),
(71,30,o),
(3,24,cs),
(-18,22,l),
(-26,-3,l)
);
}
);
width = 916;
},
{
anchors = (
{
name = bottom;
pos = (450,0);
},
{
name = top;
pos = (729,710);
}
);
layerId = m002;
shapes = (
{
closed = 1;
nodes = (
(90,-1,l),
(216,-3,l),
(229,37,l),
(200,39,ls),
(141,43,o),
(133,61,o),
(156,133,cs),
(329,679,l),
(289,679,l),
(358,0,l),
(401,0,l),
(837,682,l),
(804,682,l),
(678,133,ls),
(661,57,o),
(637,45,o),
(586,40,cs),
(566,38,l),
(553,-3,l),
(713,0,l),
(883,-3,l),
(896,38,l),
(877,40,ls),
(814,47,o),
(817,58,o),
(833,133,cs),
(929,577,ls),
(945,653,o),
(966,666,o),
(1013,671,cs),
(1033,673,l),
(1046,713,l),
(895,710,l),
(796,710,l),
(407,101,l),
(492,174,l),
(441,710,l),
(354,710,l),
(189,713,l),
(177,673,l),
(194,671,ls),
(231,667,o),
(251,656,o),
(265,644,c),
(103,133,ls),
(79,58,o),
(60,43,o),
(0,39,cs),
(-30,37,l),
(-43,-3,l)
);
}
);
width = 966;
}
);
unicode = 77;
},
{
color = 6;
glyphname = N;
kernLeft = I;
kernRight = N;
layers = (
{
anchors = (
{
name = bottom;
pos = (392,0);
},
{
name = top;
pos = (546,710);
}
);
layerId = "9372F035-DA38-4B54-966C-CEBA9B53DD02";
shapes = (
{
closed = 1;
nodes = (
(100,0,l),
(217,-3,l),
(226,22,l),
(207,24,ls),
(148,30,o),
(126,35,o),
(140,81,cs),
(307,620,l),
(285,619,l),
(564,0,l),
(594,0,l),
(784,607,ls),
(804,673,o),
(829,680,o),
(891,686,cs),
(912,688,l),
(921,713,l),
(798,710,l),
(681,713,l),
(672,688,l),
(691,686,ls),
(755,680,o),
(773,672,o),
(757,624,cs),
(593,92,l),
(615,93,l),
(336,710,l),
(318,710,l),
(201,713,l),
(192,688,l),
(223,685,ls),
(250,682,o),
(264,666,o),
(280,632,c),
(114,103,ls),
(94,40,o),
(69,30,o),
(7,24,cs),
(-14,22,l),
(-23,-3,l)
);
}
);
width = 783;
},
{
anchors = (
{
name = bottom;
pos = (377,0);
},
{
name = top;
pos = (570,710);
}
);
layerId = m002;
shapes = (
{
closed = 1;
nodes = (
(104,-1,l),
(235,-3,l),
(248,37,l),
(218,39,ls),
(153,43,o),
(147,61,o),
(170,133,cs),
(333,644,l),
(297,558,l),
(545,0,l),
(584,0,l),
(768,577,ls),
(791,649,o),
(807,667,o),
(865,671,cs),
(895,673,l),
(908,713,l),
(785,711,l),
(653,713,l),
(641,673,l),
(670,671,ls),
(728,667,o),
(739,653,o),
(715,577,cs),
(584,165,l),
(611,236,l),
(399,710,l),
(355,710,l),
(189,713,l),
(176,673,l),
(190,673,ls),
(219,673,o),
(242,660,o),
(268,606,c),
(117,133,ls),
(93,59,o),
(77,43,o),
(21,39,cs),
(-9,37,l),
(-22,-3,l)
);
}
);
width = 769;
}
);
unicode = 78;
},
{
color = 6;
glyphname = Eng;
kernLeft = I;
kernRight = N;
layers = (
{
layerId = "9372F035-DA38-4B54-966C-CEBA9B53DD02";
shapes = (
{
closed = 1;
nodes = (
(484,-294,o),
(519,-249,o),
(554,-136,cs),
(783,607,ls),
(803,673,o),
(828,680,o),
(890,686,cs),
(911,688,l),
(920,713,l),
(798,710,l),
(681,713,l),
(672,688,l),
(691,686,ls),
(755,679,o),
(772,672,o),
(757,624,cs),
(602,122,l),
(336,710,l),
(318,710,l),
(201,713,l),
(192,688,l),
(223,685,ls),
(250,682,o),
(264,666,o),
(280,632,c),
(114,103,ls),
(94,40,o),
(69,30,o),
(7,24,cs),
(-14,22,l),
(-23,-3,l),
(100,0,l),
(217,-3,l),
(226,22,l),
(207,24,ls),
(148,30,o),
(126,35,o),
(140,81,cs),
(298,590,l),
(564,0,l),
(524,-131,ls),
(493,-239,o),
(455,-262,o),
(429,-262,cs),
(385,-262,o),
(408,-174,o),
(349,-174,cs),
(321,-174,o),
(300,-194,o),
(300,-221,cs),
(300,-257,o),
(329,-294,o),
(411,-294,cs)
);
}
);
width = 782;
},
{
layerId = m002;
shapes = (
{
closed = 1;
nodes = (
(456,-294,o),
(504,-247,o),
(546,-117,cs),
(768,577,ls),
(791,649,o),
(807,667,o),
(865,671,cs),
(895,673,l),
(908,713,l),
(785,711,l),
(653,713,l),
(641,673,l),
(670,671,ls),
(728,667,o),
(739,653,o),
(715,577,cs),
(608,242,l),
(399,710,l),
(355,710,l),
(189,713,l),
(176,673,l),
(190,673,ls),
(219,673,o),
(242,660,o),
(268,606,c),
(117,133,ls),
(93,59,o),
(77,43,o),
(21,39,cs),
(-9,37,l),
(-22,-3,l),
(104,-1,l),
(235,-3,l),
(248,37,l),
(218,39,ls),
(153,43,o),
(147,61,o),
(170,133,cs),
(302,547,l),
(538,20,l),
(498,-103,ls),
(469,-191,o),
(438,-258,o),
(394,-258,cs),
(338,-258,o),
(417,-130,o),
(309,-130,cs),
(255,-130,o),
(225,-162,o),
(225,-201,cs),
(225,-254,o),
(274,-294,o),
(369,-294,cs)
);
}
);
width = 769;
}
);
metricLeft = N;
metricRight = N;
unicode = 330;
},
{
color = 6;
glyphname = O;
kernLeft = O;
kernRight = O;
layers = (
{
anchors = (
{
name = bottom;
pos = (352,0);
},
{
name = center;
pos = (430,355);
},
{
name = ogonek;
pos = (447,10);
},
{
name = top;
pos = (556,710);
},
{
name = topleft;
pos = (180,710);
}
);
layerId = "9372F035-DA38-4B54-966C-CEBA9B53DD02";
shapes = (
{
closed = 1;
nodes = (
(585,-14,o),
(783,237,o),
(783,469,cs),
(783,631,o),
(675,724,o),
(533,724,cs),
(276,724,o),
(79,471,o),
(79,241,cs),
(79,73,o),
(194,-14,o),
(335,-14,cs)
);
},
{
closed = 1;
nodes = (
(232,16,o),
(170,93,o),
(170,225,cs),
(170,457,o),
(346,694,o),
(529,694,cs),
(633,694,o),
(693,615,o),
(693,481,cs),
(693,251,o),
(520,16,o),
(338,16,cs)
);
}
);
width = 775;
},
{
anchors = (
{
name = bottom;
pos = (361,0);
},
{
name = center;
pos = (444,355);
},
{
name = ogonek;
pos = (428,0);
},
{
name = top;
pos = (523,710);
},
{
name = topleft;
pos = (157,710);
}
);
layerId = m002;
shapes = (
{
closed = 1;
nodes = (
(594,-14,o),
(814,206,o),
(814,452,cs),
(814,619,o),
(708,724,o),
(538,724,cs),
(292,724,o),
(73,504,o),
(73,258,cs),
(73,91,o),
(179,-14,o),
(348,-14,cs)
);
},
{
closed = 1;
nodes = (
(281,36,o),
(239,108,o),
(239,212,cs),
(239,397,o),
(374,674,o),
(527,674,cs),
(606,674,o),
(649,600,o),
(649,496,cs),
(649,312,o),
(514,36,o),
(360,36,cs)
);
}
);
width = 800;
}
);
unicode = 79;
},
{
color = 6;
glyphname = OE;
kernLeft = O;
kernRight = E;
layers = (
{
layerId = "9372F035-DA38-4B54-966C-CEBA9B53DD02";
shapes = (
{
closed = 1;
nodes = (
(348,-14,o),
(381,-9,o),
(414,0,c),
(950,0,l),
(972,74,l),
(1017,210,l),
(991,210,l),
(943,90,o),
(896,26,o),
(781,25,cs),
(643,24,ls),
(546,23,o),
(538,73,o),
(568,165,cs),
(739,685,l),
(890,685,ls),
(986,685,o),
(1017,616,o),
(1020,527,c),
(1046,527,l),
(1043,710,l),
(638,710,l),
(593,717,o),
(567,720,o),
(539,720,cs),
(276,720,o),
(73,459,o),
(73,215,cs),
(73,60,o),
(181,-14,o),
(315,-14,cs)
);
},
{
closed = 1;
nodes = (
(217,16,o),
(158,87,o),
(158,210,cs),
(158,445,o),
(347,691,o),
(543,691,cs),
(613,691,o),
(655,674,o),
(636,617,cs),
(465,90,ls),
(445,29,o),
(373,16,o),
(319,16,cs)
);
},
{
closed = 1;
nodes = (
(827,226,l),
(868,371,l),
(917,508,l),
(891,508,l),
(851,399,o),
(825,388,o),
(782,388,cs),
(609,388,l),
(601,362,l),
(774,362,ls),
(839,362,o),
(818,278,o),
(801,226,c)
);
}
);
width = 1043;
},
{
layerId = m002;
shapes = (
{
closed = 1;
nodes = (
(383,-14,o),
(417,-10,o),
(451,-1,c),
(999,0,l),
(1025,85,l),
(1072,230,l),
(1032,230,l),
(973,89,o),
(901,44,o),
(784,44,cs),
(726,44,ls),
(649,44,o),
(625,60,o),
(648,133,cs),
(818,666,l),
(890,666,ls),
(1006,666,o),
(1061,615,o),
(1061,508,c),
(1105,508,l),
(1105,710,l),
(661,710,l),
(603,720,o),
(572,724,o),
(538,724,cs),
(292,724,o),
(73,504,o),
(73,258,cs),
(73,91,o),
(179,-14,o),
(348,-14,cs)
);
},
{
closed = 1;
nodes = (
(281,36,o),
(239,108,o),
(239,212,cs),
(239,397,o),
(374,674,o),
(527,674,cs),
(610,674,o),
(652,630,o),
(623,539,cs),
(501,153,ls),
(473,63,o),
(421,36,o),
(360,36,cs)
);
},
{
closed = 1;
nodes = (
(875,226,l),
(918,374,l),
(966,508,l),
(927,508,l),
(888,416,o),
(842,396,o),
(775,396,cs),
(687,396,l),
(673,352,l),
(761,352,ls),
(835,352,o),
(862,317,o),
(835,226,c)
);
}
);
width = 1101;
}
);
metricLeft = O;
metricRight = E;
unicode = 338;
},
{
color = 6;
glyphname = P;
kernLeft = I;
kernRight = D;
layers = (
{
anchors = (
{
name = bottom;
pos = (266,0);
},
{
name = top;
pos = (441,710);
}
);
layerId = "9372F035-DA38-4B54-966C-CEBA9B53DD02";
shapes = (
{
closed = 1;
nodes = (
(119,0,l),
(276,-3,l),
(285,21,l),
(266,23,ls),
(186,32,o),
(172,42,o),
(191,96,cs),
(384,683,l),
(467,683,ls),
(567,683,o),
(637,632,o),
(637,539,cs),
(637,447,o),
(574,333,o),
(369,333,cs),
(357,333,o),
(330,334,o),
(263,337,c),
(254,310,l),
(323,304,o),
(353,302,o),
(383,302,cs),
(605,302,o),
(723,399,o),
(723,534,cs),
(723,642,o),
(638,713,o),
(461,711,cs),
(364,710,l),
(353,710,l),
(206,713,l),
(197,688,l),
(216,686,ls),
(266,681,o),
(299,679,o),
(287,630,c),
(120,125,ls),
(96,53,o),
(68,31,o),
(1,24,cs),
(-21,22,l),
(-30,-3,l)
);
}
);
width = 652;
},
{
anchors = (
{
name = bottom;
pos = (107,0);
},
{
name = top;
pos = (448,710);
}
);
layerId = m002;
shapes = (
{
closed = 1;
nodes = (
(124,0,l),
(286,-3,l),
(299,38,l),
(280,40,ls),
(231,45,o),
(219,56,o),
(244,133,cs),
(415,660,l),
(475,660,ls),
(549,660,o),
(582,610,o),
(582,550,cs),
(582,454,o),
(513,343,o),
(385,343,cs),
(359,343,o),
(324,344,o),
(290,348,c),
(274,299,l),
(315,294,o),
(356,293,o),
(387,293,cs),
(607,293,o),
(751,387,o),
(751,530,cs),
(751,627,o),
(675,710,o),
(505,710,cs),
(367,710,l),
(349,710,l),
(192,713,l),
(179,673,l),
(198,671,ls),
(247,666,o),
(258,654,o),
(233,577,cs),
(89,133,ls),
(65,59,o),
(48,45,o),
(-7,40,cs),
(-28,38,l),
(-41,-3,l)
);
}
);
width = 672;
}
);
metricLeft = I;
unicode = 80;
},
{
color = 6;
glyphname = Thorn;
kernLeft = I;
layers = (
{
layerId = "9372F035-DA38-4B54-966C-CEBA9B53DD02";
shapes = (
{
closed = 1;
nodes = (
(119,0,l),
(268,-3,l),
(276,22,l),
(257,24,ls),
(191,31,o),
(170,33,o),
(191,96,cs),
(347,573,ls),
(376,661,o),
(400,679,o),
(473,686,cs),
(494,688,l),
(502,713,l),
(353,710,l),
(204,713,l),
(196,688,l),
(215,686,ls),
(278,679,o),
(299,671,o),
(284,624,cs),
(124,136,ls),
(96,51,o),
(72,31,o),
(-1,24,cs),
(-22,22,l),
(-30,-3,l)
);
},
{
closed = 1;
nodes = (
(534,158,o),
(657,255,o),
(664,390,cs),
(670,498,o),
(589,569,o),
(412,567,cs),
(315,566,l),
(333,539,l),
(416,539,ls),
(516,539,o),
(584,488,o),
(579,395,cs),
(574,303,o),
(505,189,o),
(300,189,cs),
(288,189,o),
(261,190,o),
(194,193,c),
(184,166,l),
(252,160,o),
(282,158,o),
(312,158,cs)
);
}
);
width = 637;
},
{
layerId = m002;
shapes = (
{
closed = 1;
nodes = (
(124,0,l),
(286,-3,l),
(299,38,l),
(280,40,ls),
(231,45,o),
(219,56,o),
(244,133,cs),
(388,577,ls),
(412,651,o),
(430,666,o),
(485,671,cs),
(506,673,l),
(519,713,l),
(355,710,l),
(192,713,l),
(179,673,l),
(198,671,ls),
(247,666,o),
(258,654,o),
(233,577,cs),
(89,133,ls),
(65,59,o),
(48,45,o),
(-7,40,cs),
(-28,38,l),
(-41,-3,l)
);
},
{
closed = 1;
nodes = (
(566,153,o),
(713,247,o),
(718,390,cs),
(721,487,o),
(648,570,o),
(478,570,cs),
(340,570,l),
(357,520,l),
(447,520,ls),
(521,520,o),
(552,470,o),
(550,410,cs),
(546,314,o),
(473,203,o),
(345,203,cs),
(319,203,o),
(285,204,o),
(251,208,c),
(233,159,l),
(274,154,o),
(315,153,o),
(346,153,cs)
);
}
);
width = 682;
}
);
metricLeft = I;
metricRight = P;
unicode = 222;
},
{
color = 3;
glyphname = Q;
kernLeft = O;
kernRight = O;
layers = (
{
anchors = (
{
name = bottom;
pos = (311,0);
},
{
name = top;
pos = (544,710);
}
);
layerId = "9372F035-DA38-4B54-966C-CEBA9B53DD02";
shapes = (
{
closed = 1;
nodes = (
(612,-294,o),
(650,-245,o),
(670,-138,c),
(650,-136,l),
(635,-206,o),
(589,-232,o),
(546,-232,cs),
(444,-232,o),
(384,-69,o),
(190,-69,c),
(173,-80,l),
(194,-70,o),
(308,-17,o),
(383,-11,c),
(316,3,l),
(99,-78,l),
(157,-66,l),
(71,-66,o),
(-21,-69,o),
(-21,-131,cs),
(-21,-155,o),
(-6,-165,o),
(13,-165,cs),
(36,-165,o),
(56,-151,o),
(72,-138,cs),
(92,-122,o),
(109,-106,o),
(147,-93,c),
(105,-104,l),
(129,-100,o),
(134,-99,o),
(148,-99,cs),
(332,-99,o),
(379,-294,o),
(532,-294,cs)
);
},
{
ref = O;
}
);
width = 775;
},
{
anchors = (
{
name = bottom;
pos = (330,0);
},
{
name = top;
pos = (790,710);
}
);
layerId = m002;
shapes = (
{
closed = 1;
nodes = (
(594,-294,o),
(661,-233,o),
(690,-104,c),
(650,-104,l),
(638,-151,o),
(601,-161,o),
(565,-161,cs),
(454,-161,o),
(406,-68,o),
(222,-68,c),
(208,-79,l),
(284,-48,o),
(324,-29,o),
(433,-5,c),
(335,6,l),
(93,-90,l),
(181,-68,l),
(39,-68,o),
(-55,-108,o),
(-55,-168,cs),
(-55,-189,o),
(-44,-199,o),
(-21,-199,cs),
(8,-199,o),
(34,-183,o),
(80,-153,cs),
(115,-130,o),
(154,-105,o),
(197,-88,c),
(114,-101,l),
(122,-100,o),
(129,-100,o),
(136,-100,cs),
(276,-100,o),
(326,-294,o),
(498,-294,cs)
);
},
{
ref = O;
}
);
width = 800;
}
);
metricLeft = O;
metricWidth = O;
unicode = 81;
},
{
color = 6;
glyphname = R;
kernLeft = I;
kernRight = R;
layers = (
{
anchors = (
{
name = bottom;
pos = (385,0);
},
{
name = top;
pos = (443,710);
}
);
layerId = "9372F035-DA38-4B54-966C-CEBA9B53DD02";
shapes = (
{
closed = 1;
nodes = (
(625,-14,o),
(664,-1,o),
(695,36,c),
(676,53,l),
(663,38,o),
(645,22,o),
(617,22,cs),
(573,22,o),
(564,55,o),
(559,127,cs),
(554,205,ls),
(547,307,o),
(476,362,o),
(358,362,c),
(346,359,l),
(422,360,ls),
(566,362,o),
(680,412,o),
(680,550,cs),
(680,650,o),
(603,713,o),
(437,711,cs),
(360,710,l),
(349,710,l),
(202,713,l),
(194,688,l),
(213,686,ls),
(261,681,o),
(297,676,o),
(283,632,cs),
(115,120,ls),
(87,36,o),
(68,30,o),
(0,24,cs),
(-21,22,l),
(-29,-3,l),
(116,0,l),
(253,-3,l),
(261,22,l),
(242,24,ls),
(173,31,o),
(170,42,o),
(185,87,cs),
(380,683,l),
(437,683,ls),
(560,683,o),
(594,619,o),
(594,558,cs),
(594,454,o),
(521,381,o),
(399,382,cs),
(262,383,l),
(255,360,l),
(261,360,ls),
(386,360,o),
(460,296,o),
(462,205,cs),
(463,154,ls),
(465,48,o),
(518,-14,o),
(587,-14,cs)
);
}
);
width = 730;
},
{
anchors = (
{
name = bottom;
pos = (361,0);
},
{
name = top;
pos = (504,710);
}
);
layerId = m002;
shapes = (
{
closed = 1;
nodes = (
(624,-13,o),
(677,12,o),
(708,43,c),
(689,71,l),
(678,63,o),
(667,59,o),
(659,59,cs),
(635,59,o),
(621,90,o),
(621,159,cs),
(621,180,ls),
(621,309,o),
(562,370,o),
(374,370,c),
(405,357,l),
(422,357,ls),
(611,357,o),
(745,432,o),
(745,550,cs),
(745,634,o),
(676,710,o),
(505,710,cs),
(373,710,l),
(349,710,l),
(192,713,l),
(179,673,l),
(198,671,ls),
(247,666,o),
(258,654,o),
(233,577,cs),
(89,133,ls),
(65,59,o),
(48,45,o),
(-7,40,cs),
(-28,38,l),
(-41,-3,l),
(124,0,l),
(286,-3,l),
(299,38,l),
(280,40,ls),
(231,45,o),
(219,56,o),
(244,133,cs),
(417,660,l),
(485,660,ls),
(552,660,o),
(576,622,o),
(576,564,cs),
(576,485,o),
(511,393,o),
(403,393,cs),
(297,393,l),
(283,343,l),
(302,343,ls),
(402,343,o),
(451,295,o),
(451,172,cs),
(451,154,ls),
(451,29,o),
(510,-13,o),
(575,-13,cs)
);
}
);
width = 739;
}
);
metricLeft = I;
unicode = 82;
},
{
color = 6;
glyphname = S;
kernLeft = S;
kernRight = S;
layers = (
{
anchors = (
{
name = bottom;
pos = (295,0);
},
{
name = top;
pos = (408,710);
}
);
layerId = "9372F035-DA38-4B54-966C-CEBA9B53DD02";
shapes = (
{
closed = 1;
nodes = (
(427,-11,o),
(509,82,o),
(509,183,cs),
(509,270,o),
(447,331,o),
(386,388,cs),
(355,417,ls),
(306,463,o),
(265,509,o),
(265,568,cs),
(265,635,o),
(317,692,o),
(399,692,cs),
(504,692,o),
(544,599,o),
(544,501,cs),
(544,471,l),
(570,470,l),
(587,581,l),
(614,694,l),
(587,694,l),
(579,664,o),
(570,653,o),
(560,653,cs),
(535,653,o),
(493,720,o),
(381,720,cs),
(266,720,o),
(181,649,o),
(181,553,cs),
(181,473,o),
(242,419,o),
(301,363,cs),
(333,333,ls),
(384,285,o),
(426,232,o),
(426,159,cs),
(426,75,o),
(369,17,o),
(278,17,cs),
(137,17,o),
(110,158,o),
(124,269,c),
(98,269,l),
(66,149,l),
(19,0,l),
(46,0,l),
(60,35,o),
(72,54,o),
(91,54,cs),
(126,54,o),
(173,-11,o),
(289,-11,cs)
);
}
);
width = 594;
},
{
anchors = (
{
name = bottom;
pos = (295,0);
},
{
name = top;
pos = (443,710);
}
);
layerId = m002;
shapes = (
{
closed = 1;
nodes = (
(420,-11,o),
(514,49,o),
(544,141,cs),
(576,241,o),
(539,322,o),
(443,405,cs),
(384,456,ls),
(343,491,o),
(310,522,o),
(310,568,cs),
(310,628,o),
(361,668,o),
(429,668,cs),
(518,668,o),
(563,597,o),
(563,501,cs),
(563,471,l),
(600,470,l),
(625,581,l),
(665,710,l),
(626,710,l),
(617,686,o),
(605,676,o),
(591,676,cs),
(563,676,o),
(506,720,o),
(405,720,cs),
(285,720,o),
(200,658,o),
(175,580,cs),
(151,507,o),
(179,425,o),
(259,358,cs),
(301,323,ls),
(349,283,o),
(411,241,o),
(411,163,cs),
(411,89,o),
(357,37,o),
(285,37,cs),
(204,37,o),
(125,102,o),
(125,269,c),
(87,269,l),
(56,149,l),
(1,0,l),
(42,0,l),
(55,25,o),
(73,39,o),
(95,39,cs),
(137,39,o),
(181,-11,o),
(295,-11,cs)
);
}
);
width = 614;
}
);
unicode = 83;
},
{
color = 6;
glyphname = Germandbls;
kernLeft = Germandbls;
kernRight = Germandbls;
layers = (
{
layerId = "9372F035-DA38-4B54-966C-CEBA9B53DD02";
shapes = (
{
closed = 1;
nodes = (
(766,677,l),
(710,705,o),
(649,721,o),
(561,721,cs),
(380,721,o),
(267,654,o),
(213,487,cs),
(98,133,ls),
(69,44,o),
(56,32,o),
(-24,24,cs),
(-44,22,l),
(-52,-3,l),
(97,0,l),
(98,0,l),
(149,-1,l),
(183,133,l),
(298,487,ls),
(345,631,o),
(435,692,o),
(554,692,cs),
(618,692,o),
(661,674,o),
(680,634,c),
(713,661,l),
(597,632,o),
(489,552,o),
(489,453,cs),
(489,411,o),
(508,365,o),
(547,321,cs),
(578,286,ls),
(617,242,o),
(636,195,o),
(636,153,cs),
(636,81,o),
(579,18,o),
(469,18,cs),
(363,18,o),
(329,76,o),
(332,150,cs),
(334,197,l),
(313,197,l),
(258,26,l),
(312,3,o),
(389,-11,o),
(455,-11,cs),
(612,-11,o),
(711,74,o),
(711,180,cs),
(711,226,o),
(693,275,o),
(654,323,cs),
(616,370,ls),
(582,412,o),
(564,448,o),
(564,483,cs),
(564,557,o),
(638,617,o),
(759,653,c)
);
}
);
width = 795;
},
{
layerId = m002;
shapes = (
{
closed = 1;
nodes = (
(782,688,l),
(721,705,o),
(652,721,o),
(556,721,cs),
(357,721,o),
(240,652,o),
(180,467,cs),
(72,133,ls),
(49,61,o),
(31,45,o),
(-25,39,cs),
(-45,37,l),
(-58,-3,l),
(106,0,l),
(107,0,l),
(193,-3,l),
(225,128,l),
(339,477,ls),
(383,612,o),
(443,671,o),
(555,671,cs),
(609,671,o),
(648,657,o),
(669,629,c),
(677,643,l),
(565,628,o),
(464,533,o),
(464,432,cs),
(464,389,o),
(484,345,o),
(533,307,cs),
(602,253,ls),
(641,223,o),
(657,186,o),
(657,152,cs),
(657,91,o),
(597,37,o),
(522,37,cs),
(450,37,o),
(382,90,o),
(377,208,cs),
(375,257,l),
(336,257,l),
(270,54,l),
(330,6,o),
(426,-11,o),
(502,-11,cs),
(699,-11,o),
(795,98,o),
(795,204,cs),
(795,260,o),
(771,315,o),
(724,353,cs),
(658,406,ls),
(621,436,o),
(602,470,o),
(602,503,cs),
(602,564,o),
(657,622,o),
(770,647,c)
);
}
);
width = 853;
}
);
metricRight = S;
unicode = 7838;
},
{
color = 6;
glyphname = T;
kernLeft = T;
kernRight = T;
layers = (
{
anchors = (
{
name = bottom;
pos = (310,0);
},
{
name = center;
pos = (420,355);
},
{
name = top;
pos = (549,710);
}
);
layerId = "9372F035-DA38-4B54-966C-CEBA9B53DD02";
shapes = (
{
closed = 1;
nodes = (
(309,0,l),
(491,-3,l),
(499,20,l),
(463,23,ls),
(387,29,o),
(364,61,o),
(381,112,cs),
(574,700,l),
(494,700,l),
(297,100,ls),
(278,43,o),
(226,30,o),
(159,22,cs),
(143,20,l),
(134,-3,l)
);
},
{
closed = 1;
nodes = (
(842,510,l),
(838,632,l),
(840,713,l),
(534,710,l),
(207,713,l),
(135,523,l),
(161,522,l),
(228,644,o),
(254,683,o),
(366,685,cs),
(496,687,l),
(573,688,l),
(699,685,ls),
(778,683,o),
(813,606,o),
(817,510,c)
);
}
);
width = 741;
},
{
anchors = (
{
name = bottom;
pos = (306,0);
},
{
name = center;
pos = (422,355);
},
{
name = top;
pos = (536,710);
}
);
layerId = m002;
shapes = (
{
closed = 1;
nodes = (
(311,0,l),
(498,-3,l),
(511,38,l),
(472,40,ls),
(422,43,o),
(407,60,o),
(430,133,cs),
(609,701,l),
(454,701,l),
(275,133,ls),
(252,60,o),
(237,43,o),
(185,40,cs),
(144,38,l),
(131,-3,l)
);
},
{
closed = 1;
nodes = (
(841,490,l),
(838,633,l),
(840,713,l),
(542,710,l),
(198,713,l),
(112,490,l),
(147,485,l),
(230,595,o),
(283,661,o),
(383,661,cs),
(454,661,l),
(588,661,l),
(635,661,ls),
(742,661,o),
(769,602,o),
(803,485,c)
);
}
);
width = 741;
}
);
unicode = 84;
},
{
color = 6;
glyphname = U;
kernLeft = U;
kernRight = U;
layers = (
{
anchors = (
{
name = bottom;
pos = (346,0);
},
{
name = ogonek;
pos = (473,0);
},
{
name = top;
pos = (575,710);
},
{
name = topright;
pos = (888,710);
}
);
layerId = "9372F035-DA38-4B54-966C-CEBA9B53DD02";
shapes = (
{
closed = 1;
nodes = (
(538,-14,o),
(603,91,o),
(672,308,cs),
(769,612,ls),
(789,675,o),
(814,680,o),
(878,686,cs),
(899,688,l),
(907,713,l),
(784,710,l),
(666,713,l),
(658,688,l),
(677,686,ls),
(744,679,o),
(757,672,o),
(742,625,cs),
(629,274,ls),
(567,81,o),
(489,18,o),
(377,18,cs),
(220,18,o),
(197,141,o),
(240,275,cs),
(335,574,ls),
(363,663,o),
(387,679,o),
(460,686,cs),
(481,688,l),
(489,713,l),
(340,710,l),
(191,713,l),
(183,688,l),
(202,686,ls),
(268,679,o),
(288,677,o),
(268,614,cs),
(159,275,ls),
(100,91,o),
(157,-14,o),
(366,-14,cs)
);
}
);
width = 758;
},
{
anchors = (
{
name = bottom;
pos = (346,0);
},
{
name = ogonek;
pos = (451,0);
},
{
name = top;
pos = (566,710);
},
{
name = topright;
pos = (893,710);
}
);
layerId = m002;
shapes = (
{
closed = 1;
nodes = (
(528,-11,o),
(597,78,o),
(661,276,cs),
(758,577,ls),
(781,649,o),
(800,667,o),
(862,671,cs),
(893,673,l),
(906,713,l),
(775,711,l),
(642,713,l),
(629,673,l),
(658,671,ls),
(716,667,o),
(727,652,o),
(703,577,cs),
(600,256,ls),
(561,134,o),
(501,52,o),
(381,52,cs),
(270,52,o),
(232,125,o),
(269,241,cs),
(376,577,ls),
(400,653,o),
(420,666,o),
(471,671,cs),
(491,673,l),
(504,713,l),
(342,710,l),
(181,713,l),
(168,673,l),
(187,671,ls),
(236,666,o),
(245,653,o),
(221,577,cs),
(131,294,ls),
(68,95,o),
(142,-11,o),
(343,-11,cs)
);
}
);
width = 755;
}
);
unicode = 85;
},
{
color = 6;
glyphname = Uogonek;
kernLeft = U;
kernRight = U;
layers = (
{
anchors = (
{
name = bottom;
pos = (346,0);
},
{
name = top;
pos = (575,710);
},
{
name = topright;
pos = (888,710);
}
);
layerId = "9372F035-DA38-4B54-966C-CEBA9B53DD02";
shapes = (
{
closed = 1;
nodes = (
(380,-14,l),
(303,-54,o),
(217,-137,o),
(217,-212,cs),
(217,-262,o),
(254,-294,o),
(311,-294,cs),
(393,-294,o),
(456,-229,o),
(473,-178,c),
(454,-170,l),
(428,-206,o),
(392,-229,o),
(352,-229,cs),
(318,-229,o),
(294,-214,o),
(294,-175,cs),
(294,-105,o),
(385,-26,o),
(460,0,cs),
(588,43,o),
(632,181,o),
(672,308,cs),
(769,612,ls),
(789,675,o),
(814,680,o),
(878,686,cs),
(899,688,l),
(907,713,l),
(784,710,l),
(666,713,l),
(658,688,l),
(677,686,ls),
(744,679,o),
(757,672,o),
(742,625,cs),
(629,274,ls),
(567,81,o),
(489,18,o),
(377,18,cs),
(220,18,o),
(197,141,o),
(240,275,cs),
(335,574,ls),
(363,663,o),
(387,679,o),
(460,686,cs),
(481,688,l),
(489,713,l),
(340,710,l),
(191,713,l),
(183,688,l),
(202,686,ls),
(268,679,o),
(288,677,o),
(268,614,cs),
(159,275,ls),
(100,91,o),
(157,-14,o),
(366,-14,cs)
);
}
);
width = 758;
},
{
anchors = (
{
name = bottom;
pos = (346,0);
},
{
name = top;
pos = (566,710);
},
{
name = topright;
pos = (893,710);
}
);
layerId = m002;
shapes = (
{
closed = 1;
nodes = (
(353,-11,l),
(281,-51,o),
(195,-128,o),
(195,-212,cs),
(195,-262,o),
(232,-294,o),
(289,-294,cs),
(371,-294,o),
(434,-229,o),
(451,-178,c),
(432,-170,l),
(411,-197,o),
(373,-216,o),
(343,-216,cs),
(319,-216,o),
(300,-198,o),
(300,-169,cs),
(300,-88,o),
(379,-15,o),
(435,0,cs),
(554,32,o),
(616,137,o),
(661,276,cs),
(758,577,ls),
(781,649,o),
(800,667,o),
(862,671,cs),
(893,673,l),
(906,713,l),
(775,711,l),
(642,713,l),
(629,673,l),
(658,671,ls),
(716,667,o),
(727,652,o),
(703,577,cs),
(600,256,ls),
(561,134,o),
(501,52,o),
(381,52,cs),
(270,52,o),
(232,125,o),
(269,241,cs),
(376,577,ls),
(400,653,o),
(420,666,o),
(471,671,cs),
(491,673,l),
(504,713,l),
(342,710,l),
(181,713,l),
(168,673,l),
(187,671,ls),
(236,666,o),
(245,653,o),
(221,577,cs),
(131,294,ls),
(68,95,o),
(142,-11,o),
(343,-11,cs)
);
}
);
width = 755;
}
);
unicode = 370;
},
{
color = 6;
glyphname = V;
kernLeft = V;
kernRight = V;
layers = (
{
anchors = (
{
name = bottom;
pos = (311,0);
},
{
name = top;
pos = (539,710);
}
);
layerId = "9372F035-DA38-4B54-966C-CEBA9B53DD02";
shapes = (
{
closed = 1;
nodes = (
(313,-8,l),
(721,598,ls),
(756,651,o),
(768,679,o),
(839,686,cs),
(860,688,l),
(868,713,l),
(746,710,l),
(627,713,l),
(619,688,l),
(638,686,ls),
(685,681,o),
(709,670,o),
(709,648,cs),
(709,639,o),
(704,627,o),
(695,613,cs),
(328,67,l),
(356,74,l),
(314,611,ls),
(310,669,o),
(354,680,o),
(409,686,cs),
(430,688,l),
(438,713,l),
(292,710,l),
(149,713,l),
(141,688,l),
(160,686,ls),
(236,678,o),
(231,651,o),
(237,593,cs),
(287,-8,l)
);
}
);
width = 686;
},
{
anchors = (
{
name = bottom;
pos = (349,0);
},
{
name = top;
pos = (603,710);
}
);
layerId = m002;
shapes = (
{
closed = 1;
nodes = (
(364,0,l),
(731,557,ls),
(789,645,o),
(806,667,o),
(859,672,cs),
(869,673,l),
(882,713,l),
(761,711,l),
(640,713,l),
(627,673,l),
(658,671,ls),
(687,669,o),
(701,655,o),
(701,632,cs),
(701,608,o),
(684,575,o),
(667,550,cs),
(352,75,l),
(404,75,l),
(370,587,ls),
(368,622,o),
(377,666,o),
(431,671,cs),
(453,673,l),
(466,713,l),
(297,710,l),
(159,713,l),
(146,673,l),
(167,671,ls),
(204,667,o),
(214,652,o),
(217,607,cs),
(260,0,l)
);
}
);
width = 713;
}
);
unicode = 86;
},
{
color = 6;
glyphname = W;
kernLeft = V;
kernRight = V;
layers = (
{
anchors = (
{
name = bottom;
pos = (521,0);
},
{
name = top;
pos = (647,710);
}
);
layerId = "9372F035-DA38-4B54-966C-CEBA9B53DD02";
shapes = (
{
closed = 1;
nodes = (
(318,-8,l),
(617,517,l),
(597,521,l),
(664,-8,l),
(690,-8,l),
(1030,598,ls),
(1061,653,o),
(1077,679,o),
(1148,686,cs),
(1169,688,l),
(1177,713,l),
(1055,710,l),
(918,713,l),
(910,688,l),
(947,686,ls),
(994,683,o),
(1016,673,o),
(1016,650,cs),
(1016,640,o),
(1012,628,o),
(1004,613,cs),
(711,91,l),
(730,87,l),
(665,587,ls),
(657,649,o),
(683,678,o),
(745,683,cs),
(785,687,l),
(786,713,l),
(759,711,ls),
(710,707,o),
(670,701,o),
(637,663,c),
(661,667,l),
(651,688,o),
(626,704,o),
(574,710,cs),
(547,713,l),
(543,687,l),
(581,681,ls),
(619,676,o),
(632,658,o),
(632,635,cs),
(632,613,o),
(619,586,o),
(606,562,cs),
(341,97,l),
(360,93,l),
(314,613,ls),
(309,668,o),
(352,679,o),
(395,686,cs),
(407,688,l),
(415,713,l),
(288,710,l),
(149,713,l),
(141,688,l),
(160,686,ls),
(236,678,o),
(231,651,o),
(237,593,cs),
(292,-8,l)
);
}
);
width = 1019;
},
{
anchors = (
{
name = bottom;
pos = (554,0);
},
{
name = top;
pos = (755,710);
}
);
layerId = m002;
shapes = (
{
closed = 1;
nodes = (
(388,0,l),
(675,529,l),
(643,529,l),
(714,0,l),
(823,-1,l),
(1121,556,ls),
(1168,643,o),
(1185,664,o),
(1239,671,cs),
(1247,672,l),
(1260,712,l),
(1149,710,l),
(1024,712,l),
(1011,672,l),
(1043,670,ls),
(1070,668,o),
(1089,655,o),
(1089,627,cs),
(1089,603,o),
(1076,579,o),
(1060,549,cs),
(829,116,l),
(848,116,l),
(787,586,ls),
(781,629,o),
(792,666,o),
(842,670,cs),
(867,672,l),
(867,713,l),
(804,710,ls),
(733,707,o),
(684,679,o),
(684,632,c),
(714,630,l),
(715,676,o),
(687,701,o),
(640,707,cs),
(589,713,l),
(582,673,l),
(612,670,ls),
(642,667,o),
(659,653,o),
(659,630,cs),
(659,610,o),
(644,576,o),
(630,550,cs),
(397,117,l),
(417,117,l),
(371,587,ls),
(367,630,o),
(373,666,o),
(425,671,cs),
(447,673,l),
(460,713,l),
(309,710,l),
(159,713,l),
(146,673,l),
(165,671,ls),
(203,667,o),
(214,648,o),
(218,607,cs),
(279,0,l)
);
}
);
width = 1106;
}
);
metricLeft = V;
unicode = 87;
},
{
color = 6;
glyphname = X;
kernRight = X;
layers = (
{
anchors = (
{
name = bottom;
pos = (299,0);
},
{
name = top;
pos = (533,710);
}
);
layerId = "9372F035-DA38-4B54-966C-CEBA9B53DD02";
shapes = (
{
closed = 1;
nodes = (
(567,0,l),
(693,-2,l),
(702,23,l),
(683,25,ls),
(630,30,o),
(608,61,o),
(571,146,cs),
(380,581,ls),
(372,601,o),
(370,617,o),
(370,631,cs),
(370,665,o),
(394,682,o),
(435,686,cs),
(456,688,l),
(465,713,l),
(316,710,l),
(187,713,l),
(178,688,l),
(197,686,ls),
(248,681,o),
(270,648,o),
(294,593,cs),
(507,104,ls),
(511,94,o),
(513,85,o),
(513,76,cs),
(513,48,o),
(489,30,o),
(445,25,cs),
(424,23,l),
(415,-2,l)
);
},
{
closed = 1;
nodes = (
(86,1,l),
(207,-2,l),
(216,23,l),
(197,25,ls),
(153,29,o),
(126,41,o),
(125,61,cs),
(125,72,o),
(132,87,o),
(152,104,cs),
(433,364,l),
(412,386,l),
(107,102,ls),
(58,58,o),
(19,31,o),
(-17,26,cs),
(-38,23,l),
(-47,-2,l)
);
},
{
closed = 1;
nodes = (
(718,609,ls),
(767,653,o),
(807,680,o),
(842,685,cs),
(863,688,l),
(872,713,l),
(746,710,l),
(618,713,l),
(609,688,l),
(628,686,ls),
(677,681,o),
(704,672,o),
(705,654,cs),
(705,642,o),
(695,628,o),
(675,609,cs),
(427,382,l),
(448,360,l)
);
}
);
width = 744;
},
{
anchors = (
{
name = bottom;
pos = (302,0);
},
{
name = top;
pos = (568,710);
}
);
layerId = m002;
shapes = (
{
closed = 1;
nodes = (
(537,0,l),
(687,-3,l),
(700,37,l),
(682,39,ls),
(644,43,o),
(632,59,o),
(614,103,cs),
(426,558,ls),
(418,578,o),
(414,596,o),
(415,611,cs),
(416,651,o),
(450,670,o),
(496,672,cs),
(516,673,l),
(529,713,l),
(343,710,l),
(175,713,l),
(162,673,l),
(181,671,ls),
(217,667,o),
(227,642,o),
(243,603,cs),
(430,152,ls),
(438,132,o),
(443,115,o),
(442,100,cs),
(441,58,o),
(403,42,o),
(364,39,cs),
(341,37,l),
(328,-3,l)
);
},
{
closed = 1;
nodes = (
(92,-1,l),
(209,-3,l),
(222,37,l),
(191,39,ls),
(162,41,o),
(147,53,o),
(147,72,cs),
(147,98,o),
(181,130,o),
(214,160,cs),
(396,326,l),
(360,361,l),
(111,137,ls),
(26,61,o),
(-3,42,o),
(-30,39,cs),
(-50,37,l),
(-63,-3,l)
);
},
{
closed = 1;
nodes = (
(702,573,ls),
(791,654,o),
(823,669,o),
(847,671,cs),
(868,673,l),
(881,713,l),
(737,711,l),
(616,713,l),
(603,673,l),
(629,671,ls),
(653,669,o),
(666,657,o),
(666,640,cs),
(666,621,o),
(650,594,o),
(616,563,cs),
(435,402,l),
(471,365,l)
);
}
);
width = 760;
}
);
unicode = 88;
},
{
color = 6;
glyphname = Y;
kernLeft = Y;
kernRight = Y;
layers = (
{
anchors = (
{
name = bottom;
pos = (287,0);
},
{
name = top;
pos = (521,710);
},
{
name = topleft;
pos = (221,710);
}
);
layerId = "9372F035-DA38-4B54-966C-CEBA9B53DD02";
shapes = (
{
closed = 1;
nodes = (
(295,0,l),
(468,-3,l),
(477,22,l),
(458,24,ls),
(401,30,o),
(348,33,o),
(364,89,cs),
(420,287,l),
(670,601,ls),
(713,654,o),
(754,680,o),
(790,685,cs),
(811,688,l),
(820,713,l),
(694,710,l),
(566,713,l),
(557,688,l),
(576,686,ls),
(626,681,o),
(654,672,o),
(654,648,cs),
(654,635,o),
(646,618,o),
(628,595,cs),
(386,291,l),
(414,285,l),
(338,581,ls),
(334,598,o),
(331,613,o),
(331,626,cs),
(331,664,o),
(352,682,o),
(397,686,cs),
(418,688,l),
(427,713,l),
(281,710,l),
(150,713,l),
(141,688,l),
(160,686,ls),
(236,678,o),
(243,650,o),
(257,593,cs),
(336,275,l),
(288,102,ls),
(269,32,o),
(241,31,o),
(180,24,cs),
(159,22,l),
(150,-3,l)
);
}
);
width = 663;
},
{
anchors = (
{
name = bottom;
pos = (269,0);
},
{
name = top;
pos = (529,710);
},
{
name = topleft;
pos = (178,710);
}
);
layerId = m002;
shapes = (
{
closed = 1;
nodes = (
(282,0,l),
(441,-3,l),
(454,38,l),
(435,40,ls),
(381,46,o),
(373,56,o),
(398,133,cs),
(448,288,l),
(666,557,ls),
(736,643,o),
(762,666,o),
(818,672,cs),
(828,673,l),
(841,713,l),
(732,711,l),
(602,713,l),
(589,673,l),
(622,671,ls),
(641,670,o),
(652,662,o),
(652,646,cs),
(652,629,o),
(640,604,o),
(613,570,cs),
(384,285,l),
(438,323,l),
(385,550,ls),
(380,572,o),
(376,592,o),
(376,610,cs),
(376,643,o),
(388,667,o),
(429,671,cs),
(451,673,l),
(463,713,l),
(312,710,l),
(154,713,l),
(141,673,l),
(160,671,ls),
(194,667,o),
(204,657,o),
(216,607,cs),
(293,294,l),
(241,133,ls),
(217,58,o),
(205,45,o),
(157,40,cs),
(137,38,l),
(124,-3,l)
);
}
);
width = 682;
}
);
unicode = 89;
},
{
color = 6;
glyphname = Z;
kernLeft = I;
kernRight = I;
layers = (
{
anchors = (
{
name = bottom;
pos = (244,0);
},
{
name = top;
pos = (478,710);
}
);
layerId = "9372F035-DA38-4B54-966C-CEBA9B53DD02";
shapes = (
{
closed = 1;
nodes = (
(586,1,l),
(607,107,l),
(644,260,l),
(618,260,l),
(556,99,o),
(513,29,o),
(327,29,cs),
(78,29,l),
(85,9,l),
(762,703,l),
(758,713,l),
(666,710,l),
(236,710,l),
(159,506,l),
(185,506,l),
(237,613,o),
(262,685,o),
(415,685,cs),
(710,685,l),
(661,703,l),
(-16,9,l),
(-9,0,l)
);
}
);
width = 675;
},
{
anchors = (
{
name = bottom;
pos = (339,0);
},
{
name = top;
pos = (570,710);
}
);
layerId = m002;
shapes = (
{
closed = 1;
nodes = (
(605,0,l),
(620,72,l),
(673,264,l),
(633,264,l),
(567,95,o),
(459,44,o),
(296,44,cs),
(81,44,l),
(181,33,l),
(807,673,l),
(799,713,l),
(636,710,l),
(234,710,l),
(161,506,l),
(202,506,l),
(261,629,o),
(344,666,o),
(486,666,cs),
(688,666,l),
(630,700,l),
(-18,37,l),
(-30,0,l)
);
}
);
width = 691;
}
);
unicode = 90;
},
{
color = 6;
glyphname = J.ss01;
kernLeft = J;
kernRight = U;
layers = (
{
anchors = (
{
name = bottom;
pos = (257,0);
},
{
name = top;
pos = (487,710);
}
);
layerId = "9372F035-DA38-4B54-966C-CEBA9B53DD02";
shapes = (
{
closed = 1;
nodes = (
(239,-224,o),
(339,53,o),
(451,386,cs),
(482,479,o),
(507,543,o),
(556,634,c),
(524,612,l),
(588,612,o),
(695,645,o),
(693,700,cs),
(693,712,o),
(681,724,o),
(655,724,cs),
(622,724,o),
(581,696,o),
(543,657,cs),
(529,641,o),
(517,634,o),
(504,637,cs),
(444,654,o),
(393,724,o),
(323,724,cs),
(222,724,o),
(156,648,o),
(124,557,c),
(146,557,l),
(174,622,o),
(222,655,o),
(279,655,cs),
(353,655,o),
(455,610,o),
(525,615,c),
(522,631,l),
(455,549,o),
(414,492,o),
(365,355,cs),
(342,292,o),
(315,211,o),
(277,109,cs),
(251,39,o),
(227,-54,o),
(188,-120,cs),
(160,-168,o),
(124,-201,o),
(75,-201,cs),
(58,-201,o),
(49,-196,o),
(42,-188,cs),
(34,-178,o),
(31,-164,o),
(27,-147,cs),
(20,-117,o),
(9,-90,o),
(-26,-90,cs),
(-53,-90,o),
(-71,-109,o),
(-71,-135,cs),
(-71,-195,o),
(-2,-224,o),
(72,-224,cs)
);
},
{
closed = 1;
nodes = (
(382,377,l),
(391,401,l),
(201,401,l),
(193,377,l)
);
},
{
closed = 1;
nodes = (
(533,377,l),
(541,401,l),
(416,401,l),
(410,377,l)
);
}
);
width = 555;
},
{
anchors = (
{
name = bottom;
pos = (254,0);
},
{
name = top;
pos = (484,710);
}
);
layerId = m002;
shapes = (
{
closed = 1;
nodes = (
(245,-224,o),
(359,0,o),
(453,290,cs),
(503,445,o),
(538,545,o),
(571,623,c),
(484,576,l),
(614,562,o),
(683,612,o),
(699,660,cs),
(710,694,o),
(692,724,o),
(656,724,cs),
(608,724,o),
(558,697,o),
(512,651,cs),
(483,621,o),
(472,622,o),
(453,641,cs),
(416,680,o),
(371,724,o),
(302,724,cs),
(196,724,o),
(134,626,o),
(118,527,c),
(150,527,l),
(162,569,o),
(200,585,o),
(297,585,cs),
(356,585,o),
(424,578,o),
(485,576,c),
(477,597,l),
(421,566,o),
(358,469,o),
(330,376,cs),
(322,350,o),
(294,265,o),
(280,223,cs),
(256,152,o),
(198,-68,o),
(138,-153,cs),
(123,-175,o),
(108,-188,o),
(93,-188,cs),
(79,-188,o),
(68,-181,o),
(68,-166,cs),
(68,-147,o),
(78,-128,o),
(78,-95,cs),
(78,-59,o),
(47,-40,o),
(12,-40,cs),
(-30,-40,o),
(-77,-68,o),
(-77,-128,cs),
(-77,-176,o),
(-40,-224,o),
(77,-224,cs)
);
},
{
closed = 1;
nodes = (
(392,361,l),
(406,401,l),
(176,401,l),
(163,361,l)
);
},
{
closed = 1;
nodes = (
(583,361,l),
(596,401,l),
(431,401,l),
(420,361,l)
);
}
);
width = 572;
}
);
},
{
color = 6;
glyphname = Y.ss01;
kernLeft = Y;
kernRight = Y;
layers = (
{
anchors = (
{
name = bottom;
pos = (271,0);
},
{
name = top;
pos = (490,710);
},
{
name = topleft;
pos = (203,710);
}
);
layerId = "9372F035-DA38-4B54-966C-CEBA9B53DD02";
shapes = (
{
closed = 1;
nodes = (
(272,0,l),
(445,-3,l),
(454,22,l),
(435,24,ls),
(378,30,o),
(322,33,o),
(341,89,cs),
(442,393,ls),
(525,643,o),
(587,685,o),
(655,685,cs),
(706,685,o),
(734,647,o),
(734,579,c),
(758,579,l),
(758,608,ls),
(758,679,o),
(716,724,o),
(647,724,cs),
(534,724,o),
(434,641,o),
(352,283,c),
(378,297,l),
(525,642,o),
(407,722,o),
(310,722,cs),
(240,722,o),
(171,678,o),
(154,598,cs),
(150,579,l),
(174,579,l),
(186,645,o),
(231,685,o),
(289,685,cs),
(387,685,o),
(417,570,o),
(353,373,cs),
(265,102,ls),
(243,33,o),
(218,30,o),
(157,24,cs),
(136,22,l),
(127,-3,l)
);
}
);
width = 671;
},
{
anchors = (
{
name = bottom;
pos = (279,0);
},
{
name = top;
pos = (487,710);
},
{
name = topleft;
pos = (178,710);
}
);
layerId = m002;
shapes = (
{
closed = 1;
nodes = (
(274,0,l),
(433,-3,l),
(446,38,l),
(427,40,ls),
(367,46,o),
(360,55,o),
(385,133,cs),
(453,343,ls),
(540,612,o),
(592,665,o),
(654,665,cs),
(707,665,o),
(724,627,o),
(724,579,c),
(765,579,l),
(765,598,ls),
(765,671,o),
(731,724,o),
(644,724,cs),
(490,724,o),
(409,581,o),
(321,243,c),
(383,247,l),
(504,621,o),
(411,722,o),
(294,722,cs),
(216,722,o),
(150,677,o),
(129,598,cs),
(124,579,l),
(162,579,l),
(171,629,o),
(214,665,o),
(262,665,cs),
(349,665,o),
(366,543,o),
(301,343,cs),
(233,133,ls),
(209,58,o),
(198,45,o),
(149,40,cs),
(129,38,l),
(116,-3,l)
);
}
);
width = 682;
}
);
},
{
color = 6;
glyphname = a;
kernLeft = a;
kernRight = u;
layers = (
{
anchors = (
{
name = bottom;
pos = (190,0);
},
{
name = ogonek;
pos = (439,0);
},
{
name = top;
pos = (326,440);
}
);
layerId = "9372F035-DA38-4B54-966C-CEBA9B53DD02";
shapes = (
{
closed = 1;
nodes = (
(228,-14,o),
(287,31,o),
(333,105,c),
(326,105,l),
(306,57,o),
(299,-14,o),
(369,-14,cs),
(426,-14,o),
(466,33,o),
(491,75,c),
(473,87,l),
(456,57,o),
(425,19,o),
(396,19,cs),
(369,19,o),
(382,63,o),
(390,85,cs),
(515,440,l),
(449,440,l),
(404,318,l),
(416,323,l),
(417,398,o),
(388,454,o),
(318,454,cs),
(188,454,o),
(81,333,o),
(42,214,cs),
(5,99,o),
(31,-14,o),
(161,-14,cs)
);
},
{
closed = 1;
nodes = (
(92,12,o),
(86,105,o),
(118,203,cs),
(153,312,o),
(237,428,o),
(324,428,cs),
(409,428,o),
(404,312,o),
(364,209,cs),
(318,91,o),
(247,12,o),
(171,12,cs)
);
}
);
width = 534;
},
{
anchors = (
{
name = bottom;
pos = (183,0);
},
{
name = ogonek;
pos = (480,0);
},
{
name = top;
pos = (327,446);
}
);
layerId = m002;
shapes = (
{
closed = 1;
nodes = (
(218,-14,o),
(303,35,o),
(353,131,c),
(339,150,l),
(314,76,o),
(304,-14,o),
(399,-14,cs),
(467,-14,o),
(520,22,o),
(552,93,c),
(524,111,l),
(500,64,o),
(480,45,o),
(466,45,cs),
(449,45,o),
(447,65,o),
(460,104,cs),
(571,446,l),
(429,446,l),
(379,294,l),
(397,294,l),
(428,390,o),
(385,460,o),
(298,460,cs),
(177,460,o),
(77,344,o),
(37,227,cs),
(-4,107,o),
(17,-14,o),
(142,-14,cs)
);
},
{
closed = 1;
nodes = (
(164,52,o),
(154,111,o),
(188,214,cs),
(221,313,o),
(274,393,o),
(330,393,cs),
(380,393,o),
(394,328,o),
(356,218,cs),
(321,116,o),
(267,52,o),
(214,52,cs)
);
}
);
width = 582;
}
);
unicode = 97;
},
{
color = 6;
glyphname = ae;
kernLeft = a;
kernRight = e;
layers = (
{
anchors = (
{
name = bottom;
pos = (249,0);
},
{
name = top;
pos = (391,440);
}
);
layerId = "9372F035-DA38-4B54-966C-CEBA9B53DD02";
shapes = (
{
closed = 1;
nodes = (
(493,-14,o),
(541,33,o),
(572,76,c),
(555,90,l),
(529,54,o),
(484,12,o),
(432,12,cs),
(333,12,o),
(330,145,o),
(361,239,cs),
(394,343,o),
(471,432,o),
(538,432,cs),
(584,432,o),
(588,387,o),
(577,352,cs),
(565,315,o),
(527,266,o),
(418,251,cs),
(353,242,l),
(350,221,l),
(439,230,ls),
(545,241,o),
(616,275,o),
(636,335,cs),
(654,390,o),
(625,452,o),
(539,452,cs),
(436,452,o),
(322,364,o),
(282,243,cs),
(244,126,o),
(279,-14,o),
(419,-14,cs)
);
},
{
closed = 1;
nodes = (
(180,-14,o),
(249,29,o),
(287,93,c),
(281,130,l),
(260,77,o),
(194,22,o),
(147,22,cs),
(116,22,o),
(92,43,o),
(92,75,cs),
(92,165,o),
(227,222,o),
(310,247,c),
(313,270,l),
(217,244,o),
(17,174,o),
(17,62,cs),
(17,12,o),
(61,-14,o),
(118,-14,cs)
);
},
{
closed = 1;
nodes = (
(362,247,o),
(374,301,o),
(375,353,cs),
(378,418,o),
(339,454,o),
(255,454,cs),
(140,454,o),
(92,394,o),
(90,354,cs),
(90,330,o),
(101,311,o),
(129,311,cs),
(158,311,o),
(175,332,o),
(175,356,cs),
(175,389,o),
(202,432,o),
(258,432,cs),
(301,432,o),
(316,404,o),
(315,367,cs),
(314,336,o),
(304,306,o),
(288,260,c),
(324,118,l)
);
}
);
width = 649;
},
{
anchors = (
{
name = bottom;
pos = (288,0);
},
{
name = top;
pos = (442,446);
}
);
layerId = m002;
shapes = (
{
closed = 1;
nodes = (
(574,-14,o),
(638,40,o),
(673,105,c),
(643,123,l),
(597,50,o),
(547,25,o),
(501,25,cs),
(415,25,o),
(400,113,o),
(440,239,cs),
(480,366,o),
(540,424,o),
(579,424,cs),
(615,424,o),
(615,372,o),
(603,339,cs),
(592,308,o),
(558,265,o),
(458,251,cs),
(393,242,l),
(390,211,l),
(479,218,ls),
(617,229,o),
(712,267,o),
(736,335,cs),
(757,396,o),
(713,460,o),
(595,460,cs),
(433,460,o),
(324,339,o),
(290,238,cs),
(253,127,o),
(293,-14,o),
(467,-14,cs)
);
},
{
closed = 1;
nodes = (
(185,-14,o),
(267,45,o),
(302,102,c),
(289,143,l),
(248,75,o),
(202,47,o),
(170,47,cs),
(143,47,o),
(131,66,o),
(133,90,cs),
(138,139,o),
(201,214,o),
(341,238,c),
(349,271,l),
(255,263,o),
(0,187,o),
(-11,71,cs),
(-15,29,o),
(12,-14,o),
(92,-14,cs)
);
},
{
closed = 1;
nodes = (
(428,257,o),
(441,293,o),
(445,336,cs),
(452,420,o),
(405,460,o),
(305,460,cs),
(197,460,o),
(94,414,o),
(77,335,cs),
(70,304,o),
(80,278,o),
(129,278,cs),
(189,278,o),
(200,316,o),
(205,341,cs),
(212,377,o),
(215,424,o),
(280,424,cs),
(316,424,o),
(342,409,o),
(322,342,cs),
(311,305,o),
(300,268,o),
(293,245,c),
(420,219,l)
);
}
);
width = 733;
}
);
metricLeft = a;
metricRight = e;
unicode = 230;
},
{
color = 6;
glyphname = b;
kernLeft = l;
kernRight = b;
layers = (
{
anchors = (
{
name = bottom;
pos = (157,0);
},
{
name = top;
pos = (317,440);
}
);
layerId = "9372F035-DA38-4B54-966C-CEBA9B53DD02";
shapes = (
{
closed = 1;
nodes = (
(292,-14,o),
(404,77,o),
(444,201,cs),
(480,311,o),
(458,454,o),
(333,454,cs),
(271,454,o),
(211,408,o),
(177,354,c),
(179,343,l),
(296,713,l),
(134,710,l),
(127,686,l),
(147,686,ls),
(210,686,o),
(207,655,o),
(194,615,cs),
(71,233,ls),
(26,96,o),
(33,-14,o),
(179,-14,cs)
);
},
{
closed = 1;
nodes = (
(91,8,o),
(107,138,o),
(137,221,cs),
(156,274,ls),
(184,353,o),
(258,426,o),
(312,426,cs),
(400,426,o),
(393,293,o),
(365,208,cs),
(331,104,o),
(256,8,o),
(179,8,cs)
);
}
);
width = 493;
},
{
anchors = (
{
name = bottom;
pos = (229,0);
},
{
name = top;
pos = (389,440);
}
);
layerId = m002;
shapes = (
{
closed = 1;
nodes = (
(348,-14,o),
(482,65,o),
(534,211,cs),
(579,339,o),
(527,460,o),
(421,460,cs),
(356,460,o),
(279,419,o),
(232,342,c),
(255,343,l),
(376,713,l),
(148,710,l),
(138,676,l),
(159,676,ls),
(213,676,o),
(213,652,o),
(197,604,cs),
(79,243,ls),
(24,75,o),
(66,-14,o),
(223,-14,cs)
);
},
{
closed = 1;
nodes = (
(183,37,o),
(170,86,o),
(209,210,cs),
(216,232,ls),
(249,336,o),
(302,394,o),
(352,394,cs),
(404,394,o),
(412,327,o),
(375,213,cs),
(340,105,o),
(285,37,o),
(233,37,cs)
);
}
);
width = 574;
}
);
unicode = 98;
},
{
color = 6;
glyphname = c;
kernLeft = o;
kernRight = o;
layers = (
{
anchors = (
{
name = bottom;
pos = (205,0);
},
{
name = top;
pos = (305,440);
}
);
layerId = "9372F035-DA38-4B54-966C-CEBA9B53DD02";
shapes = (
{
closed = 1;
nodes = (
(285,-14,o),
(340,33,o),
(369,90,c),
(351,103,l),
(325,58,o),
(278,11,o),
(218,11,cs),
(108,11,o),
(101,148,o),
(130,239,cs),
(163,339,o),
(243,432,o),
(327,432,cs),
(364,432,o),
(359,409,o),
(359,367,cs),
(359,343,o),
(375,327,o),
(400,327,cs),
(430,327,o),
(445,354,o),
(445,379,cs),
(445,405,o),
(432,454,o),
(333,454,cs),
(214,454,o),
(91,362,o),
(50,238,cs),
(14,127,o),
(46,-14,o),
(201,-14,cs)
);
}
);
width = 439;
},
{
anchors = (
{
name = bottom;
pos = (219,0);
},
{
name = top;
pos = (319,440);
}
);
layerId = m002;
shapes = (
{
closed = 1;
nodes = (
(322,-14,o),
(386,41,o),
(422,107,c),
(395,125,l),
(349,58,o),
(297,36,o),
(249,36,cs),
(162,36,o),
(158,144,o),
(191,246,cs),
(221,338,o),
(280,424,o),
(338,424,cs),
(378,424,o),
(366,397,o),
(366,343,cs),
(366,310,o),
(389,288,o),
(425,288,cs),
(469,288,o),
(491,325,o),
(491,358,cs),
(491,402,o),
(450,460,o),
(346,460,cs),
(213,460,o),
(75,368,o),
(34,241,cs),
(-1,130,o),
(38,-14,o),
(214,-14,cs)
);
}
);
width = 476;
}
);
metricLeft = o;
unicode = 99;
},
{
color = 6;
glyphname = d;
kernLeft = o;
kernRight = l;
layers = (
{
anchors = (
{
name = bottom;
pos = (184,0);
},
{
name = center;
pos = (506,570);
},
{
name = top;
pos = (323,440);
},
{
name = topright;
pos = (620,710);
}
);
layerId = "9372F035-DA38-4B54-966C-CEBA9B53DD02";
shapes = (
{
closed = 1;
nodes = (
(234,-14,o),
(299,38,o),
(345,122,c),
(340,126,l),
(316,55,o),
(303,-14,o),
(377,-14,cs),
(434,-14,o),
(474,33,o),
(499,75,c),
(481,87,l),
(464,57,o),
(433,19,o),
(404,19,cs),
(378,19,o),
(390,60,o),
(398,85,cs),
(603,713,l),
(441,710,l),
(434,686,l),
(461,686,ls),
(515,686,o),
(515,662,o),
(499,614,cs),
(407,332,l),
(418,338,l),
(419,406,o),
(385,454,o),
(320,454,cs),
(213,454,o),
(85,348,o),
(43,216,cs),
(6,104,o),
(36,-14,o),
(163,-14,cs)
);
},
{
closed = 1;
nodes = (
(87,12,o),
(95,130,o),
(120,206,cs),
(157,318,o),
(245,428,o),
(326,428,cs),
(406,428,o),
(405,326,o),
(374,229,cs),
(337,116,o),
(261,12,o),
(173,12,cs)
);
}
);
width = 540;
},
{
anchors = (
{
name = bottom;
pos = (219,0);
},
{
name = center;
pos = (545,568);
},
{
name = top;
pos = (449,710);
},
{
name = topright;
pos = (677,710);
}
);
layerId = m002;
shapes = (
{
closed = 1;
nodes = (
(221,-14,o),
(306,35,o),
(356,131,c),
(342,150,l),
(317,76,o),
(307,-14,o),
(402,-14,cs),
(470,-14,o),
(523,22,o),
(555,93,c),
(527,111,l),
(503,64,o),
(483,45,o),
(469,45,cs),
(452,45,o),
(450,65,o),
(463,104,cs),
(661,713,l),
(434,710,l),
(424,676,l),
(445,676,ls),
(499,676,o),
(499,652,o),
(483,604,cs),
(382,294,l),
(400,294,l),
(431,390,o),
(388,460,o),
(301,460,cs),
(197,460,o),
(86,368,o),
(40,235,cs),
(-1,115,o),
(23,-14,o),
(145,-14,cs)
);
},
{
closed = 1;
nodes = (
(167,52,o),
(157,111,o),
(191,214,cs),
(224,313,o),
(277,393,o),
(333,393,cs),
(383,393,o),
(397,328,o),
(359,218,cs),
(324,116,o),
(270,52,o),
(217,52,cs)
);
}
);
width = 581;
}
);
metricLeft = a;
unicode = 100;
},
{
color = 10;
glyphname = dcroat;
kernLeft = o;
kernRight = l;
layers = (
{
layerId = "9372F035-DA38-4B54-966C-CEBA9B53DD02";
shapes = (
{
ref = d;
},
{
closed = 1;
nodes = (
(631,560,l),
(638,584,l),
(326,584,l),
(319,560,l)
);
}
);
width = 540;
},
{
layerId = m002;
shapes = (
{
ref = d;
},
{
closed = 1;
nodes = (
(668,548,l),
(681,588,l),
(337,588,l),
(324,548,l)
);
}
);
width = 581;
}
);
unicode = 273;
},
{
color = 6;
glyphname = eth;
kernLeft = o;
kernRight = O;
layers = (
{
anchors = (
{
name = bottom;
pos = (177,0);
},
{
name = center;
pos = (257,220);
},
{
name = ogonek;
pos = (320,0);
},
{
name = top;
pos = (321,440);
},
{
name = topright;
pos = (531,440);
}
);
layerId = "9372F035-DA38-4B54-966C-CEBA9B53DD02";
shapes = (
{
closed = 1;
nodes = (
(393,-14,o),
(504,202,o),
(504,384,cs),
(504,522,o),
(420,659,o),
(322,724,c),
(311,710,l),
(404,606,o),
(438,530,o),
(438,387,c),
(449,394,l),
(423,430,o),
(378,454,o),
(318,454,cs),
(198,454,o),
(90,361,o),
(51,242,cs),
(11,119,o),
(51,-14,o),
(196,-14,cs)
);
},
{
closed = 1;
nodes = (
(91,8,o),
(96,134,o),
(126,225,cs),
(159,326,o),
(231,432,o),
(320,432,cs),
(425,432,o),
(419,308,o),
(389,215,cs),
(356,114,o),
(284,8,o),
(195,8,cs)
);
},
{
closed = 1;
nodes = (
(531,628,l),
(524,661,l),
(264,594,l),
(269,572,l)
);
}
);
width = 519;
},
{
anchors = (
{
name = bottom;
pos = (190,0);
},
{
name = center;
pos = (270,220);
},
{
name = ogonek;
pos = (333,0);
},
{
name = top;
pos = (334,440);
},
{
name = topright;
pos = (544,440);
}
);
layerId = m002;
shapes = (
{
closed = 1;
nodes = (
(391,-14,o),
(531,150,o),
(531,336,cs),
(531,473,o),
(472,627,o),
(335,724,c),
(297,710,l),
(375,596,o),
(417,473,o),
(384,371,c),
(462,394,l),
(424,439,o),
(372,459,o),
(317,459,cs),
(202,459,o),
(76,371,o),
(34,241,cs),
(-10,107,o),
(44,-14,o),
(209,-14,cs)
);
},
{
closed = 1;
nodes = (
(171,36,o),
(146,103,o),
(192,243,cs),
(229,354,o),
(286,410,o),
(328,410,cs),
(373,410,o),
(398,343,o),
(354,207,cs),
(318,94,o),
(258,36,o),
(216,36,cs)
);
},
{
closed = 1;
nodes = (
(544,619,l),
(534,668,l),
(248,592,l),
(256,560,l)
);
}
);
width = 541;
}
);
metricLeft = o;
metricRight = o;
unicode = 240;
},
{
color = 6;
glyphname = e;
kernLeft = o;
kernRight = o;
layers = (
{
anchors = (
{
name = bottom;
pos = (187,0);
},
{
name = ogonek;
pos = (279,0);
},
{
name = top;
pos = (299,440);
}
);
layerId = "9372F035-DA38-4B54-966C-CEBA9B53DD02";
shapes = (
{
closed = 1;
nodes = (
(262,-14,o),
(310,33,o),
(341,76,c),
(324,90,l),
(298,54,o),
(253,12,o),
(201,12,cs),
(102,12,o),
(99,145,o),
(130,239,cs),
(163,343,o),
(240,432,o),
(307,432,cs),
(353,432,o),
(357,387,o),
(346,352,cs),
(334,315,o),
(296,266,o),
(187,251,cs),
(122,242,l),
(119,221,l),
(208,230,ls),
(314,241,o),
(385,275,o),
(405,335,cs),
(423,390,o),
(394,452,o),
(308,452,cs),
(205,452,o),
(91,364,o),
(51,243,cs),
(13,126,o),
(48,-14,o),
(188,-14,cs)
);
}
);
width = 418;
},
{
anchors = (
{
name = bottom;
pos = (201,0);
},
{
name = ogonek;
pos = (326,0);
},
{
name = top;
pos = (323,440);
}
);
layerId = m002;
shapes = (
{
closed = 1;
nodes = (
(317,-14,o),
(381,40,o),
(416,105,c),
(386,123,l),
(340,57,o),
(290,35,o),
(244,35,cs),
(153,35,o),
(151,142,o),
(184,244,cs),
(214,336,o),
(273,424,o),
(321,424,cs),
(358,424,o),
(358,373,o),
(346,339,cs),
(335,308,o),
(301,265,o),
(201,251,cs),
(136,242,l),
(133,211,l),
(222,218,ls),
(360,229,o),
(457,268,o),
(479,335,cs),
(499,397,o),
(456,460,o),
(339,460,cs),
(176,460,o),
(67,339,o),
(33,238,cs),
(-4,127,o),
(36,-14,o),
(210,-14,cs)
);
}
);
width = 476;
}
);
metricLeft = o;
unicode = 101;
},
{
color = 6;
glyphname = f;
kernLeft = f;
kernRight = f;
layers = (
{
layerId = "9372F035-DA38-4B54-966C-CEBA9B53DD02";
shapes = (
{
closed = 1;
nodes = (
(-24,-290,o),
(29,-260,o),
(73,-127,cs),
(315,611,ls),
(339,684,o),
(380,702,o),
(406,702,cs),
(432,702,o),
(441,689,o),
(441,651,cs),
(441,622,o),
(451,601,o),
(482,601,cs),
(515,601,o),
(528,627,o),
(528,654,cs),
(528,689,o),
(497,724,o),
(424,724,cs),
(338,724,o),
(265,683,o),
(222,552,cs),
(1,-127,ls),
(-27,-213,o),
(-58,-268,o),
(-93,-268,cs),
(-137,-268,o),
(-114,-170,o),
(-173,-170,cs),
(-201,-170,o),
(-222,-190,o),
(-222,-217,cs),
(-222,-253,o),
(-193,-290,o),
(-111,-290,cs)
);
},
{
closed = 1;
nodes = (
(358,416,l),
(366,440,l),
(99,440,l),
(91,416,l)
);
}
);
width = 330;
},
{
layerId = m002;
shapes = (
{
closed = 1;
nodes = (
(-1,-294,o),
(82,-251,o),
(126,-117,cs),
(339,533,ls),
(367,620,o),
(389,688,o),
(425,688,cs),
(451,688,o),
(448,661,o),
(448,632,cs),
(448,597,o),
(452,560,o),
(510,560,cs),
(564,560,o),
(594,592,o),
(594,631,cs),
(594,680,o),
(562,724,o),
(450,724,cs),
(326,724,o),
(243,681,o),
(199,547,cs),
(-14,-103,ls),
(-42,-190,o),
(-64,-258,o),
(-100,-258,cs),
(-156,-258,o),
(-77,-130,o),
(-185,-130,cs),
(-239,-130,o),
(-269,-162,o),
(-269,-201,cs),
(-269,-254,o),
(-220,-294,o),
(-125,-294,cs)
);
},
{
closed = 1;
nodes = (
(405,406,l),
(418,446,l),
(96,446,l),
(83,406,l)
);
}
);
width = 365;
}
);
metricRight = f;
unicode = 102;
},
{
color = 6;
glyphname = g;
kernLeft = g;
kernRight = g;
layers = (
{
anchors = (
{
name = top;
pos = (296,440);
}
);
layerId = "9372F035-DA38-4B54-966C-CEBA9B53DD02";
shapes = (
{
closed = 1;
nodes = (
(300,-290,o),
(400,-222,o),
(400,-110,cs),
(400,-51,o),
(364,7,o),
(251,21,cs),
(131,36,ls),
(82,42,o),
(64,61,o),
(64,81,cs),
(64,110,o),
(97,140,o),
(167,164,c),
(152,181,l),
(60,150,o),
(21,107,o),
(21,56,cs),
(21,9,o),
(60,-25,o),
(136,-35,cs),
(265,-52,ls),
(330,-61,o),
(355,-98,o),
(355,-137,cs),
(355,-218,o),
(271,-268,o),
(170,-268,cs),
(57,-268,o),
(27,-224,o),
(27,-197,cs),
(27,-170,o),
(46,-149,o),
(46,-124,cs),
(46,-106,o),
(35,-83,o),
(5,-83,cs),
(-24,-83,o),
(-47,-112,o),
(-47,-148,cs),
(-47,-206,o),
(19,-290,o),
(167,-290,cs)
);
},
{
closed = 1;
nodes = (
(335,134,o),
(414,187,o),
(439,264,cs),
(467,352,o),
(421,453,o),
(293,453,cs),
(200,453,o),
(124,400,o),
(99,324,cs),
(73,243,o),
(107,134,o),
(251,134,cs)
);
},
{
closed = 1;
nodes = (
(161,158,o),
(146,244,o),
(170,318,cs),
(189,377,o),
(233,429,o),
(295,429,cs),
(377,429,o),
(392,347,o),
(368,271,cs),
(349,213,o),
(307,158,o),
(241,158,cs)
);
},
{
closed = 1;
nodes = (
(560,378,o),
(575,399,o),
(575,419,cs),
(575,452,o),
(546,478,o),
(502,478,cs),
(460,478,o),
(407,452,o),
(384,413,c),
(402,403,l),
(435,439,o),
(453,449,o),
(469,449,cs),
(488,449,o),
(492,435,o),
(492,417,cs),
(492,391,o),
(512,378,o),
(534,378,cs)
);
}
);
width = 534;
},
{
anchors = (
{
name = top;
pos = (304,440);
}
);
layerId = m002;
shapes = (
{
closed = 1;
nodes = (
(311,-290,o),
(447,-235,o),
(447,-103,cs),
(447,-29,o),
(403,32,o),
(273,49,cs),
(150,65,ls),
(112,70,o),
(95,80,o),
(95,97,cs),
(95,120,o),
(122,149,o),
(173,165,c),
(135,179,l),
(38,147,o),
(-2,98,o),
(-2,40,cs),
(-2,-14,o),
(34,-56,o),
(146,-71,cs),
(265,-87,ls),
(316,-94,o),
(344,-117,o),
(344,-156,cs),
(344,-196,o),
(294,-252,o),
(180,-252,cs),
(98,-252,o),
(75,-218,o),
(75,-194,cs),
(75,-176,o),
(89,-153,o),
(89,-134,cs),
(89,-111,o),
(68,-81,o),
(17,-81,cs),
(-42,-81,o),
(-73,-121,o),
(-73,-157,cs),
(-73,-213,o),
(1,-290,o),
(166,-290,cs)
);
},
{
closed = 1;
nodes = (
(362,139,o),
(457,186,o),
(485,270,cs),
(514,357,o),
(463,461,o),
(305,461,cs),
(199,461,o),
(101,412,o),
(74,328,cs),
(48,247,o),
(91,139,o),
(252,139,cs)
);
},
{
closed = 1;
nodes = (
(209,175,o),
(191,250,o),
(214,324,cs),
(228,369,o),
(259,423,o),
(302,423,cs),
(350,423,o),
(369,351,o),
(346,276,cs),
(327,214,o),
(291,175,o),
(258,175,cs)
);
},
{
closed = 1;
nodes = (
(589,385,o),
(614,416,o),
(614,455,cs),
(614,495,o),
(586,530,o),
(529,530,cs),
(468,530,o),
(419,488,o),
(393,428,c),
(424,415,l),
(438,442,o),
(461,461,o),
(477,461,cs),
(490,461,o),
(495,451,o),
(495,432,cs),
(495,402,o),
(516,385,o),
(549,385,cs)
);
}
);
width = 562;
}
);
unicode = 103;
},
{
color = 6;
glyphname = h;
kernLeft = l;
kernRight = n;
layers = (
{
anchors = (
{
name = bottom;
pos = (194,0);
},
{
name = center;
pos = (249,570);
},
{
name = top;
pos = (271,710);
}
);
layerId = "9372F035-DA38-4B54-966C-CEBA9B53DD02";
shapes = (
{
closed = 1;
nodes = (
(413,-14,o),
(453,31,o),
(478,72,c),
(460,84,l),
(443,55,o),
(412,19,o),
(383,19,cs),
(358,19,o),
(367,56,o),
(376,80,cs),
(466,331,ls),
(488,393,o),
(485,454,o),
(390,454,cs),
(304,454,o),
(233,390,o),
(189,327,c),
(191,313,l),
(321,713,l),
(159,710,l),
(152,686,l),
(171,686,ls),
(230,686,o),
(233,660,o),
(218,615,cs),
(17,-1,l),
(89,0,l),
(173,257,ls),
(196,327,o),
(295,429,o),
(371,429,cs),
(411,429,o),
(415,393,o),
(402,356,cs),
(315,110,ls),
(294,52,o),
(285,-14,o),
(356,-14,cs)
);
}
);
width = 526;
},
{
anchors = (
{
name = bottom;
pos = (228,0);
},
{
name = center;
pos = (265,570);
},
{
name = top;
pos = (304,710);
}
);
layerId = m002;
shapes = (
{
closed = 1;
nodes = (
(484,-14,o),
(540,22,o),
(572,93,c),
(544,111,l),
(521,64,o),
(501,45,o),
(486,45,cs),
(469,45,o),
(467,65,o),
(480,104,cs),
(546,299,ls),
(581,401,o),
(567,460,o),
(467,460,cs),
(353,460,o),
(235,382,o),
(185,221,c),
(220,226,l),
(382,713,l),
(152,710,l),
(141,676,l),
(162,676,ls),
(216,676,o),
(216,652,o),
(200,604,cs),
(4,0,l),
(149,0,l),
(224,226,ls),
(257,326,o),
(323,394,o),
(377,394,cs),
(414,394,o),
(422,362,o),
(408,321,cs),
(343,131,ls),
(318,57,o),
(312,-14,o),
(412,-14,cs)
);
}
);
width = 594;
}
);
metricRight = n;
unicode = 104;
},
{
color = 10;
glyphname = hbar;
kernLeft = l;
kernRight = n;
layers = (
{
layerId = "9372F035-DA38-4B54-966C-CEBA9B53DD02";
shapes = (
{
closed = 1;
nodes = (
(411,560,l),
(419,584,l),
(120,584,l),
(112,560,l)
);
},
{
ref = h;
}
);
width = 526;
},
{
layerId = m002;
shapes = (
{
closed = 1;
nodes = (
(472,550,l),
(485,590,l),
(115,590,l),
(102,550,l)
);
},
{
ref = h;
}
);
width = 594;
}
);
unicode = 295;
},
{
color = 6;
glyphname = idotless;
kernLeft = n;
kernRight = u;
layers = (
{
anchors = (
{
name = bottom;
pos = (64,0);
},
{
name = ogonek;
pos = (166,0);
},
{
name = top;
pos = (202,440);
}
);
layerId = "9372F035-DA38-4B54-966C-CEBA9B53DD02";
shapes = (
{
closed = 1;
nodes = (
(156,-14,o),
(196,33,o),
(221,75,c),
(203,87,l),
(186,57,o),
(155,19,o),
(126,19,cs),
(106,19,o),
(105,42,o),
(120,85,cs),
(246,443,l),
(84,440,l),
(77,416,l),
(106,416,ls),
(160,416,o),
(162,392,o),
(144,344,cs),
(58,113,ls),
(33,45,o),
(33,-14,o),
(99,-14,cs)
);
}
);
width = 278;
},
{
anchors = (
{
name = bottom;
pos = (57,0);
},
{
name = ogonek;
pos = (197,0);
},
{
name = top;
pos = (197,446);
}
);
layerId = m002;
shapes = (
{
closed = 1;
nodes = (
(182,-14,o),
(238,22,o),
(270,93,c),
(242,111,l),
(219,64,o),
(199,45,o),
(184,45,cs),
(167,45,o),
(165,65,o),
(178,104,cs),
(292,449,l),
(62,446,l),
(51,412,l),
(72,412,ls),
(126,412,o),
(126,388,o),
(110,340,cs),
(41,131,ls),
(17,58,o),
(10,-14,o),
(110,-14,cs)
);
}
);
width = 296;
}
);
unicode = 305;
},
{
color = 6;
glyphname = jdotless;
kernLeft = j;
kernRight = j;
layers = (
{
anchors = (
{
name = bottom;
pos = (-31,-290);
},
{
name = top;
pos = (206,440);
}
);
layerId = "9372F035-DA38-4B54-966C-CEBA9B53DD02";
shapes = (
{
closed = 1;
nodes = (
(-24,-290,o),
(29,-249,o),
(67,-132,cs),
(254,443,l),
(92,440,l),
(84,416,l),
(114,416,ls),
(168,416,o),
(167,392,o),
(151,344,cs),
(-2,-127,ls),
(-30,-214,o),
(-57,-268,o),
(-93,-268,cs),
(-137,-268,o),
(-114,-170,o),
(-173,-170,cs),
(-201,-170,o),
(-222,-190,o),
(-222,-217,cs),
(-222,-253,o),
(-193,-290,o),
(-111,-290,cs)
);
}
);
width = 270;
},
{
anchors = (
{
name = bottom;
pos = (-20,-290);
},
{
name = top;
pos = (215,446);
}
);
layerId = m002;
shapes = (
{
closed = 1;
nodes = (
(-11,-294,o),
(72,-251,o),
(116,-117,cs),
(303,449,l),
(72,446,l),
(61,412,l),
(82,412,ls),
(136,412,o),
(136,388,o),
(120,340,cs),
(-24,-103,ls),
(-52,-190,o),
(-74,-258,o),
(-110,-258,cs),
(-166,-258,o),
(-87,-130,o),
(-195,-130,cs),
(-249,-130,o),
(-279,-162,o),
(-279,-201,cs),
(-279,-254,o),
(-230,-294,o),
(-135,-294,cs)
);
}
);
width = 294;
}
);
unicode = 567;
},
{
color = 6;
glyphname = k;
kernLeft = l;
kernRight = k;
layers = (
{
anchors = (
{
name = bottom;
pos = (177,0);
},
{
name = top;
pos = (407,710);
}
);
layerId = "9372F035-DA38-4B54-966C-CEBA9B53DD02";
shapes = (
{
closed = 1;
nodes = (
(89,0,l),
(320,713,l),
(159,710,l),
(152,686,l),
(171,686,ls),
(234,686,o),
(231,655,o),
(218,615,cs),
(17,0,l)
);
},
{
closed = 1;
nodes = (
(382,-14,o),
(430,9,o),
(465,72,c),
(448,84,l),
(421,39,o),
(391,19,o),
(374,19,cs),
(347,19,o),
(347,37,o),
(345,136,cs),
(343,249,o),
(310,284,o),
(175,284,c),
(173,269,l),
(257,269,o),
(277,236,o),
(277,132,cs),
(277,22,o),
(287,-14,o),
(344,-14,cs)
);
},
{
closed = 1;
nodes = (
(245,270,o),
(267,295,o),
(310,340,cs),
(351,383,ls),
(370,402,o),
(381,414,o),
(395,414,cs),
(407,414,o),
(410,406,o),
(410,375,cs),
(410,346,o),
(427,337,o),
(447,337,cs),
(473,337,o),
(490,362,o),
(490,392,cs),
(490,411,o),
(483,454,o),
(430,454,cs),
(396,454,o),
(372,433,o),
(335,394,cs),
(298,355,ls),
(255,310,o),
(226,284,o),
(155,284,c),
(155,270,l)
);
}
);
visible = 1;
width = 491;
},
{
anchors = (
{
name = bottom;
pos = (255,0);
},
{
name = top;
pos = (485,710);
}
);
layerId = m002;
shapes = (
{
closed = 1;
nodes = (
(149,0,l),
(382,713,l),
(152,710,l),
(141,676,l),
(162,676,ls),
(215,676,o),
(216,653,o),
(200,604,cs),
(3,0,l)
);
},
{
closed = 1;
nodes = (
(459,-14,o),
(516,22,o),
(548,93,c),
(520,111,l),
(499,64,o),
(480,45,o),
(464,45,cs),
(449,45,o),
(441,59,o),
(439,143,cs),
(436,252,o),
(399,288,o),
(223,288,c),
(221,254,l),
(290,254,o),
(302,224,o),
(302,132,cs),
(302,16,o),
(326,-14,o),
(389,-14,cs)
);
},
{
closed = 1;
nodes = (
(296,264,o),
(334,288,o),
(369,330,cs),
(400,367,ls),
(420,391,o),
(430,397,o),
(439,397,cs),
(451,397,o),
(456,386,o),
(456,361,cs),
(456,322,o),
(479,307,o),
(514,307,cs),
(559,307,o),
(586,349,o),
(586,389,cs),
(586,434,o),
(556,460,o),
(503,460,cs),
(453,460,o),
(415,440,o),
(377,394,cs),
(344,355,ls),
(305,309,o),
(270,288,o),
(203,288,c),
(203,264,l)
);
}
);
width = 574;
}
);
unicode = 107;
},
{
color = 6;
glyphname = l;
kernLeft = l;
kernRight = l;
layers = (
{
anchors = (
{
name = bottom;
pos = (90,0);
},
{
name = center;
pos = (171,349);
},
{
name = top;
pos = (274,710);
},
{
name = topright;
pos = (332,710);
}
);
layerId = "9372F035-DA38-4B54-966C-CEBA9B53DD02";
shapes = (
{
closed = 1;
nodes = (
(147,-14,o),
(187,33,o),
(212,75,c),
(194,87,l),
(177,57,o),
(146,19,o),
(117,19,cs),
(90,19,o),
(103,61,o),
(111,85,cs),
(316,713,l),
(154,710,l),
(147,686,l),
(166,686,ls),
(229,686,o),
(226,655,o),
(213,615,cs),
(49,113,ls),
(27,47,o),
(21,-14,o),
(90,-14,cs)
);
}
);
width = 265;
},
{
anchors = (
{
name = bottom;
pos = (51,0);
},
{
name = center;
pos = (196,355);
},
{
name = top;
pos = (281,710);
},
{
name = topright;
pos = (393,710);
}
);
layerId = m002;
shapes = (
{
closed = 1;
nodes = (
(183,-14,o),
(239,22,o),
(271,93,c),
(243,111,l),
(220,64,o),
(200,45,o),
(185,45,cs),
(168,45,o),
(166,65,o),
(179,104,cs),
(378,713,l),
(148,710,l),
(137,676,l),
(158,676,ls),
(212,676,o),
(212,652,o),
(196,604,cs),
(42,131,ls),
(18,57,o),
(11,-14,o),
(111,-14,cs)
);
}
);
width = 297;
}
);
unicode = 108;
},
{
color = 10;
glyphname = lslash;
kernLeft = l;
kernRight = l;
layers = (
{
layerId = "9372F035-DA38-4B54-966C-CEBA9B53DD02";
shapes = (
{
closed = 1;
nodes = (
(307,377,l),
(295,410,l),
(16,298,l),
(24,278,l)
);
},
{
ref = l;
}
);
width = 265;
},
{
layerId = m002;
shapes = (
{
closed = 1;
nodes = (
(373,378,l),
(353,429,l),
(19,296,l),
(32,260,l)
);
},
{
pos = (12,0);
ref = l;
}
);
width = 329;
}
);
unicode = 322;
},
{
color = 6;
glyphname = m;
kernLeft = n;
kernRight = n;
layers = (
{
anchors = (
{
name = bottom;
pos = (301,0);
},
{
name = top;
pos = (461,440);
}
);
layerId = "9372F035-DA38-4B54-966C-CEBA9B53DD02";
shapes = (
{
closed = 1;
nodes = (
(663,-14,o),
(701,31,o),
(726,72,c),
(707,84,l),
(691,55,o),
(661,19,o),
(638,19,cs),
(608,19,o),
(620,75,o),
(630,103,cs),
(709,331,ls),
(732,399,o),
(714,454,o),
(631,454,cs),
(552,454,o),
(487,395,o),
(438,327,c),
(452,327,l),
(470,379,o),
(477,454,o),
(377,454,cs),
(295,454,o),
(230,391,o),
(189,329,c),
(193,316,l),
(228,443,l),
(81,440,l),
(74,416,l),
(95,416,ls),
(149,416,o),
(150,392,o),
(133,344,cs),
(15,0,l),
(87,0,l),
(175,257,ls),
(199,328,o),
(287,429,o),
(358,429,cs),
(400,429,o),
(404,395,o),
(391,356,cs),
(267,0,l),
(341,0,l),
(433,267,ls),
(458,339,o),
(544,429,o),
(612,429,cs),
(655,429,o),
(658,391,o),
(645,356,cs),
(567,135,ls),
(541,62,o),
(532,-14,o),
(614,-14,cs)
);
}
);
width = 774;
},
{
anchors = (
{
name = bottom;
pos = (362,0);
},
{
name = top;
pos = (506,446);
}
);
layerId = m002;
shapes = (
{
closed = 1;
nodes = (
(753,-14,o),
(809,22,o),
(841,93,c),
(813,111,l),
(790,64,o),
(770,45,o),
(755,45,cs),
(738,45,o),
(736,65,o),
(749,104,cs),
(815,299,ls),
(849,400,o),
(834,460,o),
(742,460,cs),
(659,460,o),
(574,418,o),
(517,330,c),
(535,313,l),
(562,406,o),
(545,460,o),
(457,460,cs),
(376,460,o),
(292,419,o),
(234,335,c),
(247,311,l),
(286,449,l),
(66,446,l),
(55,412,l),
(76,412,ls),
(130,412,o),
(130,388,o),
(114,340,cs),
(0,0,l),
(145,0,l),
(220,226,ls),
(242,292,o),
(299,394,o),
(367,394,cs),
(397,394,o),
(407,367,o),
(392,321,cs),
(288,0,l),
(433,0,l),
(516,255,ls),
(544,341,o),
(605,394,o),
(652,394,cs),
(682,394,o),
(693,367,o),
(677,321,cs),
(612,131,ls),
(587,57,o),
(581,-14,o),
(681,-14,cs)
);
}
);
width = 863;
}
);
metricLeft = n;
metricRight = n;
unicode = 109;
},
{
color = 6;
glyphname = n;
kernLeft = n;
kernRight = n;
layers = (
{
anchors = (
{
name = bottom;
pos = (190,0);
},
{
name = top;
pos = (331,440);
}
);
layerId = "9372F035-DA38-4B54-966C-CEBA9B53DD02";
shapes = (
{
closed = 1;
nodes = (
(420,-14,o),
(459,31,o),
(484,72,c),
(465,84,l),
(449,55,o),
(422,19,o),
(392,19,cs),
(369,19,o),
(371,52,o),
(381,80,cs),
(467,331,ls),
(494,410,o),
(470,454,o),
(389,454,cs),
(301,454,o),
(229,385,o),
(187,320,c),
(189,306,l),
(228,443,l),
(81,440,l),
(74,416,l),
(95,416,ls),
(149,416,o),
(149,392,o),
(133,344,cs),
(18,0,l),
(90,0,l),
(175,257,ls),
(199,329,o),
(294,429,o),
(367,429,cs),
(406,429,o),
(417,398,o),
(403,356,cs),
(320,110,ls),
(300,50,o),
(292,-14,o),
(363,-14,cs)
);
}
);
width = 532;
},
{
anchors = (
{
name = bottom;
pos = (233,0);
},
{
name = top;
pos = (344,440);
}
);
layerId = m002;
shapes = (
{
closed = 1;
nodes = (
(480,-14,o),
(536,22,o),
(568,93,c),
(540,111,l),
(517,64,o),
(497,45,o),
(482,45,cs),
(465,45,o),
(463,65,o),
(476,104,cs),
(542,299,ls),
(577,401,o),
(563,460,o),
(463,460,cs),
(379,460,o),
(293,418,o),
(234,332,c),
(243,308,l),
(284,449,l),
(66,446,l),
(55,412,l),
(76,412,ls),
(130,412,o),
(130,388,o),
(114,340,cs),
(0,0,l),
(145,0,l),
(225,241,ls),
(257,338,o),
(325,394,o),
(373,394,cs),
(410,394,o),
(418,362,o),
(404,321,cs),
(339,131,ls),
(314,57,o),
(308,-14,o),
(408,-14,cs)
);
}
);
width = 590;
}
);
unicode = 110;
},
{
color = 6;
glyphname = eng;
kernLeft = n;
kernRight = n;
layers = (
{
anchors = (
{
name = bottom;
pos = (178,0);
},
{
name = top;
pos = (318,440);
}
);
layerId = "9372F035-DA38-4B54-966C-CEBA9B53DD02";
shapes = (
{
closed = 1;
nodes = (
(202,-290,o),
(254,-247,o),
(296,-132,cs),
(467,331,ls),
(494,410,o),
(470,454,o),
(389,454,cs),
(302,454,o),
(231,388,o),
(189,323,c),
(191,312,l),
(228,443,l),
(81,440,l),
(74,416,l),
(95,416,ls),
(149,416,o),
(149,392,o),
(133,344,cs),
(18,0,l),
(90,0,l),
(175,257,ls),
(199,329,o),
(294,429,o),
(367,429,cs),
(406,429,o),
(417,398,o),
(403,356,cs),
(228,-127,ls),
(198,-210,o),
(168,-268,o),
(133,-268,cs),
(89,-268,o),
(112,-170,o),
(53,-170,cs),
(25,-170,o),
(4,-190,o),
(4,-217,cs),
(4,-253,o),
(33,-290,o),
(115,-290,cs)
);
}
);
width = 519;
},
{
anchors = (
{
name = bottom;
pos = (177,0);
},
{
name = top;
pos = (317,440);
}
);
layerId = m002;
shapes = (
{
closed = 1;
nodes = (
(280,-294,o),
(363,-251,o),
(407,-117,cs),
(542,299,ls),
(575,402,o),
(563,460,o),
(463,460,cs),
(349,460,o),
(231,382,o),
(181,221,c),
(226,260,l),
(286,449,l),
(66,446,l),
(55,412,l),
(76,412,ls),
(130,412,o),
(130,388,o),
(114,340,cs),
(0,0,l),
(145,0,l),
(220,226,ls),
(253,326,o),
(319,394,o),
(373,394,cs),
(410,394,o),
(417,362,o),
(404,321,cs),
(267,-103,ls),
(239,-190,o),
(217,-258,o),
(181,-258,cs),
(125,-258,o),
(204,-130,o),
(96,-130,cs),
(42,-130,o),
(12,-162,o),
(12,-201,cs),
(12,-254,o),
(61,-294,o),
(156,-294,cs)
);
}
);
width = 581;
}
);
metricLeft = n;
metricRight = j;
unicode = 331;
},
{
color = 6;
glyphname = o;
kernLeft = o;
kernRight = o;
layers = (
{
anchors = (
{
name = bottom;
pos = (177,0);
},
{
name = center;
pos = (258,220);
},
{
name = ogonek;
pos = (320,0);
},
{
name = top;
pos = (334,440);
},
{
name = topright;
pos = (531,440);
}
);
layerId = "9372F035-DA38-4B54-966C-CEBA9B53DD02";
shapes = (
{
closed = 1;
nodes = (
(317,-14,o),
(425,79,o),
(464,199,cs),
(503,319,o),
(468,454,o),
(318,454,cs),
(198,454,o),
(90,361,o),
(51,242,cs),
(11,119,o),
(51,-14,o),
(196,-14,cs)
);
},
{
closed = 1;
nodes = (
(91,8,o),
(96,134,o),
(126,225,cs),
(159,326,o),
(231,432,o),
(320,432,cs),
(425,432,o),
(419,308,o),
(389,215,cs),
(356,114,o),
(284,8,o),
(195,8,cs)
);
}
);
width = 514;
},
{
anchors = (
{
name = bottom;
pos = (186,0);
},
{
name = center;
pos = (266,220);
},
{
name = ogonek;
pos = (329,0);
},
{
name = top;
pos = (343,440);
},
{
name = topright;
pos = (540,440);
}
);
layerId = m002;
shapes = (
{
closed = 1;
nodes = (
(343,-14,o),
(466,79,o),
(506,202,cs),
(548,332,o),
(505,460,o),
(331,460,cs),
(198,460,o),
(74,367,o),
(35,245,cs),
(-10,110,o),
(42,-14,o),
(208,-14,cs)
);
},
{
closed = 1;
nodes = (
(149,31,o),
(162,158,o),
(186,227,cs),
(229,359,o),
(285,414,o),
(325,414,cs),
(391,414,o),
(374,276,o),
(355,217,cs),
(313,88,o),
(252,31,o),
(211,31,cs)
);
}
);
width = 541;
}
);
unicode = 111;
},
{
color = 6;
glyphname = p;
kernLeft = p;
kernRight = o;
layers = (
{
anchors = (
{
name = bottom;
pos = (177,0);
},
{
name = top;
pos = (337,440);
}
);
layerId = "9372F035-DA38-4B54-966C-CEBA9B53DD02";
shapes = (
{
closed = 1;
nodes = (
(80,-280,l),
(87,-256,l),
(53,-256,ls),
(21,-256,o),
(21,-243,o),
(34,-201,cs),
(136,120,l),
(119,118,l),
(115,33,o),
(156,-14,o),
(226,-14,cs),
(325,-14,o),
(438,79,o),
(478,203,cs),
(516,321,o),
(484,454,o),
(365,454,cs),
(292,454,o),
(233,403,o),
(190,341,c),
(198,330,l),
(224,443,l),
(90,440,l),
(82,416,l),
(103,416,ls),
(157,416,o),
(157,392,o),
(141,344,cs),
(-37,-200,ls),
(-53,-249,o),
(-65,-256,o),
(-94,-256,cs),
(-118,-256,l),
(-126,-280,l)
);
},
{
closed = 1;
nodes = (
(129,12,o),
(131,130,o),
(164,221,cs),
(183,274,ls),
(214,360,o),
(287,427,o),
(348,427,cs),
(435,427,o),
(428,293,o),
(400,206,cs),
(372,118,o),
(303,12,o),
(218,12,cs)
);
}
);
width = 527;
},
{
anchors = (
{
name = bottom;
pos = (215,0);
},
{
name = top;
pos = (359,446);
}
);
layerId = m002;
shapes = (
{
closed = 1;
nodes = (
(140,-280,l),
(150,-246,l),
(129,-246,ls),
(75,-246,o),
(75,-222,o),
(91,-174,cs),
(197,152,l),
(168,152,l),
(157,95,o),
(169,-14,o),
(288,-14,cs),
(388,-14,o),
(488,68,o),
(532,193,cs),
(584,339,o),
(532,460,o),
(426,460,cs),
(333,460,o),
(223,374,o),
(182,221,c),
(232,260,l),
(287,449,l),
(67,446,l),
(56,412,l),
(77,412,ls),
(131,412,o),
(131,388,o),
(115,340,cs),
(-54,-175,ls),
(-70,-223,o),
(-90,-246,o),
(-130,-246,cs),
(-158,-246,l),
(-169,-280,l)
);
},
{
closed = 1;
nodes = (
(201,53,o),
(183,108,o),
(216,210,cs),
(227,244,ls),
(254,327,o),
(305,394,o),
(357,394,cs),
(409,394,o),
(417,327,o),
(380,213,cs),
(346,108,o),
(302,53,o),
(253,53,cs)
);
}
);
width = 578;
}
);
metricRight = b;
unicode = 112;
},
{
color = 6;
glyphname = thorn;
layers = (
{
anchors = (
{
name = bottom;
pos = (184,0);
},
{
name = top;
pos = (344,440);
}
);
layerId = "9372F035-DA38-4B54-966C-CEBA9B53DD02";
shapes = (
{
closed = 1;
nodes = (
(139,12,o),
(140,130,o),
(173,221,cs),
(192,274,ls),
(223,360,o),
(295,427,o),
(355,427,cs),
(442,427,o),
(435,293,o),
(407,206,cs),
(379,118,o),
(310,12,o),
(225,12,cs)
);
},
{
closed = 1;
nodes = (
(339,713,l),
(177,710,l),
(170,686,l),
(189,686,ls),
(252,686,o),
(249,655,o),
(236,615,cs),
(-30,-200,ls),
(-46,-249,o),
(-58,-256,o),
(-87,-256,cs),
(-111,-256,l),
(-119,-280,l),
(87,-280,l),
(94,-256,l),
(60,-256,ls),
(28,-256,o),
(28,-243,o),
(41,-201,cs),
(143,120,l),
(126,118,l),
(122,33,o),
(163,-14,o),
(233,-14,cs),
(332,-14,o),
(445,79,o),
(485,203,cs),
(523,321,o),
(491,454,o),
(372,454,cs),
(299,454,o),
(240,403,o),
(197,341,c),
(214,332,l)
);
}
);
width = 534;
},
{
anchors = (
{
name = bottom;
pos = (167,0);
},
{
name = top;
pos = (327,440);
}
);
layerId = m002;
shapes = (
{
closed = 1;
nodes = (
(201,53,o),
(183,108,o),
(216,210,cs),
(227,244,ls),
(254,327,o),
(305,394,o),
(357,394,cs),
(409,394,o),
(417,327,o),
(380,213,cs),
(346,108,o),
(302,53,o),
(253,53,cs)
);
},
{
closed = 1;
nodes = (
(382,713,l),
(152,710,l),
(141,676,l),
(162,676,ls),
(216,676,o),
(216,652,o),
(200,604,cs),
(-54,-175,ls),
(-70,-223,o),
(-90,-246,o),
(-130,-246,cs),
(-158,-246,l),
(-169,-280,l),
(140,-280,l),
(150,-246,l),
(129,-246,ls),
(75,-246,o),
(75,-222,o),
(91,-174,cs),
(197,152,l),
(168,152,l),
(157,95,o),
(169,-14,o),
(288,-14,cs),
(388,-14,o),
(488,68,o),
(532,193,cs),
(584,339,o),
(532,460,o),
(426,460,cs),
(333,460,o),
(223,374,o),
(182,221,c),
(232,260,l)
);
}
);
width = 578;
}
);
metricLeft = p;
metricRight = p;
unicode = 254;
},
{
color = 6;
glyphname = q;
kernLeft = o;
kernRight = u;
layers = (
{
anchors = (
{
name = bottom;
pos = (186,0);
},
{
name = top;
pos = (336,440);
}
);
layerId = "9372F035-DA38-4B54-966C-CEBA9B53DD02";
shapes = (
{
closed = 1;
nodes = (
(344,-280,l),
(351,-256,l),
(317,-256,ls),
(287,-256,o),
(286,-237,o),
(298,-201,cs),
(508,440,l),
(438,440,l),
(405,329,l),
(418,334,l),
(416,403,o),
(388,454,o),
(320,454,cs),
(213,454,o),
(85,348,o),
(43,216,cs),
(6,104,o),
(36,-14,o),
(163,-14,cs),
(226,-14,o),
(282,26,o),
(326,93,c),
(324,93,l),
(227,-200,ls),
(213,-242,o),
(187,-256,o),
(156,-256,cs),
(126,-256,l),
(118,-280,l)
);
},
{
closed = 1;
nodes = (
(87,12,o),
(95,130,o),
(120,206,cs),
(157,318,o),
(245,428,o),
(326,428,cs),
(411,428,o),
(402,309,o),
(375,234,cs),
(328,103,o),
(254,12,o),
(173,12,cs)
);
}
);
width = 509;
},
{
anchors = (
{
name = bottom;
pos = (192,0);
},
{
name = top;
pos = (342,440);
}
);
layerId = m002;
shapes = (
{
closed = 1;
nodes = (
(417,-280,l),
(428,-246,l),
(411,-246,ls),
(357,-246,o),
(357,-222,o),
(373,-174,cs),
(574,446,l),
(432,446,l),
(382,294,l),
(400,294,l),
(431,390,o),
(388,460,o),
(301,460,cs),
(197,460,o),
(86,368,o),
(40,235,cs),
(-1,115,o),
(23,-14,o),
(145,-14,cs),
(221,-14,o),
(306,35,o),
(356,131,c),
(330,131,l),
(228,-175,ls),
(212,-223,o),
(192,-246,o),
(152,-246,cs),
(124,-246,l),
(113,-280,l)
);
},
{
closed = 1;
nodes = (
(167,52,o),
(157,111,o),
(191,214,cs),
(224,313,o),
(277,393,o),
(333,393,cs),
(383,393,o),
(397,328,o),
(359,218,cs),
(324,116,o),
(270,52,o),
(217,52,cs)
);
}
);
width = 570;
}
);
metricLeft = a;
unicode = 113;
},
{
color = 6;
glyphname = r;
kernLeft = n;
kernRight = r;
layers = (
{
anchors = (
{
name = bottom;
pos = (43,0);
},
{
name = top;
pos = (267,440);
}
);
layerId = "9372F035-DA38-4B54-966C-CEBA9B53DD02";
shapes = (
{
closed = 1;
nodes = (
(93,0,l),
(153,182,ls),
(184,277,o),
(246,415,o),
(306,415,cs),
(324,415,o),
(333,405,o),
(337,385,cs),
(344,356,o),
(357,342,o),
(383,342,cs),
(413,342,o),
(424,367,o),
(423,387,cs),
(422,433,o),
(379,454,o),
(345,454,cs),
(263,454,o),
(209,367,o),
(168,274,c),
(173,266,l),
(219,443,l),
(82,440,l),
(74,416,l),
(95,416,ls),
(149,416,o),
(149,392,o),
(133,344,cs),
(21,0,l)
);
}
);
width = 394;
},
{
anchors = (
{
name = bottom;
pos = (95,0);
},
{
name = top;
pos = (319,440);
}
);
layerId = m002;
shapes = (
{
closed = 1;
nodes = (
(145,0,l),
(205,182,ls),
(252,324,o),
(306,394,o),
(345,394,cs),
(366,394,o),
(364,376,o),
(364,355,cs),
(364,328,o),
(367,300,o),
(424,300,cs),
(467,300,o),
(494,340,o),
(494,379,cs),
(494,420,o),
(467,460,o),
(403,460,cs),
(320,460,o),
(234,382,o),
(197,221,c),
(223,260,l),
(273,449,l),
(66,446,l),
(55,412,l),
(76,412,ls),
(130,412,o),
(130,388,o),
(114,340,cs),
(0,0,l)
);
}
);
width = 454;
}
);
metricLeft = n;
unicode = 114;
},
{
color = 6;
glyphname = s;
kernLeft = s;
kernRight = s;
layers = (
{
anchors = (
{
name = bottom;
pos = (139,0);
},
{
name = top;
pos = (239,440);
}
);
layerId = "9372F035-DA38-4B54-966C-CEBA9B53DD02";
shapes = (
{
closed = 1;
nodes = (
(212,-14,o),
(268,33,o),
(286,88,cs),
(301,133,o),
(293,180,o),
(235,238,cs),
(197,278,ls),
(169,308,o),
(156,347,o),
(167,381,cs),
(176,410,o),
(202,432,o),
(241,432,cs),
(288,432,o),
(281,393,o),
(281,371,cs),
(281,345,o),
(300,334,o),
(316,334,cs),
(343,334,o),
(360,355,o),
(360,380,cs),
(360,407,o),
(339,454,o),
(242,454,cs),
(170,454,o),
(128,414,o),
(112,367,cs),
(97,319,o),
(110,259,o),
(150,217,cs),
(187,178,ls),
(220,140,o),
(233,109,o),
(221,71,cs),
(210,38,o),
(180,8,o),
(131,8,cs),
(94,8,o),
(67,28,o),
(67,55,cs),
(67,78,o),
(81,90,o),
(81,112,cs),
(81,132,o),
(67,147,o),
(46,147,cs),
(15,147,o),
(-2,124,o),
(-2,93,cs),
(-2,50,o),
(32,-14,o),
(136,-14,cs)
);
}
);
width = 363;
},
{
anchors = (
{
name = bottom;
pos = (169,0);
},
{
name = top;
pos = (267,440);
}
);
layerId = m002;
shapes = (
{
closed = 1;
nodes = (
(267,-14,o),
(342,31,o),
(362,93,cs),
(376,135,o),
(361,184,o),
(312,234,cs),
(254,293,ls),
(222,326,o),
(208,364,o),
(217,392,cs),
(223,411,o),
(240,424,o),
(269,424,cs),
(315,424,o),
(307,390,o),
(307,348,cs),
(307,319,o),
(328,294,o),
(365,294,cs),
(405,294,o),
(434,322,o),
(434,359,cs),
(434,402,o),
(398,460,o),
(273,460,cs),
(164,460,o),
(111,415,o),
(94,364,cs),
(78,315,o),
(95,259,o),
(132,222,cs),
(184,170,ls),
(226,128,o),
(240,91,o),
(231,63,cs),
(223,38,o),
(196,22,o),
(163,22,cs),
(122,22,o),
(110,46,o),
(110,61,cs),
(110,76,o),
(117,92,o),
(117,109,cs),
(117,145,o),
(92,166,o),
(57,166,cs),
(10,166,o),
(-13,130,o),
(-13,99,cs),
(-13,53,o),
(37,-14,o),
(163,-14,cs)
);
}
);
width = 428;
}
);
unicode = 115;
},
{
color = 6;
glyphname = germandbls;
layers = (
{
layerId = "9372F035-DA38-4B54-966C-CEBA9B53DD02";
shapes = (
{
closed = 1;
nodes = (
(464,-14,o),
(550,62,o),
(550,157,cs),
(550,233,o),
(506,277,o),
(473,317,cs),
(451,343,o),
(431,363,o),
(431,399,cs),
(431,449,o),
(473,477,o),
(508,502,cs),
(556,543,o),
(618,572,o),
(618,638,cs),
(618,687,o),
(569,724,o),
(493,724,cs),
(379,724,o),
(285,675,o),
(220,498,cs),
(82,121,ls),
(49,31,o),
(35,26,o),
(-26,22,cs),
(-42,21,l),
(-51,-2,l),
(73,0,l),
(119,0,l),
(126,33,o),
(133,65,o),
(153,121,cs),
(308,550,ls),
(338,633,o),
(391,701,o),
(470,701,cs),
(511,701,o),
(540,681,o),
(540,620,cs),
(540,567,o),
(496,525,o),
(475,509,cs),
(425,471,o),
(360,435,o),
(360,373,cs),
(360,324,o),
(399,293,o),
(430,258,cs),
(459,225,o),
(478,192,o),
(478,143,cs),
(478,65,o),
(425,8,o),
(341,8,cs),
(299,8,o),
(274,29,o),
(274,54,cs),
(274,78,o),
(289,88,o),
(289,114,cs),
(289,133,o),
(275,147,o),
(254,147,cs),
(219,147,o),
(205,118,o),
(205,84,cs),
(205,35,o),
(254,-14,o),
(342,-14,cs)
);
},
{
closed = 1;
nodes = (
(209,416,l),
(217,440,l),
(111,440,l),
(103,416,l)
);
}
);
width = 612;
},
{
layerId = m002;
shapes = (
{
closed = 1;
nodes = (
(541,-14,o),
(616,31,o),
(636,93,cs),
(658,161,o),
(603,216,o),
(571,249,cs),
(523,298,o),
(488,337,o),
(488,386,cs),
(488,420,o),
(505,457,o),
(558,498,cs),
(604,534,o),
(672,569,o),
(672,630,cs),
(672,679,o),
(627,724,o),
(485,724,cs),
(341,724,o),
(250,678,o),
(207,547,cs),
(62,105,ls),
(46,57,o),
(26,35,o),
(-14,34,cs),
(-42,33,l),
(-53,-1,l),
(77,0,l),
(183,0,l),
(186,39,o),
(198,79,o),
(211,118,cs),
(347,533,ls),
(388,659,o),
(416,688,o),
(468,688,cs),
(511,688,o),
(528,655,o),
(528,606,cs),
(528,561,o),
(511,516,o),
(469,473,cs),
(427,430,o),
(362,387,o),
(362,318,cs),
(362,263,o),
(404,224,o),
(430,198,cs),
(495,134,o),
(517,97,o),
(505,63,cs),
(496,37,o),
(470,22,o),
(437,22,cs),
(396,22,o),
(384,46,o),
(384,62,cs),
(384,75,o),
(391,92,o),
(391,110,cs),
(391,145,o),
(366,166,o),
(331,166,cs),
(284,166,o),
(261,130,o),
(261,99,cs),
(261,53,o),
(311,-14,o),
(437,-14,cs)
);
},
{
closed = 1;
nodes = (
(217,406,l),
(230,446,l),
(94,446,l),
(81,406,l)
);
}
);
width = 702;
}
);
metricRight = s;
unicode = 223;
},
{
color = 6;
glyphname = t;
kernLeft = t;
kernRight = t;
layers = (
{
anchors = (
{
name = bottom;
pos = (114,0);
},
{
name = center;
pos = (164,256);
},
{
name = top;
pos = (224,440);
},
{
name = topright;
pos = (336,665);
}
);
layerId = "9372F035-DA38-4B54-966C-CEBA9B53DD02";
shapes = (
{
closed = 1;
nodes = (
(167,-14,o),
(210,31,o),
(235,72,c),
(217,84,l),
(200,55,o),
(169,19,o),
(139,19,cs),
(106,19,o),
(114,56,o),
(123,82,cs),
(290,557,l),
(223,557,l),
(62,110,ls),
(41,51,o),
(34,-14,o),
(102,-14,cs)
);
},
{
closed = 1;
nodes = (
(333,416,l),
(341,440,l),
(115,440,l),
(107,416,l)
);
}
);
width = 308;
},
{
anchors = (
{
name = bottom;
pos = (114,0);
},
{
name = center;
pos = (173,256);
},
{
name = top;
pos = (224,440);
},
{
name = topright;
pos = (336,665);
}
);
layerId = m002;
shapes = (
{
closed = 1;
nodes = (
(211,-14,o),
(269,22,o),
(303,93,c),
(275,111,l),
(247,64,o),
(222,45,o),
(204,45,cs),
(178,45,o),
(176,65,o),
(189,104,cs),
(348,587,l),
(202,587,l),
(52,131,ls),
(28,57,o),
(21,-14,o),
(135,-14,cs)
);
},
{
closed = 1;
nodes = (
(395,406,l),
(408,446,l),
(87,446,l),
(74,406,l)
);
}
);
width = 359;
}
);
unicode = 116;
},
{
color = 10;
glyphname = tbar;
kernLeft = t;
kernRight = t;
layers = (
{
layerId = "9372F035-DA38-4B54-966C-CEBA9B53DD02";
shapes = (
{
closed = 1;
nodes = (
(297,309,l),
(305,333,l),
(81,333,l),
(73,309,l)
);
},
{
ref = t;
}
);
width = 308;
},
{
layerId = m002;
shapes = (
{
closed = 1;
nodes = (
(357,293,l),
(370,333,l),
(51,333,l),
(38,293,l)
);
},
{
ref = t;
}
);
width = 359;
}
);
metricLeft = t;
metricRight = t;
unicode = 359;
},
{
color = 6;
glyphname = u;
kernLeft = u;
kernRight = u;
layers = (
{
anchors = (
{
name = bottom;
pos = (187,0);
},
{
name = ogonek;
pos = (432,0);
},
{
name = top;
pos = (321,440);
},
{
name = topright;
pos = (499,440);
}
);
layerId = "9372F035-DA38-4B54-966C-CEBA9B53DD02";
shapes = (
{
closed = 1;
nodes = (
(222,-14,o),
(287,45,o),
(329,107,c),
(324,113,l),
(304,55,o),
(295,-14,o),
(367,-14,cs),
(424,-14,o),
(463,33,o),
(487,75,c),
(469,87,l),
(453,57,o),
(422,19,o),
(393,19,cs),
(367,19,o),
(378,61,o),
(386,85,cs),
(505,440,l),
(439,440,l),
(348,186,ls),
(320,107,o),
(229,11,o),
(162,11,cs),
(119,11,o),
(112,51,o),
(131,108,cs),
(245,443,l),
(85,440,l),
(78,416,l),
(104,416,ls),
(158,416,o),
(159,392,o),
(142,344,cs),
(67,137,ls),
(30,35,o),
(58,-14,o),
(143,-14,cs)
);
}
);
width = 540;
},
{
anchors = (
{
name = bottom;
pos = (207,0);
},
{
name = ogonek;
pos = (491,0);
},
{
name = top;
pos = (351,446);
},
{
name = topright;
pos = (597,446);
}
);
layerId = m002;
shapes = (
{
closed = 1;
nodes = (
(212,-14,o),
(302,32,o),
(361,128,c),
(343,131,l),
(318,57,o),
(314,-14,o),
(410,-14,cs),
(478,-14,o),
(531,22,o),
(563,93,c),
(535,111,l),
(511,64,o),
(491,45,o),
(477,45,cs),
(460,45,o),
(458,65,o),
(471,104,cs),
(586,446,l),
(441,446,l),
(366,220,ls),
(333,120,o),
(268,52,o),
(215,52,cs),
(182,52,o),
(173,84,o),
(187,125,cs),
(294,446,l),
(65,443,l),
(54,409,l),
(75,409,ls),
(129,409,o),
(129,385,o),
(113,337,cs),
(49,147,ls),
(15,45,o),
(29,-14,o),
(125,-14,cs)
);
}
);
width = 589;
}
);
metricRight = l;
unicode = 117;
},
{
color = 6;
glyphname = v;
kernLeft = v;
kernRight = v;
layers = (
{
anchors = (
{
name = bottom;
pos = (146,0);
},
{
name = top;
pos = (306,440);
}
);
layerId = "9372F035-DA38-4B54-966C-CEBA9B53DD02";
shapes = (
{
closed = 1;
nodes = (
(192,-11,l),
(370,192,ls),
(431,261,o),
(481,318,o),
(481,379,cs),
(481,426,o),
(456,454,o),
(425,454,cs),
(398,454,o),
(379,431,o),
(379,413,cs),
(379,389,o),
(408,367,o),
(408,322,cs),
(408,288,o),
(382,242,o),
(340,193,cs),
(205,36,l),
(226,37,l),
(200,121,ls),
(176,199,o),
(161,254,o),
(161,309,cs),
(161,390,o),
(218,415,o),
(252,431,c),
(247,448,l),
(196,440,o),
(145,440,o),
(94,440,c),
(86,416,l),
(210,416,l),
(198,427,l),
(130,387,o),
(78,344,o),
(78,274,cs),
(78,231,o),
(95,192,o),
(115,148,cs),
(136,102,o),
(162,51,o),
(175,-11,c)
);
}
);
width = 483;
},
{
anchors = (
{
name = bottom;
pos = (152,0);
},
{
name = top;
pos = (312,440);
}
);
layerId = m002;
shapes = (
{
closed = 1;
nodes = (
(207,-11,l),
(413,220,ls),
(479,294,o),
(504,348,o),
(504,388,cs),
(504,431,o),
(475,460,o),
(427,460,cs),
(383,460,o),
(358,436,o),
(358,402,cs),
(358,366,o),
(386,335,o),
(386,297,cs),
(386,265,o),
(367,228,o),
(341,197,cs),
(216,48,l),
(285,94,l),
(263,139,ls),
(232,203,o),
(206,257,o),
(206,315,cs),
(206,388,o),
(241,413,o),
(274,427,c),
(266,455,l),
(203,446,o),
(147,446,o),
(77,446,c),
(65,412,l),
(218,412,l),
(205,427,l),
(118,387,o),
(51,343,o),
(51,272,cs),
(51,226,o),
(80,176,o),
(110,126,cs),
(137,81,o),
(163,37,o),
(176,-11,c)
);
}
);
width = 480;
}
);
unicode = 118;
},
{
color = 6;
glyphname = w;
kernLeft = v;
kernRight = v;
layers = (
{
anchors = (
{
name = bottom;
pos = (331,0);
},
{
name = top;
pos = (431,440);
}
);
layerId = "9372F035-DA38-4B54-966C-CEBA9B53DD02";
shapes = (
{
closed = 1;
nodes = (
(192,-11,l),
(360,192,ls),
(417,260,o),
(441,318,o),
(441,371,cs),
(441,426,o),
(413,454,o),
(384,454,cs),
(362,454,o),
(342,432,o),
(342,411,cs),
(342,384,o),
(380,352,o),
(380,302,cs),
(380,261,o),
(357,223,o),
(328,188,cs),
(205,36,l),
(226,37,l),
(200,121,ls),
(176,199,o),
(161,254,o),
(161,309,cs),
(161,390,o),
(220,415,o),
(252,431,c),
(247,448,l),
(196,440,o),
(145,440,o),
(94,440,c),
(86,416,l),
(210,416,l),
(198,427,l),
(130,387,o),
(78,344,o),
(78,274,cs),
(78,231,o),
(95,192,o),
(115,148,cs),
(136,102,o),
(162,51,o),
(175,-11,c)
);
},
{
closed = 1;
nodes = (
(470,-11,l),
(638,192,ls),
(695,260,o),
(719,318,o),
(719,371,cs),
(719,426,o),
(691,454,o),
(664,454,cs),
(638,454,o),
(621,437,o),
(621,410,cs),
(621,385,o),
(657,352,o),
(657,302,cs),
(657,261,o),
(635,223,o),
(606,188,cs),
(483,36,l),
(506,37,l),
(476,121,ls),
(448,199,o),
(434,240,o),
(434,294,cs),
(434,384,o),
(497,415,o),
(533,432,c),
(525,448,l),
(473,431,o),
(429,388,o),
(412,353,c),
(378,250,l),
(378,203,o),
(388,175,o),
(396,152,cs),
(416,93,o),
(440,51,o),
(453,-11,c)
);
}
);
width = 727;
},
{
anchors = (
{
name = bottom;
pos = (341,0);
},
{
name = top;
pos = (441,440);
}
);
layerId = m002;
shapes = (
{
closed = 1;
nodes = (
(207,-11,l),
(387,220,ls),
(441,289,o),
(458,340,o),
(458,379,cs),
(458,427,o),
(433,460,o),
(390,460,cs),
(353,460,o),
(332,436,o),
(332,402,cs),
(332,363,o),
(361,341,o),
(361,285,cs),
(361,264,o),
(357,236,o),
(326,197,cs),
(207,48,l),
(274,106,l),
(258,139,ls),
(227,203,o),
(201,257,o),
(201,315,cs),
(201,388,o),
(241,412,o),
(274,426,c),
(266,454,l),
(203,446,o),
(140,446,o),
(77,446,c),
(65,412,l),
(218,411,l),
(205,427,l),
(118,387,o),
(51,343,o),
(51,272,cs),
(51,226,o),
(80,176,o),
(110,126,cs),
(137,81,o),
(163,37,o),
(176,-11,c)
);
},
{
closed = 1;
nodes = (
(477,-11,l),
(657,220,ls),
(717,297,o),
(748,347,o),
(748,390,cs),
(748,431,o),
(719,460,o),
(671,460,cs),
(627,460,o),
(602,436,o),
(602,401,cs),
(602,364,o),
(631,341,o),
(631,285,cs),
(631,264,o),
(627,236,o),
(596,197,cs),
(477,48,l),
(544,106,l),
(528,139,ls),
(497,203,o),
(471,257,o),
(471,315,cs),
(471,387,o),
(510,412,o),
(542,426,c),
(526,455,l),
(492,442,o),
(414,400,o),
(414,335,c),
(361,272,l),
(361,225,o),
(365,182,o),
(383,136,cs),
(398,97,o),
(436,33,o),
(446,-11,c)
);
}
);
width = 723;
}
);
metricLeft = v;
metricRight = v;
unicode = 119;
},
{
color = 6;
glyphname = x;
kernLeft = x;
kernRight = x;
layers = (
{
anchors = (
{
name = bottom;
pos = (197,0);
},
{
name = top;
pos = (357,440);
}
);
layerId = "9372F035-DA38-4B54-966C-CEBA9B53DD02";
shapes = (
{
closed = 1;
nodes = (
(142,-11,o),
(207,36,o),
(255,107,cs),
(292,163,o),
(322,235,o),
(322,310,cs),
(322,396,o),
(290,454,o),
(217,454,cs),
(148,454,o),
(97,405,o),
(70,346,c),
(86,334,l),
(108,384,o),
(154,424,o),
(199,424,cs),
(279,424,o),
(252,249,o),
(230,181,cs),
(199,85,o),
(140,11,o),
(91,11,cs),
(55,11,o),
(62,44,o),
(62,70,cs),
(62,98,o),
(50,116,o),
(23,116,cs),
(-7,116,o),
(-24,91,o),
(-24,65,cs),
(-24,38,o),
(-8,-11,o),
(77,-11,cs)
);
},
{
closed = 1;
nodes = (
(406,-11,o),
(456,37,o),
(484,94,c),
(467,106,l),
(446,58,o),
(398,19,o),
(355,19,cs),
(276,19,o),
(297,173,o),
(321,248,cs),
(351,340,o),
(407,432,o),
(463,432,cs),
(499,432,o),
(492,402,o),
(492,367,cs),
(492,349,o),
(502,327,o),
(533,327,cs),
(559,327,o),
(578,349,o),
(578,381,cs),
(578,405,o),
(561,454,o),
(477,454,cs),
(418,454,o),
(357,412,o),
(308,347,cs),
(289,322,o),
(231,127,o),
(234,101,cs),
(244,40,o),
(275,-11,o),
(342,-11,cs)
);
}
);
width = 553;
},
{
anchors = (
{
name = bottom;
pos = (211,0);
},
{
name = top;
pos = (355,446);
}
);
layerId = m002;
shapes = (
{
closed = 1;
nodes = (
(157,-14,o),
(216,24,o),
(261,83,cs),
(303,138,o),
(338,274,o),
(333,358,cs),
(329,426,o),
(273,459,o),
(220,459,cs),
(160,459,o),
(91,418,o),
(52,339,c),
(76,321,l),
(113,376,o),
(152,405,o),
(182,405,cs),
(247,405,o),
(234,286,o),
(200,181,cs),
(173,97,o),
(132,22,o),
(106,22,cs),
(74,22,o),
(91,68,o),
(91,106,cs),
(91,137,o),
(71,158,o),
(40,158,cs),
(0,158,o),
(-23,119,o),
(-23,87,cs),
(-23,25,o),
(24,-14,o),
(98,-14,cs)
);
},
{
closed = 1;
nodes = (
(415,-13,o),
(484,28,o),
(523,107,c),
(499,125,l),
(463,70,o),
(423,41,o),
(393,41,cs),
(328,41,o),
(341,159,o),
(375,264,cs),
(403,348,o),
(444,424,o),
(469,424,cs),
(501,424,o),
(484,378,o),
(484,340,cs),
(484,309,o),
(504,288,o),
(535,288,cs),
(575,288,o),
(598,327,o),
(598,359,cs),
(598,421,o),
(551,460,o),
(477,460,cs),
(418,460,o),
(359,422,o),
(314,363,cs),
(273,308,o),
(238,172,o),
(242,88,cs),
(246,20,o),
(302,-13,o),
(355,-13,cs)
);
}
);
width = 575;
}
);
unicode = 120;
},
{
color = 6;
glyphname = y;
kernLeft = y;
kernRight = y;
layers = (
{
anchors = (
{
name = bottom;
pos = (217,0);
},
{
name = top;
pos = (302,440);
}
);
layerId = "9372F035-DA38-4B54-966C-CEBA9B53DD02";
shapes = (
{
closed = 1;
nodes = (
(30,-290,o),
(86,-259,o),
(205,-110,cs),
(347,66,ls),
(442,185,o),
(464,277,o),
(464,354,cs),
(464,426,o),
(434,454,o),
(408,454,cs),
(380,454,o),
(361,426,o),
(361,409,cs),
(361,388,o),
(374,377,o),
(389,362,cs),
(410,341,o),
(417,319,o),
(417,290,cs),
(417,257,o),
(415,186,o),
(319,66,cs),
(253,-17,l),
(278,-3,l),
(231,112,ls),
(206,173,o),
(168,253,o),
(168,316,cs),
(168,364,o),
(187,398,o),
(255,431,c),
(250,448,l),
(199,440,o),
(148,440,o),
(97,440,c),
(89,416,l),
(220,416,l),
(211,433,l),
(146,394,o),
(86,356,o),
(86,278,cs),
(86,222,o),
(125,160,o),
(162,101,cs),
(192,54,o),
(217,9,o),
(217,-31,cs),
(217,-61,o),
(199,-89,o),
(177,-112,cs),
(95,-199,ls),
(74,-222,o),
(51,-234,o),
(31,-234,cs),
(-15,-234,o),
(-33,-189,o),
(-71,-189,cs),
(-100,-189,o),
(-124,-208,o),
(-124,-238,cs),
(-124,-268,o),
(-96,-290,o),
(-53,-290,cs)
);
}
);
width = 483;
},
{
anchors = (
{
name = bottom;
pos = (223,0);
},
{
name = top;
pos = (308,440);
}
);
layerId = m002;
shapes = (
{
closed = 1;
nodes = (
(11,-304,o),
(59,-256,o),
(204,-88,cs),
(254,-30,ls),
(463,213,o),
(510,268,o),
(510,349,cs),
(510,428,o),
(464,460,o),
(423,460,cs),
(383,460,o),
(357,442,o),
(357,403,cs),
(357,380,o),
(369,366,o),
(386,350,cs),
(404,333,o),
(414,311,o),
(414,284,cs),
(414,253,o),
(400,216,o),
(369,173,cs),
(277,48,l),
(310,76,l),
(281,139,ls),
(254,198,o),
(218,274,o),
(218,335,cs),
(218,375,o),
(233,408,o),
(276,427,c),
(267,454,l),
(204,446,o),
(142,446,o),
(79,446,c),
(68,412,l),
(221,411,l),
(207,427,l),
(128,389,o),
(68,348,o),
(68,283,cs),
(68,232,o),
(114,167,o),
(138,126,cs),
(167,76,o),
(184,33,o),
(184,-8,cs),
(184,-45,o),
(170,-79,o),
(138,-113,cs),
(99,-155,ls),
(71,-186,o),
(54,-197,o),
(31,-197,cs),
(-2,-197,o),
(-30,-158,o),
(-85,-158,cs),
(-115,-158,o),
(-148,-185,o),
(-148,-225,cs),
(-148,-272,o),
(-116,-304,o),
(-67,-304,cs)
);
}
);
width = 502;
}
);
unicode = 121;
},
{
color = 6;
glyphname = z;
kernLeft = z;
kernRight = z;
layers = (
{
anchors = (
{
name = bottom;
pos = (168,0);
},
{
name = top;
pos = (297,454);
}
);
layerId = "9372F035-DA38-4B54-966C-CEBA9B53DD02";
shapes = (
{
closed = 1;
nodes = (
(75,-14,o),
(74,68,o),
(144,68,cs),
(203,68,o),
(229,-14,o),
(310,-14,cs),
(361,-14,o),
(413,25,o),
(413,119,cs),
(413,129,o),
(412,140,o),
(411,151,c),
(384,148,l),
(389,111,o),
(382,55,o),
(333,55,cs),
(278,55,o),
(228,97,o),
(164,97,cs),
(131,97,o),
(104,86,o),
(79,71,c),
(70,54,l),
(416,362,l),
(404,382,l),
(113,123,ls),
(91,103,o),
(72,82,o),
(43,71,cs),
(10,57,o),
(-5,42,o),
(-5,20,cs),
(-5,-1,o),
(9,-14,o),
(26,-14,cs)
);
},
{
closed = 1;
nodes = (
(105,315,l),
(106,351,o),
(121,380,o),
(170,380,cs),
(207,380,o),
(252,343,o),
(343,343,cs),
(437,343,o),
(501,399,o),
(501,432,cs),
(501,452,o),
(485,462,o),
(470,462,cs),
(434,462,o),
(423,425,o),
(401,388,cs),
(394,376,o),
(391,372,o),
(377,372,cs),
(306,372,o),
(277,454,o),
(201,454,cs),
(138,454,o),
(86,399,o),
(81,316,c)
);
}
);
width = 488;
},
{
anchors = (
{
name = bottom;
pos = (164,0);
},
{
name = top;
pos = (293,454);
}
);
layerId = m002;
shapes = (
{
closed = 1;
nodes = (
(82,-14,o),
(68,68,o),
(134,68,cs),
(207,68,o),
(237,-14,o),
(336,-14,cs),
(387,-14,o),
(440,43,o),
(440,147,cs),
(440,156,o),
(439,168,o),
(438,179,c),
(404,176,l),
(409,127,o),
(389,108,o),
(347,108,cs),
(287,108,o),
(243,123,o),
(187,123,cs),
(167,123,o),
(140,121,o),
(120,117,c),
(111,82,l),
(446,380,l),
(395,388,l),
(153,174,ls),
(107,133,o),
(81,122,o),
(61,115,cs),
(10,96,o),
(-34,75,o),
(-34,29,cs),
(-34,-1,o),
(-14,-14,o),
(11,-14,cs)
);
},
{
closed = 1;
nodes = (
(90,283,l),
(92,303,o),
(106,327,o),
(146,327,cs),
(186,327,o),
(228,311,o),
(284,311,cs),
(447,311,o),
(518,387,o),
(518,426,cs),
(518,456,o),
(497,470,o),
(474,470,cs),
(443,470,o),
(427,457,o),
(398,408,cs),
(380,379,o),
(376,378,o),
(365,378,cs),
(300,378,o),
(274,462,o),
(201,462,cs),
(123,462,o),
(58,390,o),
(53,282,c)
);
}
);
width = 492;
}
);
unicode = 122;
},
{
color = 6;
glyphname = ae.001;
kernLeft = a;
kernRight = e;
layers = (
{
anchors = (
{
name = bottom;
pos = (282,0);
},
{
name = top;
pos = (424,440);
}
);
layerId = "9372F035-DA38-4B54-966C-CEBA9B53DD02";
shapes = (
{
closed = 1;
nodes = (
(526,-14,o),
(574,33,o),
(605,76,c),
(588,90,l),
(562,54,o),
(517,12,o),
(465,12,cs),
(366,12,o),
(363,145,o),
(394,239,cs),
(427,343,o),
(504,432,o),
(571,432,cs),
(617,432,o),
(621,387,o),
(610,352,cs),
(598,315,o),
(560,266,o),
(451,251,cs),
(386,242,l),
(383,221,l),
(472,230,ls),
(578,241,o),
(649,275,o),
(669,335,cs),
(687,390,o),
(658,452,o),
(572,452,cs),
(469,452,o),
(355,364,o),
(315,243,cs),
(277,126,o),
(312,-14,o),
(452,-14,cs)
);
},
{
closed = 1;
nodes = (
(203,-14,o),
(272,29,o),
(310,93,c),
(304,130,l),
(283,77,o),
(217,22,o),
(170,22,cs),
(119,22,o),
(97,63,o),
(97,120,cs),
(97,241,o),
(198,432,o),
(326,432,cs),
(358,432,o),
(403,409,o),
(403,340,c),
(456,404,l),
(418,437,o),
(374,452,o),
(327,452,cs),
(168,452,o),
(18,241,o),
(18,103,cs),
(18,36,o),
(54,-14,o),
(141,-14,cs)
);
}
);
width = 682;
},
{
anchors = (
{
name = bottom;
pos = (316,0);
},
{
name = top;
pos = (470,446);
}
);
layerId = m002;
shapes = (
{
closed = 1;
nodes = (
(602,-14,o),
(666,40,o),
(701,105,c),
(671,123,l),
(625,50,o),
(575,25,o),
(529,25,cs),
(443,25,o),
(428,113,o),
(468,239,cs),
(508,366,o),
(568,424,o),
(607,424,cs),
(643,424,o),
(643,372,o),
(631,339,cs),
(620,308,o),
(586,265,o),
(486,251,cs),
(421,242,l),
(418,211,l),
(507,218,ls),
(645,229,o),
(740,267,o),
(764,335,cs),
(785,396,o),
(741,460,o),
(623,460,cs),
(461,460,o),
(352,339,o),
(318,238,cs),
(281,127,o),
(321,-14,o),
(495,-14,cs)
);
},
{
closed = 1;
nodes = (
(209,-14,o),
(287,45,o),
(320,102,c),
(307,143,l),
(269,75,o),
(227,47,o),
(198,47,cs),
(165,47,o),
(151,75,o),
(151,116,cs),
(151,225,o),
(248,424,o),
(375,424,cs),
(407,424,o),
(439,406,o),
(439,382,c),
(517,435,l),
(471,452,o),
(428,460,o),
(387,460,cs),
(154,460,o),
(3,220,o),
(3,89,cs),
(3,29,o),
(37,-14,o),
(120,-14,cs)
);
}
);
width = 761;
}
);
metricLeft = a;
metricRight = e;
},
{
color = 6;
glyphname = f.calt;
kernLeft = f;
kernRight = f;
layers = (
{
background = {
shapes = (
{
ref = f.fina;
}
);
};
layerId = "9372F035-DA38-4B54-966C-CEBA9B53DD02";
shapes = (
{
closed = 1;
nodes = (
(-17,-290,o),
(41,-261,o),
(85,-127,cs),
(327,611,ls),
(351,684,o),
(392,702,o),
(418,702,cs),
(444,702,o),
(453,689,o),
(453,651,cs),
(453,622,o),
(463,601,o),
(494,601,cs),
(527,601,o),
(540,627,o),
(540,654,cs),
(540,689,o),
(509,724,o),
(436,724,cs),
(350,724,o),
(277,683,o),
(234,552,cs),
(13,-127,ls),
(-16,-216,o),
(-44,-268,o),
(-111,-268,cs),
(-143,-268,o),
(-168,-254,o),
(-188,-215,c),
(-233,-249,l),
(-206,-273,o),
(-164,-290,o),
(-109,-290,cs)
);
},
{
closed = 1;
nodes = (
(370,416,l),
(378,440,l),
(111,440,l),
(103,416,l)
);
}
);
width = 342;
},
{
layerId = m002;
shapes = (
{
closed = 1;
nodes = (
(0,-294,o),
(83,-251,o),
(127,-117,cs),
(340,533,ls),
(368,620,o),
(390,688,o),
(426,688,cs),
(452,688,o),
(449,661,o),
(449,632,cs),
(449,597,o),
(453,560,o),
(511,560,cs),
(565,560,o),
(595,592,o),
(595,631,cs),
(595,680,o),
(563,724,o),
(451,724,cs),
(327,724,o),
(244,681,o),
(200,547,cs),
(-13,-103,ls),
(-47,-208,o),
(-86,-258,o),
(-134,-258,cs),
(-165,-258,o),
(-188,-239,o),
(-200,-206,c),
(-254,-255,l),
(-224,-279,o),
(-183,-294,o),
(-124,-294,cs)
);
},
{
closed = 1;
nodes = (
(406,406,l),
(419,446,l),
(97,446,l),
(84,406,l)
);
}
);
width = 366;
}
);
metricRight = f;
},
{
color = 3;
glyphname = j.calt;
kernLeft = f;
kernRight = l;
layers = (
{
layerId = "9372F035-DA38-4B54-966C-CEBA9B53DD02";
shapes = (
{
closed = 1;
nodes = (
(-18,-290,o),
(34,-262,o),
(78,-127,cs),
(263,443,l),
(101,440,l),
(94,416,l),
(123,416,ls),
(177,416,o),
(177,392,o),
(161,344,cs),
(6,-127,ls),
(-23,-215,o),
(-46,-268,o),
(-107,-268,cs),
(-142,-268,o),
(-166,-251,o),
(-186,-211,c),
(-233,-247,l),
(-207,-271,o),
(-165,-290,o),
(-105,-290,cs)
);
},
{
pos = (20,0);
ref = dotaccentcomb;
}
);
width = 270;
},
{
background = {
shapes = (
{
pos = (-342,0);
ref = f_j.liga;
}
);
};
layerId = m002;
shapes = (
{
closed = 1;
nodes = (
(-7,-294,o),
(76,-251,o),
(120,-117,cs),
(305,449,l),
(75,446,l),
(62,406,l),
(83,406,ls),
(137,406,o),
(137,382,o),
(121,334,cs),
(-20,-103,ls),
(-54,-209,o),
(-89,-258,o),
(-137,-258,cs),
(-166,-258,o),
(-200,-242,o),
(-213,-187,c),
(-270,-247,l),
(-232,-279,o),
(-182,-294,o),
(-125,-294,cs)
);
},
{
pos = (31,-6);
ref = dotaccentcomb;
}
);
width = 294;
}
);
metricRight = j;
metricWidth = j;
},
{
color = 6;
glyphname = jdotless.calt;
kernLeft = j;
kernRight = u;
layers = (
{
anchors = (
{
name = bottom;
pos = (67,0);
},
{
name = top;
pos = (210,440);
}
);
layerId = "9372F035-DA38-4B54-966C-CEBA9B53DD02";
shapes = (
{
closed = 1;
nodes = (
(-265,-231,l),
(-243,-263,o),
(-196,-290,o),
(-124,-290,cs),
(-37,-290,o),
(15,-262,o),
(59,-127,cs),
(244,443,l),
(82,440,l),
(75,416,l),
(104,416,ls),
(158,416,o),
(158,392,o),
(142,344,cs),
(-13,-127,ls),
(-42,-215,o),
(-65,-268,o),
(-126,-268,cs),
(-170,-268,o),
(-197,-241,o),
(-220,-174,c)
);
}
);
width = 278;
},
{
anchors = (
{
name = bottom;
pos = (80,0);
},
{
name = top;
pos = (226,440);
}
);
layerId = m002;
shapes = (
{
closed = 1;
nodes = (
(-270,-239,l),
(-239,-272,o),
(-194,-294,o),
(-123,-294,cs),
(1,-294,o),
(84,-251,o),
(128,-117,cs),
(313,449,l),
(83,446,l),
(70,406,l),
(91,406,ls),
(145,406,o),
(145,382,o),
(129,334,cs),
(-12,-103,ls),
(-46,-209,o),
(-85,-258,o),
(-133,-258,cs),
(-182,-258,o),
(-210,-211,o),
(-207,-142,c)
);
}
);
width = 278;
}
);
},
{
color = 6;
glyphname = q.calt;
kernLeft = o;
kernRight = q;
layers = (
{
anchors = (
{
name = bottom;
pos = (186,0);
},
{
name = top;
pos = (336,440);
}
);
layerId = "9372F035-DA38-4B54-966C-CEBA9B53DD02";
shapes = (
{
closed = 1;
nodes = (
(271,-280,l),
(508,440,l),
(438,440,l),
(406,334,l),
(417,340,l),
(415,405,o),
(386,454,o),
(320,454,cs),
(213,454,o),
(85,348,o),
(43,216,cs),
(6,104,o),
(36,-14,o),
(163,-14,cs),
(231,-14,o),
(291,33,o),
(335,108,c),
(332,117,l),
(223,-209,ls),
(211,-245,o),
(185,-256,o),
(156,-256,cs),
(126,-256,l),
(118,-280,l)
);
},
{
closed = 1;
nodes = (
(87,12,o),
(95,130,o),
(120,206,cs),
(157,318,o),
(245,428,o),
(326,428,cs),
(411,428,o),
(402,309,o),
(375,234,cs),
(328,103,o),
(254,12,o),
(173,12,cs)
);
}
);
width = 509;
},
{
anchors = (
{
name = bottom;
pos = (174,0);
},
{
name = top;
pos = (324,440);
}
);
layerId = m002;
shapes = (
{
closed = 1;
nodes = (
(330,-280,l),
(566,446,l),
(424,446,l),
(380,314,l),
(399,325,l),
(412,406,o),
(370,460,o),
(293,460,cs),
(189,460,o),
(78,368,o),
(32,235,cs),
(-9,115,o),
(15,-14,o),
(137,-14,cs),
(205,-14,o),
(278,24,o),
(330,101,c),
(319,122,l),
(220,-175,ls),
(204,-223,o),
(184,-246,o),
(144,-246,cs),
(116,-246,l),
(105,-280,l)
);
},
{
closed = 1;
nodes = (
(159,52,o),
(149,111,o),
(183,214,cs),
(216,313,o),
(269,393,o),
(325,393,cs),
(375,393,o),
(389,328,o),
(351,218,cs),
(316,116,o),
(262,52,o),
(209,52,cs)
);
}
);
width = 573;
}
);
metricLeft = o;
},
{
color = 6;
glyphname = f.fina;
kernLeft = f;
kernRight = f;
layers = (
{
layerId = "9372F035-DA38-4B54-966C-CEBA9B53DD02";
shapes = (
{
closed = 1;
nodes = (
(-17,-290,o),
(41,-261,o),
(85,-127,cs),
(327,611,ls),
(351,684,o),
(392,702,o),
(418,702,cs),
(444,702,o),
(453,689,o),
(453,651,cs),
(453,622,o),
(463,601,o),
(494,601,cs),
(527,601,o),
(540,627,o),
(540,654,cs),
(540,689,o),
(509,724,o),
(436,724,cs),
(350,724,o),
(277,683,o),
(234,552,cs),
(13,-127,ls),
(-16,-216,o),
(-44,-268,o),
(-111,-268,cs),
(-164,-268,o),
(-193,-228,o),
(-215,-139,c),
(-264,-195,l),
(-260,-238,o),
(-208,-290,o),
(-109,-290,cs)
);
},
{
closed = 1;
nodes = (
(370,416,l),
(378,440,l),
(111,440,l),
(103,416,l)
);
}
);
width = 342;
},
{
layerId = m002;
shapes = (
{
closed = 1;
nodes = (
(0,-294,o),
(83,-251,o),
(127,-117,cs),
(340,533,ls),
(368,620,o),
(390,688,o),
(426,688,cs),
(452,688,o),
(449,661,o),
(449,632,cs),
(449,597,o),
(453,560,o),
(511,560,cs),
(565,560,o),
(595,592,o),
(595,631,cs),
(595,680,o),
(563,724,o),
(451,724,cs),
(327,724,o),
(244,681,o),
(200,547,cs),
(-13,-103,ls),
(-47,-208,o),
(-86,-258,o),
(-134,-258,cs),
(-196,-258,o),
(-224,-183,o),
(-199,-83,c),
(-299,-201,l),
(-268,-254,o),
(-219,-294,o),
(-124,-294,cs)
);
},
{
closed = 1;
nodes = (
(406,406,l),
(419,446,l),
(97,446,l),
(84,406,l)
);
}
);
width = 366;
}
);
},
{
color = 3;
glyphname = j.fina;
kernLeft = f;
kernRight = l;
layers = (
{
background = {
shapes = (
{
closed = 1;
nodes = (
(-303,-290,o),
(-250,-262,o),
(-206,-131,cs),
(32,581,ls),
(60,664,o),
(111,702,o),
(160,702,cs),
(198,702,o),
(217,686,o),
(217,633,cs),
(217,603,o),
(234,582,o),
(264,582,cs),
(301,582,o),
(323,610,o),
(323,638,cs),
(323,665,o),
(304,724,o),
(168,724,cs),
(60,724,o),
(-6,684,o),
(-54,541,cs),
(-278,-131,ls),
(-306,-215,o),
(-337,-268,o),
(-372,-268,cs),
(-416,-268,o),
(-393,-174,o),
(-452,-174,cs),
(-480,-174,o),
(-501,-194,o),
(-501,-221,cs),
(-501,-255,o),
(-472,-290,o),
(-390,-290,cs)
);
},
{
closed = 1;
nodes = (
(-18,-290,o),
(34,-262,o),
(78,-127,cs),
(263,443,l),
(101,440,l),
(94,416,l),
(123,416,ls),
(177,416,o),
(177,392,o),
(161,344,cs),
(6,-127,ls),
(-23,-215,o),
(-46,-268,o),
(-107,-268,cs),
(-160,-268,o),
(-189,-228,o),
(-211,-139,c),
(-260,-195,l),
(-256,-238,o),
(-204,-290,o),
(-105,-290,cs)
);
},
{
closed = 1;
nodes = (
(107,416,l),
(117,440,l),
(-170,440,l),
(-177,416,l)
);
}
);
};
layerId = "9372F035-DA38-4B54-966C-CEBA9B53DD02";
shapes = (
{
closed = 1;
nodes = (
(-18,-290,o),
(34,-262,o),
(78,-127,cs),
(263,443,l),
(101,440,l),
(94,416,l),
(123,416,ls),
(177,416,o),
(177,392,o),
(161,344,cs),
(6,-127,ls),
(-23,-215,o),
(-46,-268,o),
(-107,-268,cs),
(-160,-268,o),
(-189,-228,o),
(-211,-139,c),
(-260,-195,l),
(-256,-238,o),
(-204,-290,o),
(-105,-290,cs)
);
},
{
pos = (20,0);
ref = dotaccentcomb;
}
);
width = 270;
},
{
background = {
shapes = (
{
pos = (-342,0);
ref = f_j.liga;
}
);
};
layerId = m002;
shapes = (
{
closed = 1;
nodes = (
(-7,-294,o),
(76,-251,o),
(120,-117,cs),
(305,449,l),
(75,446,l),
(62,406,l),
(83,406,ls),
(137,406,o),
(137,382,o),
(121,334,cs),
(-20,-103,ls),
(-54,-209,o),
(-89,-258,o),
(-137,-258,cs),
(-166,-258,o),
(-200,-242,o),
(-213,-187,c),
(-270,-247,l),
(-232,-279,o),
(-182,-294,o),
(-125,-294,cs)
);
},
{
pos = (31,-6);
ref = dotaccentcomb;
}
);
width = 294;
}
);
metricRight = j;
metricWidth = j;
},
{
color = 6;
glyphname = f.init;
kernLeft = f;
kernRight = f;
layers = (
{
layerId = "9372F035-DA38-4B54-966C-CEBA9B53DD02";
shapes = (
{
closed = 1;
nodes = (
(-26,-290,o),
(28,-263,o),
(71,-131,cs),
(267,474,ls),
(298,568,o),
(335,669,o),
(418,669,cs),
(486,669,o),
(520,610,o),
(526,552,c),
(591,635,l),
(550,683,o),
(480,694,o),
(426,694,cs),
(304,694,o),
(248,628,o),
(203,490,cs),
(-1,-131,ls),
(-29,-215,o),
(-60,-268,o),
(-95,-268,cs),
(-139,-268,o),
(-116,-174,o),
(-175,-174,cs),
(-203,-174,o),
(-224,-194,o),
(-224,-221,cs),
(-224,-255,o),
(-195,-290,o),
(-113,-290,cs)
);
},
{
closed = 1;
nodes = (
(384,416,l),
(392,440,l),
(100,440,l),
(92,416,l)
);
}
);
width = 281;
},
{
layerId = m002;
shapes = (
{
closed = 1;
nodes = (
(-3,-294,o),
(75,-241,o),
(116,-117,cs),
(324,518,ls),
(359,625,o),
(388,658,o),
(444,658,cs),
(504,658,o),
(536,603,o),
(536,551,c),
(598,655,l),
(544,681,o),
(491,694,o),
(427,694,cs),
(291,694,o),
(217,634,o),
(168,485,cs),
(-24,-103,ls),
(-64,-225,o),
(-82,-258,o),
(-110,-258,cs),
(-166,-258,o),
(-87,-130,o),
(-196,-130,cs),
(-249,-130,o),
(-279,-161,o),
(-279,-203,cs),
(-279,-256,o),
(-230,-294,o),
(-126,-294,cs)
);
},
{
closed = 1;
nodes = (
(409,406,l),
(422,446,l),
(86,446,l),
(73,406,l)
);
}
);
width = 325;
}
);
metricLeft = j;
},
{
color = 6;
glyphname = f.med;
kernLeft = f;
kernRight = f;
layers = (
{
layerId = "9372F035-DA38-4B54-966C-CEBA9B53DD02";
shapes = (
{
closed = 1;
nodes = (
(-17,-290,o),
(41,-261,o),
(85,-127,cs),
(290,504,ls),
(321,598,o),
(358,699,o),
(441,699,cs),
(509,699,o),
(543,640,o),
(549,582,c),
(614,665,l),
(573,713,o),
(503,724,o),
(449,724,cs),
(327,724,o),
(271,658,o),
(226,520,cs),
(13,-127,ls),
(-16,-216,o),
(-44,-268,o),
(-111,-268,cs),
(-164,-268,o),
(-193,-228,o),
(-215,-139,c),
(-264,-195,l),
(-260,-238,o),
(-208,-290,o),
(-109,-290,cs)
);
},
{
closed = 1;
nodes = (
(370,416,l),
(378,440,l),
(111,440,l),
(103,416,l)
);
}
);
width = 342;
},
{
layerId = m002;
shapes = (
{
closed = 1;
nodes = (
(0,-294,o),
(83,-251,o),
(127,-117,cs),
(337,524,ls),
(384,668,o),
(407,688,o),
(468,688,cs),
(517,688,o),
(557,639,o),
(557,581,c),
(619,685,l),
(568,710,o),
(514,724,o),
(451,724,cs),
(327,724,o),
(244,682,o),
(189,515,cs),
(-13,-103,ls),
(-47,-208,o),
(-86,-258,o),
(-134,-258,cs),
(-196,-258,o),
(-224,-183,o),
(-199,-83,c),
(-299,-201,l),
(-268,-254,o),
(-219,-294,o),
(-124,-294,cs)
);
},
{
closed = 1;
nodes = (
(406,406,l),
(419,446,l),
(97,446,l),
(84,406,l)
);
}
);
width = 366;
}
);
},
{
color = 6;
export = 0;
glyphname = w.alt;
kernLeft = v;
kernRight = v;
layers = (
{
anchors = (
{
name = bottom;
pos = (339,0);
},
{
name = top;
pos = (439,440);
}
);
layerId = "9372F035-DA38-4B54-966C-CEBA9B53DD02";
shapes = (
{
closed = 1;
nodes = (
(192,-11,l),
(341,161,ls),
(449,286,o),
(482,359,o),
(482,395,cs),
(482,432,o),
(461,454,o),
(430,454,cs),
(398,454,o),
(331,424,o),
(331,313,cs),
(331,258,o),
(345,219,o),
(361,177,cs),
(380,128,o),
(400,75,o),
(422,-11,c),
(441,-11,l),
(601,185,ls),
(659,257,o),
(718,318,o),
(718,380,cs),
(718,427,o),
(689,454,o),
(660,454,cs),
(632,454,o),
(614,436,o),
(614,413,cs),
(614,398,o),
(621,390,o),
(627,379,cs),
(637,361,o),
(643,350,o),
(643,326,cs),
(643,288,o),
(622,248,o),
(583,199,cs),
(452,35,l),
(472,43,l),
(453,108,ls),
(407,267,o),
(394,328,o),
(397,385,cs),
(399,418,o),
(415,432,o),
(432,432,cs),
(450,432,o),
(460,416,o),
(460,395,cs),
(460,338,o),
(371,229,o),
(324,175,cs),
(204,36,l),
(223,43,l),
(201,114,ls),
(174,201,o),
(160,254,o),
(160,302,cs),
(160,378,o),
(196,406,o),
(251,431,c),
(246,448,l),
(93,440,l),
(86,417,l),
(205,423,l),
(198,428,l),
(156,402,o),
(77,358,o),
(77,280,cs),
(77,237,o),
(89,204,o),
(104,171,cs),
(125,121,o),
(155,72,o),
(174,-11,c)
);
}
);
width = 720;
},
{
anchors = (
{
name = bottom;
pos = (321,0);
},
{
name = top;
pos = (421,440);
}
);
layerId = m002;
shapes = (
{
closed = 1;
nodes = (
(174,-11,l),
(323,161,ls),
(431,286,o),
(464,359,o),
(464,395,cs),
(464,432,o),
(443,454,o),
(412,454,cs),
(380,454,o),
(313,424,o),
(313,313,cs),
(313,258,o),
(327,219,o),
(343,177,cs),
(362,128,o),
(382,75,o),
(404,-11,c),
(423,-11,l),
(583,185,ls),
(641,257,o),
(700,318,o),
(700,380,cs),
(700,427,o),
(671,454,o),
(642,454,cs),
(614,454,o),
(596,436,o),
(596,413,cs),
(596,398,o),
(603,390,o),
(609,379,cs),
(619,361,o),
(625,350,o),
(625,326,cs),
(625,288,o),
(604,248,o),
(565,199,cs),
(434,35,l),
(454,43,l),
(435,108,ls),
(389,267,o),
(376,328,o),
(379,385,cs),
(381,418,o),
(397,432,o),
(414,432,cs),
(432,432,o),
(442,416,o),
(442,395,cs),
(442,338,o),
(353,229,o),
(306,175,cs),
(186,36,l),
(205,43,l),
(183,114,ls),
(156,201,o),
(142,254,o),
(142,302,cs),
(142,378,o),
(178,406,o),
(233,431,c),
(228,448,l),
(75,440,l),
(68,417,l),
(187,423,l),
(180,428,l),
(138,402,o),
(59,358,o),
(59,280,cs),
(59,237,o),
(71,204,o),
(86,171,cs),
(107,121,o),
(137,72,o),
(156,-11,c)
);
}
);
width = 678;
}
);
metricLeft = v;
metricRight = v;
},
{
color = 6;
glyphname = f_b.liga;
kernLeft = f;
layers = (
{
layerId = "9372F035-DA38-4B54-966C-CEBA9B53DD02";
shapes = (
{
closed = 1;
nodes = (
(-26,-290,o),
(28,-263,o),
(71,-131,cs),
(276,500,ls),
(307,595,o),
(355,695,o),
(452,695,cs),
(528,695,o),
(566,636,o),
(573,578,c),
(624,664,l),
(584,708,o),
(520,720,o),
(471,720,cs),
(329,720,o),
(258,656,o),
(212,516,cs),
(-1,-131,ls),
(-29,-215,o),
(-60,-268,o),
(-95,-268,cs),
(-139,-268,o),
(-116,-174,o),
(-175,-174,cs),
(-203,-174,o),
(-224,-194,o),
(-224,-221,cs),
(-224,-255,o),
(-195,-290,o),
(-113,-290,cs)
);
},
{
closed = 1;
nodes = (
(356,412,l),
(364,436,l),
(97,436,l),
(89,412,l)
);
},
{
closed = 1;
nodes = (
(441,4,o),
(457,134,o),
(487,217,cs),
(506,270,ls),
(534,349,o),
(608,422,o),
(662,422,cs),
(750,422,o),
(743,289,o),
(715,204,cs),
(681,100,o),
(606,4,o),
(529,4,cs)
);
},
{
closed = 1;
nodes = (
(634,-18,o),
(746,73,o),
(786,197,cs),
(822,307,o),
(800,450,o),
(675,450,cs),
(613,450,o),
(553,404,o),
(519,350,c),
(521,339,l),
(624,664,l),
(555,666,l),
(413,229,ls),
(368,92,o),
(375,-18,o),
(521,-18,cs)
);
}
);
width = 836;
},
{
layerId = m002;
shapes = (
{
closed = 1;
nodes = (
(-1,-294,o),
(82,-252,o),
(126,-117,cs),
(336,524,ls),
(374,640,o),
(408,688,o),
(471,688,cs),
(521,688,o),
(558,647,o),
(558,606,c),
(722,676,l),
(653,710,o),
(578,724,o),
(490,724,cs),
(347,724,o),
(243,684,o),
(188,515,cs),
(-14,-103,ls),
(-42,-190,o),
(-64,-258,o),
(-100,-258,cs),
(-156,-258,o),
(-77,-130,o),
(-185,-130,cs),
(-239,-130,o),
(-269,-162,o),
(-269,-201,cs),
(-269,-254,o),
(-220,-294,o),
(-125,-294,cs)
);
},
{
closed = 1;
nodes = (
(405,406,l),
(418,446,l),
(96,446,l),
(83,406,l)
);
},
{
closed = 1;
nodes = (
(541,37,o),
(528,86,o),
(567,210,cs),
(574,232,ls),
(607,336,o),
(660,394,o),
(710,394,cs),
(762,394,o),
(770,327,o),
(733,213,cs),
(698,105,o),
(643,37,o),
(591,37,cs)
);
},
{
closed = 1;
nodes = (
(706,-14,o),
(840,65,o),
(892,211,cs),
(937,339,o),
(885,460,o),
(779,460,cs),
(714,460,o),
(637,419,o),
(590,342,c),
(613,343,l),
(722,676,l),
(575,665,l),
(437,243,ls),
(382,75,o),
(424,-14,o),
(581,-14,cs)
);
}
);
width = 932;
}
);
metricLeft = f;
metricRight = b;
},
{
color = 3;
glyphname = f_f_b.liga;
kernLeft = f;
layers = (
{
anchors = (
{
name = bottom;
pos = (822,0);
},
{
name = top;
pos = (982,440);
}
);
layerId = "9372F035-DA38-4B54-966C-CEBA9B53DD02";
shapes = (
{
closed = 1;
nodes = (
(929,-14,o),
(1041,77,o),
(1081,201,cs),
(1117,311,o),
(1095,454,o),
(970,454,cs),
(908,454,o),
(848,408,o),
(814,354,c),
(816,343,l),
(919,668,l),
(850,670,l),
(708,233,ls),
(663,96,o),
(670,-14,o),
(816,-14,cs)
);
},
{
closed = 1;
nodes = (
(736,8,o),
(752,138,o),
(782,221,cs),
(801,274,ls),
(829,353,o),
(903,426,o),
(957,426,cs),
(1045,426,o),
(1038,293,o),
(1010,208,cs),
(976,104,o),
(901,8,o),
(824,8,cs)
);
},
{
ref = f_f.init;
}
);
width = 1130;
},
{
anchors = (
{
name = bottom;
pos = (916,0);
},
{
name = top;
pos = (1076,440);
}
);
layerId = m002;
shapes = (
{
closed = 1;
nodes = (
(1042,-14,o),
(1176,65,o),
(1228,211,cs),
(1273,339,o),
(1221,460,o),
(1115,460,cs),
(1050,460,o),
(973,419,o),
(926,342,c),
(949,343,l),
(1058,676,l),
(911,665,l),
(773,243,ls),
(718,75,o),
(760,-14,o),
(917,-14,cs)
);
},
{
closed = 1;
nodes = (
(877,37,o),
(864,86,o),
(903,210,cs),
(910,232,ls),
(943,336,o),
(996,394,o),
(1046,394,cs),
(1098,394,o),
(1106,327,o),
(1069,213,cs),
(1034,105,o),
(979,37,o),
(927,37,cs)
);
},
{
ref = f_f.init;
}
);
width = 1268;
}
);
metricLeft = f;
metricRight = b;
},
{
color = 3;
glyphname = f_f_h.liga;
kernLeft = f;
layers = (
{
anchors = (
{
name = bottom;
pos = (854,0);
},
{
name = center;
pos = (897,521);
},
{
name = top;
pos = (931,710);
}
);
layerId = "9372F035-DA38-4B54-966C-CEBA9B53DD02";
shapes = (
{
closed = 1;
nodes = (
(1026,-14,o),
(1066,31,o),
(1091,72,c),
(1073,84,l),
(1056,55,o),
(1025,19,o),
(996,19,cs),
(971,19,o),
(980,56,o),
(989,80,cs),
(1079,331,ls),
(1101,393,o),
(1098,454,o),
(1003,454,cs),
(917,454,o),
(846,390,o),
(802,327,c),
(804,313,l),
(919,668,l),
(848,668,l),
(630,-1,l),
(702,0,l),
(786,257,ls),
(809,327,o),
(908,429,o),
(984,429,cs),
(1024,429,o),
(1028,393,o),
(1015,356,cs),
(928,110,ls),
(907,52,o),
(898,-14,o),
(969,-14,cs)
);
},
{
ref = f_f.init;
}
);
width = 1139;
},
{
anchors = (
{
name = bottom;
pos = (921.428,0);
},
{
name = center;
pos = (937.507,521);
},
{
name = top;
pos = (997,710);
}
);
layerId = m002;
shapes = (
{
closed = 1;
nodes = (
(1172,-14,o),
(1228,22,o),
(1260,93,c),
(1232,111,l),
(1209,64,o),
(1189,45,o),
(1174,45,cs),
(1157,45,o),
(1155,65,o),
(1168,104,cs),
(1234,299,ls),
(1269,401,o),
(1255,460,o),
(1155,460,cs),
(1041,460,o),
(923,382,o),
(873,221,c),
(908,226,l),
(1058,676,l),
(905,657,l),
(692,0,l),
(837,0,l),
(912,226,ls),
(945,326,o),
(1011,394,o),
(1065,394,cs),
(1102,394,o),
(1110,362,o),
(1096,321,cs),
(1031,131,ls),
(1006,57,o),
(1000,-14,o),
(1100,-14,cs)
);
},
{
ref = f_f.init;
}
);
width = 1282;
}
);
metricLeft = f;
metricRight = h;
},
{
color = 3;
glyphname = f_f_i.liga;
kernLeft = f;
layers = (
{
layerId = "9372F035-DA38-4B54-966C-CEBA9B53DD02";
shapes = (
{
closed = 1;
nodes = (
(261,-290,o),
(322,-223,o),
(367,-90,cs),
(590,581,ls),
(618,664,o),
(669,702,o),
(718,702,cs),
(756,702,o),
(775,686,o),
(775,633,cs),
(775,603,o),
(792,582,o),
(822,582,cs),
(859,582,o),
(881,610,o),
(881,638,cs),
(881,665,o),
(862,724,o),
(726,724,cs),
(618,724,o),
(551,684,o),
(504,541,cs),
(299,-74,ls),
(265,-174,o),
(231,-265,o),
(157,-265,cs),
(97,-265,o),
(74,-209,o),
(58,-126,c),
(14,-208,l),
(14,-251,o),
(66,-290,o),
(137,-290,cs)
);
},
{
closed = 1;
nodes = (
(731,-14,o),
(771,33,o),
(796,75,c),
(778,87,l),
(761,57,o),
(730,19,o),
(701,19,cs),
(681,19,o),
(680,42,o),
(695,85,cs),
(821,443,l),
(659,440,l),
(652,416,l),
(681,416,ls),
(735,416,o),
(737,392,o),
(719,344,cs),
(633,113,ls),
(608,45,o),
(608,-14,o),
(674,-14,cs)
);
},
{
closed = 1;
nodes = (
(665,416,l),
(675,440,l),
(388,440,l),
(381,416,l)
);
},
{
ref = f.init;
}
);
width = 853;
},
{
layerId = m002;
shapes = (
{
closed = 1;
nodes = (
(344,-294,o),
(427,-251,o),
(471,-117,cs),
(684,533,ls),
(714,623,o),
(753,688,o),
(810,688,cs),
(863,688,o),
(863,659,o),
(863,622,cs),
(863,578,o),
(886,547,o),
(941,547,cs),
(991,547,o),
(1019,582,o),
(1019,622,cs),
(1019,676,o),
(969,724,o),
(827,724,cs),
(671,724,o),
(588,681,o),
(544,547,cs),
(331,-103,ls),
(297,-208,o),
(258,-258,o),
(210,-258,cs),
(148,-258,o),
(120,-183,o),
(145,-83,c),
(45,-201,l),
(76,-254,o),
(125,-294,o),
(220,-294,cs)
);
},
{
closed = 1;
nodes = (
(882,-14,o),
(938,22,o),
(970,93,c),
(942,111,l),
(919,64,o),
(899,45,o),
(884,45,cs),
(867,45,o),
(865,65,o),
(878,104,cs),
(992,449,l),
(762,446,l),
(749,406,l),
(770,406,ls),
(824,406,o),
(824,382,o),
(808,334,cs),
(741,131,ls),
(717,58,o),
(710,-14,o),
(810,-14,cs)
);
},
{
closed = 1;
nodes = (
(750,406,l),
(763,446,l),
(441,446,l),
(428,406,l)
);
},
{
pos = (10,0);
ref = f.init;
}
);
width = 996;
}
);
metricLeft = f;
metricRight = i;
},
{
color = 3;
glyphname = f_f_j.liga;
kernLeft = f;
layers = (
{
layerId = "9372F035-DA38-4B54-966C-CEBA9B53DD02";
shapes = (
{
closed = 1;
nodes = (
(261,-290,o),
(323,-223,o),
(367,-90,cs),
(590,581,ls),
(618,664,o),
(669,702,o),
(718,702,cs),
(756,702,o),
(775,686,o),
(775,633,cs),
(775,603,o),
(792,582,o),
(822,582,cs),
(859,582,o),
(881,610,o),
(881,638,cs),
(881,665,o),
(862,724,o),
(726,724,cs),
(618,724,o),
(552,684,o),
(504,541,cs),
(299,-74,ls),
(266,-174,o),
(231,-265,o),
(157,-265,cs),
(97,-265,o),
(74,-209,o),
(58,-126,c),
(14,-208,l),
(14,-251,o),
(66,-290,o),
(137,-290,cs)
);
},
{
closed = 1;
nodes = (
(665,416,l),
(675,440,l),
(388,440,l),
(381,416,l)
);
},
{
closed = 1;
nodes = (
(540,-290,o),
(592,-262,o),
(636,-127,cs),
(821,443,l),
(659,440,l),
(652,416,l),
(681,416,ls),
(735,416,o),
(735,392,o),
(719,344,cs),
(564,-127,ls),
(535,-215,o),
(512,-268,o),
(451,-268,cs),
(398,-268,o),
(369,-228,o),
(347,-139,c),
(298,-195,l),
(302,-238,o),
(354,-290,o),
(453,-290,cs)
);
},
{
ref = f.init;
}
);
width = 828;
},
{
layerId = m002;
shapes = (
{
closed = 1;
nodes = (
(333,-294,o),
(416,-251,o),
(460,-117,cs),
(673,533,ls),
(703,623,o),
(742,688,o),
(799,688,cs),
(852,688,o),
(852,659,o),
(852,622,cs),
(852,578,o),
(875,547,o),
(930,547,cs),
(980,547,o),
(1008,582,o),
(1008,622,cs),
(1008,676,o),
(958,724,o),
(816,724,cs),
(660,724,o),
(577,681,o),
(533,547,cs),
(320,-103,ls),
(286,-208,o),
(247,-258,o),
(199,-258,cs),
(137,-258,o),
(109,-183,o),
(134,-83,c),
(34,-201,l),
(65,-254,o),
(114,-294,o),
(209,-294,cs)
);
},
{
closed = 1;
nodes = (
(739,406,l),
(752,446,l),
(430,446,l),
(417,406,l)
);
},
{
closed = 1;
nodes = (
(669,-294,o),
(752,-251,o),
(796,-117,cs),
(981,449,l),
(751,446,l),
(738,406,l),
(759,406,ls),
(813,406,o),
(813,382,o),
(797,334,cs),
(656,-103,ls),
(622,-209,o),
(583,-258,o),
(535,-258,cs),
(473,-258,o),
(445,-183,o),
(470,-83,c),
(370,-201,l),
(401,-254,o),
(450,-294,o),
(545,-294,cs)
);
},
{
pos = (10,0);
ref = f.init;
}
);
width = 970;
}
);
metricLeft = f;
metricRight = j;
},
{
color = 3;
glyphname = f_f_k.liga;
kernLeft = f;
layers = (
{
layerId = "9372F035-DA38-4B54-966C-CEBA9B53DD02";
shapes = (
{
closed = 1;
nodes = (
(703,0,l),
(919,668,l),
(849,668,l),
(631,0,l)
);
},
{
closed = 1;
nodes = (
(996,-14,o),
(1044,9,o),
(1079,72,c),
(1062,84,l),
(1035,39,o),
(1005,19,o),
(988,19,cs),
(961,19,o),
(961,37,o),
(959,136,cs),
(957,249,o),
(924,284,o),
(789,284,c),
(787,269,l),
(871,269,o),
(891,236,o),
(891,132,cs),
(891,22,o),
(901,-14,o),
(958,-14,cs)
);
},
{
closed = 1;
nodes = (
(859,270,o),
(881,295,o),
(924,340,cs),
(965,383,ls),
(984,402,o),
(995,414,o),
(1009,414,cs),
(1021,414,o),
(1024,406,o),
(1024,375,cs),
(1024,346,o),
(1041,337,o),
(1061,337,cs),
(1087,337,o),
(1104,362,o),
(1104,392,cs),
(1104,411,o),
(1097,454,o),
(1044,454,cs),
(1010,454,o),
(986,433,o),
(949,394,cs),
(912,355,ls),
(869,310,o),
(840,284,o),
(769,284,c),
(769,270,l)
);
},
{
ref = f_f.init;
}
);
width = 1105;
},
{
layerId = m002;
shapes = (
{
closed = 1;
nodes = (
(837,0,l),
(1058,676,l),
(912,676,l),
(691,0,l)
);
},
{
closed = 1;
nodes = (
(1147,-14,o),
(1204,22,o),
(1236,93,c),
(1208,111,l),
(1187,64,o),
(1168,45,o),
(1152,45,cs),
(1137,45,o),
(1129,59,o),
(1127,143,cs),
(1124,252,o),
(1087,288,o),
(911,288,c),
(909,254,l),
(978,254,o),
(990,224,o),
(990,132,cs),
(990,16,o),
(1014,-14,o),
(1077,-14,cs)
);
},
{
closed = 1;
nodes = (
(984,264,o),
(1022,288,o),
(1057,330,cs),
(1088,367,ls),
(1108,391,o),
(1118,397,o),
(1127,397,cs),
(1139,397,o),
(1144,386,o),
(1144,361,cs),
(1144,322,o),
(1167,307,o),
(1202,307,cs),
(1247,307,o),
(1274,349,o),
(1274,389,cs),
(1274,434,o),
(1244,460,o),
(1191,460,cs),
(1141,460,o),
(1104,440,o),
(1065,394,cs),
(1032,355,ls),
(993,309,o),
(958,288,o),
(891,288,c),
(891,264,l)
);
},
{
ref = f_f.init;
}
);
width = 1262;
}
);
metricLeft = f;
metricRight = k;
},
{
color = 6;
glyphname = f_f_l.liga;
kernLeft = f;
layers = (
{
layerId = "9372F035-DA38-4B54-966C-CEBA9B53DD02";
shapes = (
{
closed = 1;
nodes = (
(-26,-290,o),
(28,-263,o),
(71,-131,cs),
(267,474,ls),
(298,568,o),
(335,669,o),
(418,669,cs),
(486,669,o),
(520,610,o),
(526,552,c),
(591,635,l),
(550,683,o),
(480,694,o),
(426,694,cs),
(304,694,o),
(248,628,o),
(203,490,cs),
(-1,-131,ls),
(-29,-215,o),
(-60,-268,o),
(-95,-268,cs),
(-139,-268,o),
(-116,-174,o),
(-175,-174,cs),
(-203,-174,o),
(-224,-194,o),
(-224,-221,cs),
(-224,-255,o),
(-195,-290,o),
(-113,-290,cs)
);
},
{
closed = 1;
nodes = (
(384,416,l),
(392,440,l),
(100,440,l),
(92,416,l)
);
},
{
closed = 1;
nodes = (
(264,-290,o),
(322,-261,o),
(366,-127,cs),
(571,504,ls),
(602,599,o),
(650,699,o),
(747,699,cs),
(823,699,o),
(861,640,o),
(868,582,c),
(919,668,l),
(879,712,o),
(815,724,o),
(766,724,cs),
(624,724,o),
(553,660,o),
(507,520,cs),
(294,-127,ls),
(265,-216,o),
(237,-268,o),
(170,-268,cs),
(117,-268,o),
(88,-228,o),
(66,-139,c),
(17,-195,l),
(21,-238,o),
(73,-290,o),
(172,-290,cs)
);
},
{
closed = 1;
nodes = (
(651,416,l),
(659,440,l),
(392,440,l),
(384,416,l)
);
},
{
closed = 1;
nodes = (
(766,-14,o),
(806,33,o),
(831,75,c),
(813,87,l),
(796,57,o),
(765,19,o),
(736,19,cs),
(709,19,o),
(722,61,o),
(730,85,cs),
(919,668,l),
(848,664,l),
(668,113,ls),
(647,47,o),
(640,-14,o),
(709,-14,cs)
);
}
);
width = 884;
},
{
layerId = m002;
shapes = (
{
closed = 1;
nodes = (
(-1,-294,o),
(82,-252,o),
(126,-117,cs),
(326,494,ls),
(373,638,o),
(396,658,o),
(457,658,cs),
(506,658,o),
(546,609,o),
(546,551,c),
(608,655,l),
(557,680,o),
(503,694,o),
(440,694,cs),
(316,694,o),
(233,652,o),
(178,485,cs),
(-14,-103,ls),
(-42,-190,o),
(-64,-258,o),
(-100,-258,cs),
(-156,-258,o),
(-77,-130,o),
(-185,-130,cs),
(-239,-130,o),
(-269,-162,o),
(-269,-201,cs),
(-269,-254,o),
(-220,-294,o),
(-125,-294,cs)
);
},
{
closed = 1;
nodes = (
(419,406,l),
(432,446,l),
(96,446,l),
(83,406,l)
);
},
{
closed = 1;
nodes = (
(335,-294,o),
(418,-251,o),
(462,-117,cs),
(672,524,ls),
(710,640,o),
(744,688,o),
(807,688,cs),
(857,688,o),
(894,647,o),
(894,606,c),
(1058,676,l),
(989,710,o),
(914,724,o),
(826,724,cs),
(683,724,o),
(579,684,o),
(524,515,cs),
(322,-103,ls),
(288,-208,o),
(249,-258,o),
(201,-258,cs),
(139,-258,o),
(111,-183,o),
(136,-83,c),
(36,-201,l),
(67,-254,o),
(116,-294,o),
(211,-294,cs)
);
},
{
closed = 1;
nodes = (
(741,406,l),
(754,446,l),
(432,446,l),
(419,406,l)
);
},
{
closed = 1;
nodes = (
(875,-14,o),
(931,22,o),
(963,93,c),
(935,111,l),
(912,64,o),
(892,45,o),
(877,45,cs),
(860,45,o),
(858,65,o),
(871,104,cs),
(1058,676,l),
(905,658,l),
(734,131,ls),
(710,57,o),
(703,-14,o),
(803,-14,cs)
);
}
);
width = 989;
}
);
metricLeft = f;
metricRight = l;
},
{
color = 3;
glyphname = f_f_t.liga;
kernLeft = f;
layers = (
{
layerId = "9372F035-DA38-4B54-966C-CEBA9B53DD02";
shapes = (
{
closed = 1;
nodes = (
(760,-14,o),
(803,31,o),
(828,72,c),
(810,84,l),
(793,55,o),
(762,19,o),
(732,19,cs),
(699,19,o),
(707,56,o),
(716,82,cs),
(872,526,l),
(805,526,l),
(655,110,ls),
(634,51,o),
(627,-14,o),
(695,-14,cs)
);
},
{
closed = 1;
nodes = (
(926,416,l),
(934,440,l),
(640,440,l),
(632,416,l)
);
},
{
ref = f.init;
},
{
pos = (281,0);
ref = f.fina;
}
);
width = 901;
},
{
layerId = m002;
shapes = (
{
closed = 1;
nodes = (
(892,-14,o),
(950,22,o),
(984,93,c),
(956,111,l),
(928,64,o),
(903,45,o),
(885,45,cs),
(859,45,o),
(857,65,o),
(870,104,cs),
(1013,542,l),
(867,542,l),
(733,131,ls),
(709,57,o),
(702,-14,o),
(816,-14,cs)
);
},
{
closed = 1;
nodes = (
(1076,406,l),
(1089,446,l),
(718,446,l),
(705,406,l)
);
},
{
pos = (10,0);
ref = f.init;
},
{
pos = (335,0);
ref = f.fina;
}
);
width = 1040;
}
);
metricLeft = f;
metricRight = t;
},
{
color = 6;
glyphname = f_h.liga;
kernLeft = f;
layers = (
{
anchors = (
{
name = bottom_1;
pos = (854,0);
},
{
name = center_1;
pos = (897,521);
},
{
name = top_1;
pos = (931,710);
}
);
layerId = "9372F035-DA38-4B54-966C-CEBA9B53DD02";
shapes = (
{
closed = 1;
nodes = (
(-26,-290,o),
(28,-263,o),
(71,-131,cs),
(276,500,ls),
(307,595,o),
(355,695,o),
(452,695,cs),
(528,695,o),
(566,636,o),
(573,578,c),
(624,664,l),
(584,708,o),
(520,720,o),
(471,720,cs),
(329,720,o),
(258,656,o),
(212,516,cs),
(-1,-131,ls),
(-29,-215,o),
(-60,-268,o),
(-95,-268,cs),
(-139,-268,o),
(-116,-174,o),
(-175,-174,cs),
(-203,-174,o),
(-224,-194,o),
(-224,-221,cs),
(-224,-255,o),
(-195,-290,o),
(-113,-290,cs)
);
},
{
closed = 1;
nodes = (
(384,416,l),
(392,440,l),
(100,440,l),
(92,416,l)
);
},
{
closed = 1;
nodes = (
(731,-18,o),
(771,27,o),
(796,68,c),
(778,80,l),
(761,51,o),
(730,15,o),
(701,15,cs),
(676,15,o),
(685,52,o),
(694,76,cs),
(784,327,ls),
(806,389,o),
(803,450,o),
(708,450,cs),
(622,450,o),
(551,386,o),
(507,323,c),
(509,309,l),
(624,664,l),
(553,664,l),
(335,-5,l),
(407,-4,l),
(491,253,ls),
(514,323,o),
(613,425,o),
(689,425,cs),
(729,425,o),
(733,389,o),
(720,352,cs),
(633,106,ls),
(612,48,o),
(603,-18,o),
(674,-18,cs)
);
}
);
width = 845;
},
{
anchors = (
{
name = bottom_1;
pos = (921.428,0);
},
{
name = center_1;
pos = (937.507,521);
},
{
name = top_1;
pos = (997,710);
}
);
layerId = m002;
shapes = (
{
closed = 1;
nodes = (
(-1,-294,o),
(82,-252,o),
(126,-117,cs),
(336,524,ls),
(374,640,o),
(408,688,o),
(471,688,cs),
(521,688,o),
(558,647,o),
(558,606,c),
(722,676,l),
(653,710,o),
(578,724,o),
(490,724,cs),
(347,724,o),
(243,684,o),
(188,515,cs),
(-14,-103,ls),
(-42,-190,o),
(-64,-258,o),
(-100,-258,cs),
(-156,-258,o),
(-77,-130,o),
(-185,-130,cs),
(-239,-130,o),
(-269,-162,o),
(-269,-201,cs),
(-269,-254,o),
(-220,-294,o),
(-125,-294,cs)
);
},
{
closed = 1;
nodes = (
(405,406,l),
(418,446,l),
(96,446,l),
(83,406,l)
);
},
{
closed = 1;
nodes = (
(836,-14,o),
(892,22,o),
(924,93,c),
(896,111,l),
(873,64,o),
(853,45,o),
(838,45,cs),
(821,45,o),
(819,65,o),
(832,104,cs),
(898,299,ls),
(933,401,o),
(919,460,o),
(819,460,cs),
(705,460,o),
(587,382,o),
(537,221,c),
(572,226,l),
(722,676,l),
(569,657,l),
(356,0,l),
(501,0,l),
(576,226,ls),
(609,326,o),
(675,394,o),
(729,394,cs),
(766,394,o),
(774,362,o),
(760,321,cs),
(695,131,ls),
(670,57,o),
(664,-14,o),
(764,-14,cs)
);
}
);
width = 946;
}
);
metricLeft = f;
metricRight = h;
},
{
color = 6;
glyphname = f_j.liga;
kernLeft = f;
layers = (
{
layerId = "9372F035-DA38-4B54-966C-CEBA9B53DD02";
shapes = (
{
closed = 1;
nodes = (
(-26,-290,o),
(27,-262,o),
(71,-131,cs),
(309,581,ls),
(337,664,o),
(388,702,o),
(437,702,cs),
(475,702,o),
(494,686,o),
(494,633,cs),
(494,603,o),
(511,582,o),
(541,582,cs),
(578,582,o),
(600,610,o),
(600,638,cs),
(600,665,o),
(581,724,o),
(445,724,cs),
(337,724,o),
(271,684,o),
(223,541,cs),
(-1,-131,ls),
(-29,-215,o),
(-60,-268,o),
(-95,-268,cs),
(-139,-268,o),
(-116,-174,o),
(-175,-174,cs),
(-203,-174,o),
(-224,-194,o),
(-224,-221,cs),
(-224,-255,o),
(-195,-290,o),
(-113,-290,cs)
);
},
{
closed = 1;
nodes = (
(259,-290,o),
(311,-262,o),
(355,-127,cs),
(540,443,l),
(378,440,l),
(371,416,l),
(400,416,ls),
(454,416,o),
(454,392,o),
(438,344,cs),
(283,-127,ls),
(254,-215,o),
(231,-268,o),
(170,-268,cs),
(117,-268,o),
(88,-228,o),
(66,-139,c),
(17,-195,l),
(21,-238,o),
(73,-290,o),
(172,-290,cs)
);
},
{
closed = 1;
nodes = (
(384,416,l),
(394,440,l),
(107,440,l),
(100,416,l)
);
}
);
width = 547;
},
{
layerId = m002;
shapes = (
{
closed = 1;
nodes = (
(-1,-294,o),
(82,-252,o),
(126,-117,cs),
(339,533,ls),
(369,623,o),
(408,688,o),
(465,688,cs),
(518,688,o),
(518,659,o),
(518,622,cs),
(518,578,o),
(541,547,o),
(596,547,cs),
(646,547,o),
(674,582,o),
(674,622,cs),
(674,676,o),
(624,724,o),
(482,724,cs),
(326,724,o),
(243,681,o),
(199,547,cs),
(-14,-103,ls),
(-43,-190,o),
(-64,-258,o),
(-100,-258,cs),
(-156,-258,o),
(-77,-130,o),
(-185,-130,cs),
(-239,-130,o),
(-269,-162,o),
(-269,-201,cs),
(-269,-254,o),
(-220,-294,o),
(-125,-294,cs)
);
},
{
closed = 1;
nodes = (
(335,-294,o),
(418,-251,o),
(462,-117,cs),
(647,449,l),
(417,446,l),
(404,406,l),
(425,406,ls),
(479,406,o),
(479,382,o),
(463,334,cs),
(322,-103,ls),
(288,-209,o),
(249,-258,o),
(201,-258,cs),
(139,-258,o),
(111,-183,o),
(136,-83,c),
(36,-201,l),
(67,-254,o),
(116,-294,o),
(211,-294,cs)
);
},
{
closed = 1;
nodes = (
(405,406,l),
(418,446,l),
(96,446,l),
(83,406,l)
);
}
);
width = 636;
}
);
metricLeft = f;
metricRight = j;
},
{
color = 6;
glyphname = f_k.liga;
kernLeft = f;
layers = (
{
layerId = "9372F035-DA38-4B54-966C-CEBA9B53DD02";
shapes = (
{
closed = 1;
nodes = (
(-26,-290,o),
(28,-263,o),
(71,-131,cs),
(276,500,ls),
(307,595,o),
(355,695,o),
(452,695,cs),
(528,695,o),
(566,636,o),
(573,578,c),
(624,664,l),
(584,708,o),
(520,720,o),
(471,720,cs),
(329,720,o),
(258,656,o),
(212,516,cs),
(-1,-131,ls),
(-29,-215,o),
(-60,-268,o),
(-95,-268,cs),
(-139,-268,o),
(-116,-174,o),
(-175,-174,cs),
(-203,-174,o),
(-224,-194,o),
(-224,-221,cs),
(-224,-255,o),
(-195,-290,o),
(-113,-290,cs)
);
},
{
closed = 1;
nodes = (
(356,412,l),
(364,436,l),
(97,436,l),
(89,412,l)
);
},
{
closed = 1;
nodes = (
(701,-18,o),
(749,5,o),
(784,68,c),
(767,80,l),
(740,35,o),
(710,15,o),
(693,15,cs),
(666,15,o),
(666,33,o),
(664,132,cs),
(662,245,o),
(629,280,o),
(494,280,c),
(492,265,l),
(576,265,o),
(596,232,o),
(596,128,cs),
(596,18,o),
(606,-18,o),
(663,-18,cs)
);
},
{
closed = 1;
nodes = (
(408,-4,l),
(624,664,l),
(554,664,l),
(336,-4,l)
);
},
{
closed = 1;
nodes = (
(564,266,o),
(586,291,o),
(629,336,cs),
(670,379,ls),
(689,398,o),
(700,410,o),
(714,410,cs),
(726,410,o),
(729,402,o),
(729,371,cs),
(729,342,o),
(746,333,o),
(766,333,cs),
(792,333,o),
(809,358,o),
(809,388,cs),
(809,407,o),
(802,450,o),
(749,450,cs),
(715,450,o),
(691,429,o),
(654,390,cs),
(617,351,ls),
(574,306,o),
(545,280,o),
(474,280,c),
(474,266,l)
);
}
);
width = 811;
},
{
layerId = m002;
shapes = (
{
closed = 1;
nodes = (
(-1,-294,o),
(82,-252,o),
(126,-117,cs),
(336,524,ls),
(374,640,o),
(408,688,o),
(471,688,cs),
(521,688,o),
(558,647,o),
(558,606,c),
(722,676,l),
(653,710,o),
(578,724,o),
(490,724,cs),
(347,724,o),
(243,684,o),
(188,515,cs),
(-14,-103,ls),
(-42,-190,o),
(-64,-258,o),
(-100,-258,cs),
(-156,-258,o),
(-77,-130,o),
(-185,-130,cs),
(-239,-130,o),
(-269,-162,o),
(-269,-201,cs),
(-269,-254,o),
(-220,-294,o),
(-125,-294,cs)
);
},
{
closed = 1;
nodes = (
(405,406,l),
(418,446,l),
(96,446,l),
(83,406,l)
);
},
{
closed = 1;
nodes = (
(811,-14,o),
(868,22,o),
(900,93,c),
(872,111,l),
(851,64,o),
(832,45,o),
(816,45,cs),
(801,45,o),
(793,59,o),
(791,143,cs),
(788,252,o),
(751,288,o),
(575,288,c),
(573,254,l),
(642,254,o),
(654,224,o),
(654,132,cs),
(654,16,o),
(678,-14,o),
(741,-14,cs)
);
},
{
closed = 1;
nodes = (
(501,0,l),
(722,676,l),
(576,676,l),
(355,0,l)
);
},
{
closed = 1;
nodes = (
(648,264,o),
(686,288,o),
(721,330,cs),
(752,367,ls),
(772,391,o),
(782,397,o),
(791,397,cs),
(803,397,o),
(808,386,o),
(808,361,cs),
(808,322,o),
(831,307,o),
(866,307,cs),
(911,307,o),
(938,349,o),
(938,389,cs),
(938,434,o),
(908,460,o),
(855,460,cs),
(805,460,o),
(768,440,o),
(729,394,cs),
(696,355,ls),
(657,309,o),
(622,288,o),
(555,288,c),
(555,264,l)
);
}
);
width = 926;
}
);
metricLeft = f;
metricRight = k;
},
{
color = 6;
glyphname = f_t.liga;
kernLeft = f;
layers = (
{
layerId = "9372F035-DA38-4B54-966C-CEBA9B53DD02";
shapes = (
{
closed = 1;
nodes = (
(-24,-290,o),
(29,-260,o),
(73,-127,cs),
(315,611,ls),
(339,684,o),
(380,702,o),
(406,702,cs),
(432,702,o),
(441,689,o),
(441,651,cs),
(441,622,o),
(451,601,o),
(482,601,cs),
(515,601,o),
(528,627,o),
(528,654,cs),
(528,689,o),
(497,724,o),
(424,724,cs),
(338,724,o),
(265,683,o),
(222,552,cs),
(1,-127,ls),
(-27,-213,o),
(-58,-268,o),
(-93,-268,cs),
(-137,-268,o),
(-114,-170,o),
(-173,-170,cs),
(-201,-170,o),
(-222,-190,o),
(-222,-217,cs),
(-222,-253,o),
(-193,-290,o),
(-111,-290,cs)
);
},
{
closed = 1;
nodes = (
(428,416,l),
(436,440,l),
(99,440,l),
(91,416,l)
);
},
{
closed = 1;
nodes = (
(467,-14,o),
(510,31,o),
(535,72,c),
(517,84,l),
(500,55,o),
(469,19,o),
(439,19,cs),
(406,19,o),
(414,56,o),
(423,82,cs),
(579,526,l),
(512,526,l),
(362,110,ls),
(341,51,o),
(334,-14,o),
(402,-14,cs)
);
},
{
closed = 1;
nodes = (
(633,416,l),
(641,440,l),
(415,440,l),
(407,416,l)
);
}
);
width = 608;
},
{
layerId = m002;
shapes = (
{
closed = 1;
nodes = (
(-1,-294,o),
(82,-251,o),
(126,-117,cs),
(339,533,ls),
(367,620,o),
(389,688,o),
(425,688,cs),
(451,688,o),
(448,661,o),
(448,632,cs),
(448,597,o),
(452,560,o),
(510,560,cs),
(564,560,o),
(594,592,o),
(594,631,cs),
(594,680,o),
(562,724,o),
(450,724,cs),
(326,724,o),
(243,681,o),
(199,547,cs),
(-14,-103,ls),
(-42,-190,o),
(-64,-258,o),
(-100,-258,cs),
(-156,-258,o),
(-77,-130,o),
(-185,-130,cs),
(-239,-130,o),
(-269,-162,o),
(-269,-201,cs),
(-269,-254,o),
(-220,-294,o),
(-125,-294,cs)
);
},
{
closed = 1;
nodes = (
(455,406,l),
(468,446,l),
(96,446,l),
(83,406,l)
);
},
{
closed = 1;
nodes = (
(556,-14,o),
(614,22,o),
(648,93,c),
(620,111,l),
(592,64,o),
(567,45,o),
(549,45,cs),
(523,45,o),
(521,65,o),
(534,104,cs),
(677,542,l),
(531,542,l),
(397,131,ls),
(373,57,o),
(366,-14,o),
(480,-14,cs)
);
},
{
closed = 1;
nodes = (
(740,406,l),
(753,446,l),
(432,446,l),
(419,406,l)
);
}
);
width = 704;
}
);
metricLeft = f;
metricRight = t;
},
{
color = 6;
glyphname = fi;
kernLeft = f;
layers = (
{
layerId = "9372F035-DA38-4B54-966C-CEBA9B53DD02";
shapes = (
{
closed = 1;
nodes = (
(-24,-290,o),
(29,-258,o),
(73,-127,cs),
(309,581,ls),
(336,664,o),
(388,702,o),
(437,702,cs),
(475,702,o),
(494,686,o),
(494,633,cs),
(494,603,o),
(511,582,o),
(541,582,cs),
(578,582,o),
(600,610,o),
(600,638,cs),
(600,665,o),
(581,724,o),
(445,724,cs),
(337,724,o),
(270,684,o),
(223,541,cs),
(1,-127,ls),
(-28,-213,o),
(-58,-268,o),
(-93,-268,cs),
(-137,-268,o),
(-114,-170,o),
(-173,-170,cs),
(-201,-170,o),
(-222,-190,o),
(-222,-216,cs),
(-222,-255,o),
(-193,-290,o),
(-111,-290,cs)
);
},
{
closed = 1;
nodes = (
(450,-14,o),
(490,33,o),
(515,75,c),
(497,87,l),
(480,57,o),
(449,19,o),
(420,19,cs),
(400,19,o),
(399,42,o),
(414,85,cs),
(540,443,l),
(378,440,l),
(371,416,l),
(400,416,ls),
(454,416,o),
(455,392,o),
(438,344,cs),
(352,113,ls),
(327,45,o),
(327,-14,o),
(393,-14,cs)
);
},
{
closed = 1;
nodes = (
(384,416,l),
(394,440,l),
(107,440,l),
(100,416,l)
);
}
);
width = 572;
},
{
layerId = m002;
shapes = (
{
closed = 1;
nodes = (
(-1,-294,o),
(82,-251,o),
(126,-117,cs),
(339,533,ls),
(369,623,o),
(408,688,o),
(465,688,cs),
(518,688,o),
(518,659,o),
(518,622,cs),
(518,578,o),
(541,547,o),
(596,547,cs),
(646,547,o),
(674,582,o),
(674,622,cs),
(674,676,o),
(624,724,o),
(482,724,cs),
(326,724,o),
(243,681,o),
(199,547,cs),
(-14,-103,ls),
(-42,-190,o),
(-64,-258,o),
(-100,-258,cs),
(-156,-258,o),
(-77,-130,o),
(-185,-130,cs),
(-239,-130,o),
(-269,-162,o),
(-269,-201,cs),
(-269,-254,o),
(-220,-294,o),
(-125,-294,cs)
);
},
{
closed = 1;
nodes = (
(537,-14,o),
(593,22,o),
(625,93,c),
(597,111,l),
(574,64,o),
(554,45,o),
(539,45,cs),
(522,45,o),
(520,65,o),
(533,104,cs),
(647,449,l),
(417,446,l),
(404,406,l),
(425,406,ls),
(479,406,o),
(479,382,o),
(463,334,cs),
(396,131,ls),
(372,58,o),
(365,-14,o),
(465,-14,cs)
);
},
{
closed = 1;
nodes = (
(405,406,l),
(418,446,l),
(96,446,l),
(83,406,l)
);
}
);
width = 651;
}
);
metricLeft = f;
metricRight = i;
unicode = 64257;
},
{
color = 6;
glyphname = fl;
kernLeft = f;
layers = (
{
layerId = "9372F035-DA38-4B54-966C-CEBA9B53DD02";
shapes = (
{
closed = 1;
nodes = (
(-26,-290,o),
(28,-263,o),
(71,-131,cs),
(276,500,ls),
(307,595,o),
(355,695,o),
(452,695,cs),
(528,695,o),
(566,636,o),
(573,578,c),
(624,664,l),
(584,708,o),
(520,720,o),
(471,720,cs),
(329,720,o),
(258,656,o),
(212,516,cs),
(-1,-131,ls),
(-29,-215,o),
(-60,-268,o),
(-95,-268,cs),
(-139,-268,o),
(-116,-174,o),
(-175,-174,cs),
(-203,-174,o),
(-224,-194,o),
(-224,-221,cs),
(-224,-255,o),
(-195,-290,o),
(-113,-290,cs)
);
},
{
closed = 1;
nodes = (
(356,412,l),
(364,436,l),
(97,436,l),
(89,412,l)
);
},
{
closed = 1;
nodes = (
(471,-18,o),
(511,29,o),
(536,71,c),
(518,83,l),
(501,53,o),
(470,15,o),
(441,15,cs),
(414,15,o),
(427,57,o),
(435,81,cs),
(624,664,l),
(553,660,l),
(373,109,ls),
(352,43,o),
(345,-18,o),
(414,-18,cs)
);
}
);
width = 590;
},
{
layerId = m002;
shapes = (
{
closed = 1;
nodes = (
(-1,-294,o),
(82,-252,o),
(126,-117,cs),
(336,524,ls),
(374,640,o),
(408,688,o),
(471,688,cs),
(521,688,o),
(558,647,o),
(558,606,c),
(722,676,l),
(653,710,o),
(578,724,o),
(490,724,cs),
(347,724,o),
(243,684,o),
(188,515,cs),
(-14,-103,ls),
(-42,-190,o),
(-64,-258,o),
(-100,-258,cs),
(-156,-258,o),
(-77,-130,o),
(-185,-130,cs),
(-239,-130,o),
(-269,-162,o),
(-269,-201,cs),
(-269,-254,o),
(-220,-294,o),
(-125,-294,cs)
);
},
{
closed = 1;
nodes = (
(405,406,l),
(418,446,l),
(96,446,l),
(83,406,l)
);
},
{
closed = 1;
nodes = (
(539,-14,o),
(595,22,o),
(627,93,c),
(599,111,l),
(576,64,o),
(556,45,o),
(541,45,cs),
(524,45,o),
(522,65,o),
(535,104,cs),
(722,676,l),
(569,658,l),
(398,131,ls),
(374,57,o),
(367,-14,o),
(467,-14,cs)
);
}
);
width = 653;
}
);
metricLeft = f;
metricRight = l;
unicode = 64258;
},
{
color = 3;
glyphname = t_t.liga;
kernLeft = t;
layers = (
{
layerId = "9372F035-DA38-4B54-966C-CEBA9B53DD02";
shapes = (
{
closed = 1;
nodes = (
(167,-14,o),
(207,31,o),
(232,72,c),
(214,84,l),
(197,55,o),
(166,19,o),
(136,19,cs),
(103,19,o),
(111,56,o),
(120,82,cs),
(279,526,l),
(212,526,l),
(59,110,ls),
(35,44,o),
(33,-14,o),
(104,-14,cs)
);
},
{
closed = 1;
nodes = (
(463,416,l),
(471,440,l),
(115,440,l),
(107,416,l)
);
},
{
alignment = -1;
pos = (276,0);
ref = t;
}
);
width = 584;
},
{
layerId = m002;
shapes = (
{
closed = 1;
nodes = (
(211,-14,o),
(269,22,o),
(303,93,c),
(275,111,l),
(247,64,o),
(222,45,o),
(204,45,cs),
(178,45,o),
(176,65,o),
(189,104,cs),
(332,542,l),
(186,542,l),
(52,131,ls),
(28,57,o),
(21,-14,o),
(135,-14,cs)
);
},
{
closed = 1;
nodes = (
(475,406,l),
(488,446,l),
(87,446,l),
(74,406,l)
);
},
{
alignment = -1;
pos = (349,0);
ref = t;
}
);
width = 708;
}
);
metricLeft = t;
metricRight = t;
},
{
color = 6;
glyphname = w_w_w;
kernLeft = v;
kernRight = v;
layers = (
{
layerId = "9372F035-DA38-4B54-966C-CEBA9B53DD02";
shapes = (
{
closed = 1;
nodes = (
(1348,221,l),
(1416,312,o),
(1442,365,o),
(1442,395,cs),
(1442,432,o),
(1419,454,o),
(1386,454,cs),
(1354,454,o),
(1287,424,o),
(1287,313,cs),
(1287,258,o),
(1301,219,o),
(1317,177,cs),
(1336,128,o),
(1356,75,o),
(1378,-11,c),
(1397,-11,l),
(1562,192,ls),
(1618,261,o),
(1643,318,o),
(1643,371,cs),
(1643,426,o),
(1615,454,o),
(1588,454,cs),
(1562,454,o),
(1545,437,o),
(1545,410,cs),
(1545,385,o),
(1581,352,o),
(1581,302,cs),
(1581,261,o),
(1558,224,o),
(1530,188,cs),
(1408,35,l),
(1428,43,l),
(1409,108,ls),
(1363,267,o),
(1350,328,o),
(1353,385,cs),
(1355,418,o),
(1372,432,o),
(1390,432,cs),
(1409,432,o),
(1420,416,o),
(1420,395,cs),
(1420,351,o),
(1366,278,o),
(1320,221,c)
);
},
{
closed = 1;
nodes = (
(363,221,l),
(349,204,o),
(335,188,o),
(324,175,cs),
(204,36,l),
(223,43,l),
(201,114,ls),
(174,201,o),
(160,254,o),
(160,302,cs),
(160,378,o),
(197,406,o),
(252,431,c),
(247,448,l),
(196,440,o),
(145,440,o),
(94,440,c),
(86,416,l),
(210,416,l),
(198,428,l),
(156,402,o),
(77,358,o),
(77,280,cs),
(77,237,o),
(89,204,o),
(104,171,cs),
(125,121,o),
(155,72,o),
(174,-11,c),
(192,-11,l),
(341,161,ls),
(360,183,o),
(376,203,o),
(390,221,c)
);
},
{
closed = 1;
nodes = (
(601,221,l),
(594,213,o),
(589,206,o),
(583,199,cs),
(452,35,l),
(472,43,l),
(453,108,ls),
(407,267,o),
(394,328,o),
(397,385,cs),
(399,418,o),
(416,432,o),
(434,432,cs),
(453,432,o),
(464,416,o),
(464,395,cs),
(464,352,o),
(412,278,o),
(367,221,c),
(394,221,l),
(463,310,o),
(486,365,o),
(486,395,cs),
(486,432,o),
(463,454,o),
(430,454,cs),
(398,454,o),
(331,424,o),
(331,313,cs),
(331,258,o),
(345,219,o),
(361,177,cs),
(380,128,o),
(400,75,o),
(422,-11,c),
(441,-11,l),
(601,185,ls),
(611,198,o),
(621,210,o),
(629,221,c)
);
},
{
closed = 1;
nodes = (
(840,222,l),
(834,214,o),
(828,206,o),
(822,199,cs),
(691,35,l),
(711,43,l),
(692,108,ls),
(646,267,o),
(633,328,o),
(636,385,cs),
(638,418,o),
(655,432,o),
(673,432,cs),
(692,432,o),
(703,416,o),
(703,395,cs),
(703,345,o),
(648,275,o),
(605,221,c),
(633,221,l),
(712,322,o),
(725,363,o),
(725,395,cs),
(725,432,o),
(702,454,o),
(669,454,cs),
(637,454,o),
(570,424,o),
(570,313,cs),
(570,258,o),
(584,219,o),
(600,177,cs),
(619,128,o),
(639,75,o),
(661,-11,c),
(680,-11,l),
(840,185,ls),
(851,198,o),
(860,210,o),
(869,222,c)
);
},
{
closed = 1;
nodes = (
(1079,221,l),
(1073,213,o),
(1067,206,o),
(1061,199,cs),
(930,35,l),
(950,43,l),
(931,108,ls),
(885,267,o),
(872,328,o),
(875,385,cs),
(877,418,o),
(894,432,o),
(912,432,cs),
(931,432,o),
(942,416,o),
(942,395,cs),
(942,345,o),
(888,276,o),
(844,222,c),
(873,222,l),
(951,322,o),
(964,363,o),
(964,395,cs),
(964,432,o),
(941,454,o),
(908,454,cs),
(876,454,o),
(809,424,o),
(809,313,cs),
(809,258,o),
(823,219,o),
(839,177,cs),
(858,128,o),
(878,75,o),
(900,-11,c),
(919,-11,l),
(1079,185,ls),
(1089,198,o),
(1099,210,o),
(1108,221,c)
);
},
{
closed = 1;
nodes = (
(1316,221,l),
(1303,204,o),
(1290,188,o),
(1280,175,cs),
(1169,35,l),
(1189,43,l),
(1170,108,ls),
(1124,267,o),
(1111,328,o),
(1114,385,cs),
(1116,418,o),
(1133,432,o),
(1151,432,cs),
(1170,432,o),
(1181,416,o),
(1181,395,cs),
(1181,345,o),
(1126,275,o),
(1083,221,c),
(1112,221,l),
(1190,322,o),
(1203,363,o),
(1203,395,cs),
(1203,432,o),
(1180,454,o),
(1147,454,cs),
(1115,454,o),
(1048,424,o),
(1048,313,cs),
(1048,258,o),
(1062,219,o),
(1078,177,cs),
(1097,128,o),
(1117,75,o),
(1139,-11,c),
(1158,-11,l),
(1297,161,ls),
(1314,183,o),
(1330,202,o),
(1344,221,c)
);
}
);
width = 1651;
},
{
layerId = m002;
shapes = (
{
closed = 1;
nodes = (
(1390,233,l),
(1459,318,o),
(1481,368,o),
(1481,395,cs),
(1481,437,o),
(1454,460,o),
(1404,460,cs),
(1317,460,o),
(1263,411,o),
(1263,328,cs),
(1263,287,o),
(1276,242,o),
(1302,175,cs),
(1319,131,o),
(1356,75,o),
(1375,-11,c),
(1406,-11,l),
(1590,220,ls),
(1645,289,o),
(1661,340,o),
(1661,379,cs),
(1661,427,o),
(1636,460,o),
(1593,460,cs),
(1556,460,o),
(1535,436,o),
(1535,402,cs),
(1535,363,o),
(1564,341,o),
(1564,285,cs),
(1564,264,o),
(1559,236,o),
(1529,197,cs),
(1403,35,l),
(1470,85,l),
(1454,140,ls),
(1415,275,o),
(1382,328,o),
(1386,385,cs),
(1388,411,o),
(1401,425,o),
(1421,425,cs),
(1438,425,o),
(1447,414,o),
(1447,395,cs),
(1447,354,o),
(1394,285,o),
(1350,233,c)
);
},
{
closed = 1;
nodes = (
(370,227,l),
(361,217,o),
(353,207,o),
(346,199,cs),
(214,48,l),
(274,106,l),
(258,139,ls),
(227,203,o),
(201,257,o),
(201,315,cs),
(201,388,o),
(241,412,o),
(274,426,c),
(266,454,l),
(203,446,o),
(140,446,o),
(77,446,c),
(65,412,l),
(218,411,l),
(205,427,l),
(118,387,o),
(51,343,o),
(51,272,cs),
(51,226,o),
(80,176,o),
(110,126,cs),
(137,81,o),
(163,37,o),
(176,-11,c),
(207,-11,l),
(375,185,ls),
(388,200,o),
(399,214,o),
(410,227,c)
);
},
{
closed = 1;
nodes = (
(614,229,l),
(604,218,o),
(595,208,o),
(587,199,cs),
(439,35,l),
(506,85,l),
(490,140,ls),
(451,275,o),
(418,328,o),
(422,385,cs),
(424,411,o),
(437,425,o),
(457,425,cs),
(474,425,o),
(483,414,o),
(483,395,cs),
(483,352,o),
(425,280,o),
(380,227,c),
(420,227,l),
(492,316,o),
(517,367,o),
(517,395,cs),
(517,437,o),
(490,460,o),
(440,460,cs),
(353,460,o),
(299,411,o),
(299,328,cs),
(299,287,o),
(312,242,o),
(338,175,cs),
(355,131,o),
(392,75,o),
(411,-11,c),
(442,-11,l),
(616,185,ls),
(630,201,o),
(642,215,o),
(654,229,c)
);
},
{
closed = 1;
nodes = (
(856,231,l),
(846,219,o),
(836,208,o),
(828,199,cs),
(680,35,l),
(747,85,l),
(731,140,ls),
(692,275,o),
(659,328,o),
(663,385,cs),
(665,411,o),
(678,425,o),
(698,425,cs),
(715,425,o),
(724,414,o),
(724,395,cs),
(724,353,o),
(668,281,o),
(624,229,c),
(664,229,l),
(735,316,o),
(758,367,o),
(758,395,cs),
(758,437,o),
(731,460,o),
(681,460,cs),
(594,460,o),
(540,411,o),
(540,328,cs),
(540,287,o),
(553,242,o),
(579,175,cs),
(596,131,o),
(633,75,o),
(652,-11,c),
(683,-11,l),
(857,185,ls),
(871,201,o),
(884,216,o),
(896,231,c)
);
},
{
closed = 1;
nodes = (
(1098,232,l),
(1087,220,o),
(1078,209,o),
(1069,199,cs),
(921,35,l),
(988,85,l),
(972,140,ls),
(933,275,o),
(900,328,o),
(904,385,cs),
(906,411,o),
(919,425,o),
(939,425,cs),
(956,425,o),
(965,414,o),
(965,395,cs),
(965,353,o),
(910,282,o),
(866,231,c),
(906,231,l),
(976,317,o),
(999,368,o),
(999,395,cs),
(999,437,o),
(972,460,o),
(922,460,cs),
(835,460,o),
(781,411,o),
(781,328,cs),
(781,287,o),
(794,242,o),
(820,175,cs),
(837,131,o),
(874,75,o),
(893,-11,c),
(924,-11,l),
(1098,185,ls),
(1113,202,o),
(1126,217,o),
(1138,232,c)
);
},
{
closed = 1;
nodes = (
(1340,233,l),
(1329,221,o),
(1319,209,o),
(1310,199,cs),
(1162,35,l),
(1229,85,l),
(1213,140,ls),
(1174,275,o),
(1141,328,o),
(1145,385,cs),
(1147,411,o),
(1160,425,o),
(1180,425,cs),
(1197,425,o),
(1206,414,o),
(1206,395,cs),
(1206,354,o),
(1152,284,o),
(1108,232,c),
(1148,232,l),
(1217,317,o),
(1240,368,o),
(1240,395,cs),
(1240,437,o),
(1213,460,o),
(1163,460,cs),
(1076,460,o),
(1022,411,o),
(1022,328,cs),
(1022,287,o),
(1035,242,o),
(1061,175,cs),
(1078,131,o),
(1115,75,o),
(1134,-11,c),
(1165,-11,l),
(1339,185,ls),
(1354,202,o),
(1368,218,o),
(1380,233,c)
);
}
);
width = 1642;
}
);
metricLeft = v;
metricRight = v;
},
{
color = 6;
glyphname = f_f.init;
kernLeft = f;
layers = (
{
layerId = "9372F035-DA38-4B54-966C-CEBA9B53DD02";
shapes = (
{
closed = 1;
nodes = (
(-26,-290,o),
(28,-263,o),
(71,-131,cs),
(267,474,ls),
(298,568,o),
(335,669,o),
(418,669,cs),
(486,669,o),
(520,610,o),
(526,552,c),
(591,635,l),
(550,683,o),
(480,694,o),
(426,694,cs),
(304,694,o),
(248,628,o),
(203,490,cs),
(-1,-131,ls),
(-29,-215,o),
(-60,-268,o),
(-95,-268,cs),
(-139,-268,o),
(-116,-174,o),
(-175,-174,cs),
(-203,-174,o),
(-224,-194,o),
(-224,-221,cs),
(-224,-255,o),
(-195,-290,o),
(-113,-290,cs)
);
},
{
closed = 1;
nodes = (
(384,416,l),
(392,440,l),
(100,440,l),
(92,416,l)
);
},
{
closed = 1;
nodes = (
(264,-290,o),
(322,-261,o),
(366,-127,cs),
(571,504,ls),
(602,599,o),
(650,699,o),
(747,699,cs),
(823,699,o),
(861,640,o),
(868,582,c),
(919,668,l),
(879,712,o),
(815,724,o),
(766,724,cs),
(624,724,o),
(553,660,o),
(507,520,cs),
(294,-127,ls),
(265,-216,o),
(237,-268,o),
(170,-268,cs),
(117,-268,o),
(88,-228,o),
(66,-139,c),
(17,-195,l),
(21,-238,o),
(73,-290,o),
(172,-290,cs)
);
},
{
closed = 1;
nodes = (
(651,416,l),
(659,440,l),
(392,440,l),
(384,416,l)
);
}
);
width = 665;
},
{
layerId = m002;
shapes = (
{
closed = 1;
nodes = (
(-1,-294,o),
(82,-252,o),
(126,-117,cs),
(326,494,ls),
(373,638,o),
(396,658,o),
(457,658,cs),
(506,658,o),
(546,609,o),
(546,551,c),
(608,655,l),
(557,680,o),
(503,694,o),
(440,694,cs),
(316,694,o),
(233,652,o),
(178,485,cs),
(-14,-103,ls),
(-42,-190,o),
(-64,-258,o),
(-100,-258,cs),
(-156,-258,o),
(-77,-130,o),
(-185,-130,cs),
(-239,-130,o),
(-269,-162,o),
(-269,-201,cs),
(-269,-254,o),
(-220,-294,o),
(-125,-294,cs)
);
},
{
closed = 1;
nodes = (
(419,406,l),
(432,446,l),
(96,446,l),
(83,406,l)
);
},
{
closed = 1;
nodes = (
(335,-294,o),
(418,-251,o),
(462,-117,cs),
(672,524,ls),
(710,640,o),
(744,688,o),
(807,688,cs),
(857,688,o),
(894,647,o),
(894,606,c),
(1058,676,l),
(989,710,o),
(914,724,o),
(826,724,cs),
(683,724,o),
(579,684,o),
(524,515,cs),
(322,-103,ls),
(288,-208,o),
(249,-258,o),
(201,-258,cs),
(139,-258,o),
(111,-183,o),
(136,-83,c),
(36,-201,l),
(67,-254,o),
(116,-294,o),
(211,-294,cs)
);
},
{
closed = 1;
nodes = (
(741,406,l),
(754,446,l),
(432,446,l),
(419,406,l)
);
}
);
width = 687;
}
);
metricLeft = f;
},
{
color = 6;
glyphname = a.sups;
kernLeft = a;
kernRight = u;
layers = (
{
anchors = (
{
name = bottom;
pos = (259,313);
},
{
name = ogonek;
pos = (474,313);
},
{
name = top;
pos = (361,644);
}
);
layerId = "9372F035-DA38-4B54-966C-CEBA9B53DD02";
shapes = (
{
closed = 1;
nodes = (
(291,302,o),
(342,336,o),
(380,396,c),
(374,400,l),
(357,359,o),
(353,302,o),
(415,302,cs),
(464,302,o),
(497,336,o),
(518,372,c),
(502,382,l),
(486,354,o),
(462,332,o),
(440,332,cs),
(419,332,o),
(426,360,o),
(433,380,cs),
(526,644,l),
(464,644,l),
(429,547,l),
(439,550,l),
(440,608,o),
(415,655,o),
(352,655,cs),
(243,655,o),
(156,565,o),
(127,475,cs),
(98,385,o),
(127,302,o),
(234,302,cs)
);
},
{
closed = 1;
nodes = (
(183,329,o),
(173,393,o),
(198,469,cs),
(225,551,o),
(290,628,o),
(359,628,cs),
(427,628,o),
(432,553,o),
(401,473,cs),
(368,388,o),
(312,329,o),
(248,329,cs)
);
}
);
userData = {
RMXScaler = {
height = 75;
weight = -30;
width = 85;
};
};
width = 465;
},
{
anchors = (
{
name = bottom;
pos = (256,301);
},
{
name = ogonek;
pos = (506,301);
},
{
name = top;
pos = (364,636);
}
);
layerId = m002;
shapes = (
{
closed = 1;
nodes = (
(287,291,o),
(356,329,o),
(396,403,c),
(385,420,l),
(363,356,o),
(361,291,o),
(438,291,cs),
(496,291,o),
(538,317,o),
(564,373,c),
(541,388,l),
(520,348,o),
(504,339,o),
(493,339,cs),
(479,339,o),
(474,348,o),
(485,382,cs),
(568,636,l),
(451,636,l),
(412,518,l),
(427,517,l),
(450,592,o),
(413,647,o),
(340,647,cs),
(234,647,o),
(154,558,o),
(125,473,cs),
(95,385,o),
(113,291,o),
(222,291,cs)
);
},
{
closed = 1;
nodes = (
(239,346,o),
(223,381,o),
(250,463,cs),
(275,538,o),
(317,591,o),
(365,591,cs),
(407,591,o),
(427,553,o),
(396,465,cs),
(371,394,o),
(328,346,o),
(280,346,cs)
);
}
);
userData = {
RMXScaler = {
height = 75;
weight = -140;
width = 85;
};
};
width = 511;
}
);
},
{
color = 6;
glyphname = d.sups;
kernLeft = o;
kernRight = l;
layers = (
{
anchors = (
{
name = bottom;
pos = (257,313);
},
{
name = center;
pos = (519,711);
},
{
name = top;
pos = (377,690);
},
{
name = topright;
pos = (606,846);
}
);
layerId = "9372F035-DA38-4B54-966C-CEBA9B53DD02";
shapes = (
{
closed = 1;
nodes = (
(295,302,o),
(350,339,o),
(388,406,c),
(384,412,l),
(365,355,o),
(358,302,o),
(421,302,cs),
(471,302,o),
(504,336,o),
(525,372,c),
(508,382,l),
(492,354,o),
(468,332,o),
(447,332,cs),
(425,332,o),
(432,359,o),
(439,380,cs),
(592,848,l),
(449,846,l),
(444,826,l),
(466,826,ls),
(511,826,o),
(513,809,o),
(501,772,cs),
(430,555,l),
(440,559,l),
(442,614,o),
(412,655,o),
(354,655,cs),
(266,655,o),
(161,580,o),
(128,479,cs),
(100,394,o),
(127,302,o),
(236,302,cs)
);
},
{
closed = 1;
nodes = (
(180,329,o),
(178,406,o),
(199,469,cs),
(226,551,o),
(294,628,o),
(361,628,cs),
(423,628,o),
(433,563,o),
(407,483,cs),
(381,403,o),
(323,329,o),
(249,329,cs)
);
}
);
userData = {
RMXScaler = {
height = 75;
weight = -30;
width = 85;
};
};
width = 470;
},
{
anchors = (
{
name = bottom;
pos = (285,301);
},
{
name = center;
pos = (533,699);
},
{
name = top;
pos = (470,874);
},
{
name = topright;
pos = (650,833);
}
);
layerId = m002;
shapes = (
{
closed = 1;
nodes = (
(289,291,o),
(359,327,o),
(399,401,c),
(388,417,l),
(367,356,o),
(365,291,o),
(441,291,cs),
(497,291,o),
(540,315,o),
(567,373,c),
(544,388,l),
(523,348,o),
(507,339,o),
(496,339,cs),
(482,339,o),
(477,348,o),
(488,382,cs),
(636,836,l),
(446,833,l),
(439,806,l),
(457,806,ls),
(502,806,o),
(503,789,o),
(491,752,cs),
(414,516,l),
(429,515,l),
(453,592,o),
(415,647,o),
(342,647,cs),
(253,647,o),
(162,579,o),
(128,480,cs),
(97,390,o),
(120,291,o),
(225,291,cs)
);
},
{
closed = 1;
nodes = (
(240,346,o),
(225,380,o),
(253,464,cs),
(278,539,o),
(321,591,o),
(368,591,cs),
(410,591,o),
(429,551,o),
(398,462,cs),
(373,390,o),
(331,346,o),
(283,346,cs)
);
}
);
userData = {
RMXScaler = {
height = 75;
weight = -140;
width = 85;
};
};
width = 512;
}
);
},
{
color = 6;
glyphname = e.sups;
kernLeft = o;
kernRight = o;
layers = (
{
anchors = (
{
name = bottom;
pos = (259,313);
},
{
name = ogonek;
pos = (340,313);
},
{
name = top;
pos = (341,643);
}
);
layerId = "9372F035-DA38-4B54-966C-CEBA9B53DD02";
shapes = (
{
closed = 1;
nodes = (
(324,302,o),
(365,336,o),
(393,375,c),
(377,386,l),
(353,353,o),
(316,326,o),
(273,326,cs),
(191,326,o),
(182,420,o),
(206,494,cs),
(231,571,o),
(292,636,o),
(347,636,cs),
(385,636,o),
(390,601,o),
(381,574,cs),
(372,547,o),
(342,511,o),
(251,501,cs),
(196,495,l),
(194,477,l),
(269,484,ls),
(366,493,o),
(424,521,o),
(438,565,cs),
(451,605,o),
(426,653,o),
(349,653,cs),
(259,653,o),
(162,583,o),
(133,494,cs),
(104,405,o),
(141,302,o),
(261,302,cs)
);
}
);
userData = {
RMXScaler = {
height = 75;
weight = -30;
width = 85;
};
};
width = 373;
},
{
anchors = (
{
name = bottom;
pos = (276,301);
},
{
name = ogonek;
pos = (381,301);
},
{
name = top;
pos = (365,631);
}
);
layerId = m002;
shapes = (
{
closed = 1;
nodes = (
(375,291,o),
(426,334,o),
(454,384,c),
(429,398,l),
(392,346,o),
(353,331,o),
(312,331,cs),
(236,331,o),
(226,403,o),
(252,484,cs),
(273,549,o),
(321,618,o),
(364,618,cs),
(396,618,o),
(397,578,o),
(388,553,cs),
(380,531,o),
(353,500,o),
(268,489,cs),
(213,482,l),
(211,458,l),
(286,463,ls),
(405,471,o),
(483,502,o),
(499,553,cs),
(514,601,o),
(475,647,o),
(378,647,cs),
(241,647,o),
(151,550,o),
(127,479,cs),
(100,399,o),
(135,291,o),
(284,291,cs)
);
}
);
userData = {
RMXScaler = {
height = 75;
weight = -140;
width = 85;
};
};
width = 432;
}
);
},
{
color = 6;
glyphname = h.sups;
kernLeft = l;
kernRight = n;
layers = (
{
anchors = (
{
name = bottom;
pos = (259,313);
},
{
name = center;
pos = (277,704);
},
{
name = top;
pos = (301,846);
}
);
layerId = "9372F035-DA38-4B54-966C-CEBA9B53DD02";
shapes = (
{
closed = 1;
nodes = (
(446,302,o),
(480,332,o),
(503,371,c),
(487,381,l),
(472,355,o),
(448,332,o),
(425,332,cs),
(405,332,o),
(409,355,o),
(417,377,cs),
(482,556,ls),
(502,611,o),
(494,655,o),
(414,655,cs),
(338,655,o),
(276,603,o),
(238,540,c),
(243,533,l),
(346,848,l),
(203,846,l),
(197,826,l),
(214,826,ls),
(261,826,o),
(267,809,o),
(255,772,cs),
(105,312,l),
(172,313,l),
(233,500,ls),
(252,558,o),
(329,629,o),
(392,629,cs),
(426,629,o),
(431,602,o),
(421,574,cs),
(358,399,ls),
(340,349,o),
(338,302,o),
(399,302,cs)
);
}
);
userData = {
RMXScaler = {
height = 75;
weight = -30;
width = 85;
};
};
width = 454;
},
{
anchors = (
{
name = bottom;
pos = (284,301);
},
{
name = center;
pos = (283,692);
},
{
name = top;
pos = (326,833);
}
);
layerId = m002;
shapes = (
{
closed = 1;
nodes = (
(502,291,o),
(546,318,o),
(572,374,c),
(548,388,l),
(529,350,o),
(513,339,o),
(500,339,cs),
(485,339,o),
(482,351,o),
(493,383,cs),
(540,520,ls),
(568,602,o),
(556,647,o),
(470,647,cs),
(376,647,o),
(279,588,o),
(235,451,c),
(264,457,l),
(390,836,l),
(198,833,l),
(190,806,l),
(207,806,ls),
(254,806,o),
(254,789,o),
(242,752,cs),
(96,301,l),
(216,301,l),
(270,466,ls),
(296,545,o),
(349,591,o),
(397,591,cs),
(430,591,o),
(436,566,o),
(426,537,cs),
(379,402,ls),
(358,342,o),
(358,291,o),
(440,291,cs)
);
}
);
userData = {
RMXScaler = {
height = 75;
weight = -140;
width = 85;
};
};
width = 523;
}
);
},
{
color = 6;
glyphname = m.sups;
kernLeft = n;
kernRight = n;
layers = (
{
anchors = (
{
name = bottom;
pos = (355,313);
},
{
name = top;
pos = (475,644);
}
);
layerId = "9372F035-DA38-4B54-966C-CEBA9B53DD02";
shapes = (
{
closed = 1;
nodes = (
(664,302,o),
(696,333,o),
(718,371,c),
(701,381,l),
(687,355,o),
(664,332,o),
(646,332,cs),
(621,332,o),
(627,367,o),
(635,390,cs),
(693,556,ls),
(714,616,o),
(692,655,o),
(624,655,cs),
(560,655,o),
(505,617,o),
(462,559,c),
(474,556,l),
(491,606,o),
(488,655,o),
(406,655,cs),
(337,655,o),
(283,612,o),
(248,561,c),
(252,549,l),
(278,646,l),
(148,644,l),
(142,624,l),
(160,624,ls),
(205,624,o),
(208,608,o),
(195,570,cs),
(106,313,l),
(173,313,l),
(237,500,ls),
(255,553,o),
(325,629,o),
(384,629,cs),
(420,629,o),
(424,603,o),
(414,574,cs),
(323,313,l),
(391,313,l),
(460,511,ls),
(481,571,o),
(549,629,o),
(602,629,cs),
(638,629,o),
(642,602,o),
(632,574,cs),
(575,414,ls),
(554,355,o),
(553,302,o),
(622,302,cs)
);
}
);
userData = {
RMXScaler = {
height = 75;
weight = -30;
width = 85;
};
};
width = 669;
},
{
anchors = (
{
name = bottom;
pos = (406,301);
},
{
name = top;
pos = (515,636);
}
);
layerId = m002;
shapes = (
{
closed = 1;
nodes = (
(739,291,o),
(783,318,o),
(809,374,c),
(785,388,l),
(766,350,o),
(750,339,o),
(737,339,cs),
(723,339,o),
(718,347,o),
(729,379,cs),
(777,520,ls),
(806,605,o),
(787,647,o),
(712,647,cs),
(640,647,o),
(572,617,o),
(526,549,c),
(541,534,l),
(564,613,o),
(544,647,o),
(471,647,cs),
(400,647,o),
(333,618,o),
(287,553,c),
(298,533,l),
(327,639,l),
(144,636,l),
(135,609,l),
(153,609,ls),
(200,609,o),
(200,590,o),
(188,555,cs),
(102,301,l),
(222,301,l),
(277,466,ls),
(293,514,o),
(340,591,o),
(398,591,cs),
(423,591,o),
(434,573,o),
(422,536,cs),
(345,301,l),
(465,301,l),
(527,490,ls),
(549,557,o),
(598,591,o),
(638,591,cs),
(666,591,o),
(674,571,o),
(662,536,cs),
(615,399,ls),
(595,341,o),
(595,291,o),
(677,291,cs)
);
}
);
userData = {
RMXScaler = {
height = 75;
weight = -140;
width = 85;
};
};
width = 760;
}
);
},
{
color = 6;
glyphname = n.sups;
kernLeft = n;
kernRight = n;
layers = (
{
anchors = (
{
name = bottom;
pos = (259,313);
},
{
name = top;
pos = (362,643);
}
);
layerId = "9372F035-DA38-4B54-966C-CEBA9B53DD02";
shapes = (
{
closed = 1;
nodes = (
(454,302,o),
(487,332,o),
(510,371,c),
(493,381,l),
(479,355,o),
(458,332,o),
(434,332,cs),
(417,332,o),
(414,351,o),
(423,377,cs),
(485,556,ls),
(508,622,o),
(483,655,o),
(416,655,cs),
(342,655,o),
(279,606,o),
(240,537,c),
(248,538,l),
(278,646,l),
(148,644,l),
(142,624,l),
(160,624,ls),
(206,624,o),
(206,606,o),
(194,570,cs),
(108,313,l),
(175,313,l),
(237,500,ls),
(257,560,o),
(331,629,o),
(391,629,cs),
(423,629,o),
(435,607,o),
(424,574,cs),
(365,399,ls),
(348,349,o),
(346,302,o),
(406,302,cs)
);
}
);
userData = {
RMXScaler = {
height = 75;
weight = -30;
width = 85;
};
};
width = 461;
},
{
anchors = (
{
name = bottom;
pos = (297,301);
},
{
name = top;
pos = (379,631);
}
);
layerId = m002;
shapes = (
{
closed = 1;
nodes = (
(506,291,o),
(551,316,o),
(578,374,c),
(554,388,l),
(536,352,o),
(521,339,o),
(507,339,cs),
(492,339,o),
(488,351,o),
(499,383,cs),
(546,520,ls),
(574,602,o),
(559,647,o),
(476,647,cs),
(383,647,o),
(286,589,o),
(242,451,c),
(285,488,l),
(327,639,l),
(144,636,l),
(135,609,l),
(153,609,ls),
(200,609,o),
(200,590,o),
(188,555,cs),
(102,301,l),
(222,301,l),
(276,466,ls),
(301,542,o),
(353,591,o),
(403,591,cs),
(435,591,o),
(442,566,o),
(432,537,cs),
(385,402,ls),
(364,342,o),
(364,291,o),
(446,291,cs)
);
}
);
userData = {
RMXScaler = {
height = 75;
weight = -140;
width = 85;
};
};
width = 529;
}
);
},
{
color = 6;
glyphname = o.sups;
kernLeft = o;
kernRight = o;
layers = (
{
anchors = (
{
name = bottom;
pos = (250,313);
},
{
name = center;
pos = (311,478);
},
{
name = ogonek;
pos = (371,313);
},
{
name = top;
pos = (369,643);
},
{
name = topright;
pos = (536,643);
}
);
layerId = "9372F035-DA38-4B54-966C-CEBA9B53DD02";
shapes = (
{
closed = 1;
nodes = (
(368,302,o),
(460,370,o),
(490,463,cs),
(520,556,o),
(484,655,o),
(355,655,cs),
(251,655,o),
(162,584,o),
(133,495,cs),
(102,400,o),
(142,302,o),
(267,302,cs)
);
},
{
closed = 1;
nodes = (
(181,324,o),
(182,418,o),
(203,482,cs),
(229,561,o),
(283,633,o),
(356,633,cs),
(440,633,o),
(442,543,o),
(420,475,cs),
(395,398,o),
(341,324,o),
(267,324,cs)
);
}
);
userData = {
RMXScaler = {
height = 75;
weight = -30;
width = 85;
};
};
width = 454;
},
{
anchors = (
{
name = bottom;
pos = (264,301);
},
{
name = center;
pos = (325,466);
},
{
name = ogonek;
pos = (385,301);
},
{
name = top;
pos = (383,631);
},
{
name = topright;
pos = (550,631);
}
);
layerId = m002;
shapes = (
{
closed = 1;
nodes = (
(396,291,o),
(498,360,o),
(528,454,cs),
(559,551,o),
(520,647,o),
(372,647,cs),
(263,647,o),
(160,580,o),
(129,486,cs),
(95,383,o),
(142,291,o),
(283,291,cs)
);
},
{
closed = 1;
nodes = (
(229,332,o),
(239,427,o),
(254,472,cs),
(288,574,o),
(330,605,o),
(365,605,cs),
(427,605,o),
(415,502,o),
(403,465,cs),
(370,363,o),
(324,332,o),
(289,332,cs)
);
}
);
userData = {
RMXScaler = {
height = 75;
weight = -140;
width = 85;
};
};
width = 496;
}
);
},
{
color = 6;
glyphname = r.sups;
kernLeft = n;
kernRight = r;
layers = (
{
anchors = (
{
name = bottom;
pos = (134,313);
},
{
name = top;
pos = (310,643);
}
);
layerId = "9372F035-DA38-4B54-966C-CEBA9B53DD02";
shapes = (
{
closed = 1;
nodes = (
(177,313,l),
(222,450,ls),
(247,526,o),
(292,621,o),
(343,621,cs),
(357,621,o),
(364,614,o),
(369,596,cs),
(375,574,o),
(386,562,o),
(410,562,cs),
(432,562,o),
(447,578,o),
(446,601,cs),
(445,625,o),
(421,655,o),
(377,655,cs),
(306,655,o),
(261,589,o),
(228,509,c),
(236,511,l),
(270,646,l),
(148,644,l),
(142,624,l),
(159,624,ls),
(205,624,o),
(206,607,o),
(194,570,cs),
(110,313,l)
);
}
);
userData = {
RMXScaler = {
height = 75;
weight = -30;
width = 85;
};
};
width = 347;
},
{
anchors = (
{
name = bottom;
pos = (179,301);
},
{
name = top;
pos = (355,631);
}
);
layerId = m002;
shapes = (
{
closed = 1;
nodes = (
(222,301,l),
(267,437,ls),
(306,555,o),
(346,593,o),
(378,593,cs),
(396,593,o),
(395,578,o),
(396,562,cs),
(397,548,o),
(400,520,o),
(447,520,cs),
(482,520,o),
(504,552,o),
(504,584,cs),
(504,611,o),
(480,647,o),
(426,647,cs),
(356,647,o),
(287,591,o),
(256,459,c),
(279,495,l),
(316,639,l),
(144,636,l),
(135,609,l),
(153,609,ls),
(199,609,o),
(199,591,o),
(187,555,cs),
(102,301,l)
);
}
);
userData = {
RMXScaler = {
height = 75;
weight = -140;
width = 85;
};
};
width = 412;
}
);
},
{
color = 6;
glyphname = s.sups;
kernLeft = s;
kernRight = s;
layers = (
{
anchors = (
{
name = bottom;
pos = (217,313);
},
{
name = top;
pos = (287,643);
}
);
layerId = "9372F035-DA38-4B54-966C-CEBA9B53DD02";
shapes = (
{
closed = 1;
nodes = (
(280,302,o),
(328,336,o),
(342,379,cs),
(354,415,o),
(340,451,o),
(295,492,cs),
(260,524,ls),
(235,547,o),
(222,576,o),
(230,601,cs),
(237,623,o),
(259,636,o),
(289,636,cs),
(328,636,o),
(324,608,o),
(324,588,cs),
(324,568,o),
(342,557,o),
(357,557,cs),
(380,557,o),
(395,573,o),
(395,593,cs),
(395,618,o),
(374,655,o),
(290,655,cs),
(224,655,o),
(189,622,o),
(178,586,cs),
(167,550,o),
(182,506,o),
(215,476,cs),
(249,445,ls),
(281,416,o),
(291,391,o),
(282,364,cs),
(274,340,o),
(249,321,o),
(210,321,cs),
(179,321,o),
(155,337,o),
(155,357,cs),
(155,371,o),
(164,381,o),
(164,395,cs),
(164,415,o),
(151,427,o),
(132,427,cs),
(106,427,o),
(91,409,o),
(91,386,cs),
(91,351,o),
(125,302,o),
(214,302,cs)
);
}
);
userData = {
RMXScaler = {
height = 75;
weight = -30;
width = 85;
};
};
width = 324;
},
{
anchors = (
{
name = bottom;
pos = (244,301);
},
{
name = top;
pos = (313,631);
}
);
layerId = m002;
shapes = (
{
closed = 1;
nodes = (
(322,291,o),
(387,322,o),
(403,372,cs),
(414,406,o),
(393,443,o),
(356,477,cs),
(306,523,ls),
(280,547,o),
(265,575,o),
(271,596,cs),
(275,610,o),
(290,618,o),
(314,618,cs),
(353,618,o),
(348,594,o),
(348,559,cs),
(348,537,o),
(366,515,o),
(397,515,cs),
(430,515,o),
(454,537,o),
(454,566,cs),
(454,602,o),
(422,647,o),
(317,647,cs),
(227,647,o),
(183,613,o),
(170,573,cs),
(159,539,o),
(174,498,o),
(207,468,cs),
(252,427,ls),
(289,393,o),
(300,366,o),
(295,348,cs),
(290,331,o),
(270,320,o),
(239,320,cs),
(204,320,o),
(191,339,o),
(191,350,cs),
(191,359,o),
(195,370,o),
(195,380,cs),
(195,412,o),
(174,428,o),
(145,428,cs),
(107,428,o),
(88,400,o),
(88,378,cs),
(88,342,o),
(133,291,o),
(239,291,cs)
);
}
);
userData = {
RMXScaler = {
height = 75;
weight = -140;
width = 85;
};
};
width = 389;
}
);
},
{
color = 6;
glyphname = t.sups;
kernLeft = t;
kernRight = t;
layers = (
{
anchors = (
{
name = bottom;
pos = (197,313);
},
{
name = center;
pos = (245,505);
},
{
name = top;
pos = (276,643);
},
{
name = topright;
pos = (364,812);
}
);
layerId = "9372F035-DA38-4B54-966C-CEBA9B53DD02";
shapes = (
{
closed = 1;
nodes = (
(245,302,o),
(281,334,o),
(303,371,c),
(287,381,l),
(272,356,o),
(248,332,o),
(223,332,cs),
(195,332,o),
(200,358,o),
(207,378,cs),
(324,710,l),
(262,710,l),
(149,399,ls),
(132,352,o),
(128,302,o),
(190,302,cs)
);
},
{
closed = 1;
nodes = (
(374,623,l),
(381,644,l),
(181,644,l),
(175,623,l)
);
}
);
userData = {
RMXScaler = {
height = 75;
weight = -30;
width = 85;
};
};
width = 279;
},
{
anchors = (
{
name = bottom;
pos = (213,301);
},
{
name = center;
pos = (261,493);
},
{
name = top;
pos = (292,631);
},
{
name = topright;
pos = (380,800);
}
);
layerId = m002;
shapes = (
{
closed = 1;
nodes = (
(292,291,o),
(340,315,o),
(369,374,c),
(345,388,l),
(322,350,o),
(302,339,o),
(287,339,cs),
(264,339,o),
(262,351,o),
(272,382,cs),
(379,710,l),
(259,710,l),
(158,402,ls),
(139,344,o),
(136,291,o),
(230,291,cs)
);
},
{
closed = 1;
nodes = (
(435,604,l),
(446,636,l),
(177,636,l),
(167,604,l)
);
}
);
userData = {
RMXScaler = {
height = 75;
weight = -140;
width = 85;
};
};
width = 345;
}
);
},
{
color = 3;
glyphname = ordfeminine;
kernLeft = sups;
kernRight = sups;
layers = (
{
layerId = "9372F035-DA38-4B54-966C-CEBA9B53DD02";
shapes = (
{
closed = 1;
nodes = (
(414,185,l),
(422,209,l),
(60,209,l),
(52,185,l)
);
},
{
ref = a.sups;
}
);
width = 465;
},
{
layerId = m002;
shapes = (
{
closed = 1;
nodes = (
(461,175,l),
(474,215,l),
(62,215,l),
(49,175,l)
);
},
{
ref = a.sups;
}
);
width = 511;
}
);
metricLeft = a.sups;
metricRight = a.sups;
unicode = 170;
},
{
color = 3;
glyphname = ordmasculine;
kernLeft = sups;
kernRight = sups;
layers = (
{
layerId = "9372F035-DA38-4B54-966C-CEBA9B53DD02";
shapes = (
{
closed = 1;
nodes = (
(384,185,l),
(392,209,l),
(60,209,l),
(52,185,l)
);
},
{
ref = o.sups;
}
);
width = 454;
},
{
layerId = m002;
shapes = (
{
closed = 1;
nodes = (
(421,175,l),
(434,215,l),
(62,215,l),
(49,175,l)
);
},
{
ref = o.sups;
}
);
width = 496;
}
);
metricLeft = o.sups;
metricRight = o.sups;
unicode = 186;
},
{
color = 6;
glyphname = zero;
kernLeft = o;
kernRight = o;
layers = (
{
layerId = "9372F035-DA38-4B54-966C-CEBA9B53DD02";
shapes = (
{
closed = 1;
nodes = (
(322,-12,o),
(461,160,o),
(461,313,cs),
(461,396,o),
(418,454,o),
(320,454,cs),
(169,454,o),
(24,281,o),
(24,130,cs),
(24,49,o),
(71,-12,o),
(169,-12,cs)
);
},
{
closed = 1;
nodes = (
(128,13,o),
(96,47,o),
(96,108,cs),
(96,235,o),
(188,429,o),
(311,429,cs),
(366,429,o),
(389,394,o),
(389,334,cs),
(389,193,o),
(298,13,o),
(180,13,cs)
);
}
);
width = 485;
},
{
layerId = m002;
shapes = (
{
closed = 1;
nodes = (
(413,-12,o),
(535,154,o),
(535,289,cs),
(535,383,o),
(478,460,o),
(357,460,cs),
(146,460,o),
(21,293,o),
(21,158,cs),
(21,64,o),
(78,-12,o),
(203,-12,cs)
);
},
{
closed = 1;
nodes = (
(183,28,o),
(167,61,o),
(167,108,cs),
(167,222,o),
(258,420,o),
(341,420,cs),
(378,420,o),
(394,388,o),
(394,340,cs),
(394,226,o),
(301,28,o),
(220,28,cs)
);
}
);
width = 556;
}
);
unicode = 48;
},
{
color = 6;
glyphname = one;
kernLeft = n;
kernRight = one;
layers = (
{
layerId = "9372F035-DA38-4B54-966C-CEBA9B53DD02";
shapes = (
{
closed = 1;
nodes = (
(82,0,l),
(210,-3,l),
(217,20,l),
(196,22,ls),
(121,29,o),
(137,60,o),
(157,121,cs),
(268,459,l),
(258,459,l),
(219,442,o),
(153,434,o),
(106,434,c),
(98,410,l),
(165,410,o),
(175,392,o),
(154,327,cs),
(87,121,ls),
(58,31,o),
(42,29,o),
(-18,22,cs),
(-35,20,l),
(-42,-3,l)
);
}
);
width = 307;
},
{
layerId = m002;
shapes = (
{
closed = 1;
nodes = (
(109,0,l),
(263,-3,l),
(274,31,l),
(242,34,ls),
(202,38,o),
(196,52,o),
(219,124,cs),
(329,463,l),
(309,463,l),
(228,442,o),
(184,438,o),
(100,438,c),
(89,404,l),
(145,404,o),
(165,392,o),
(142,321,cs),
(78,124,ls),
(55,52,o),
(41,41,o),
(-3,34,cs),
(-22,31,l),
(-33,-3,l)
);
}
);
width = 361;
}
);
unicode = 49;
},
{
color = 6;
glyphname = two;
kernLeft = o;
layers = (
{
layerId = "9372F035-DA38-4B54-966C-CEBA9B53DD02";
shapes = (
{
closed = 1;
nodes = (
(236,-85,l),
(268,11,l),
(299,77,l),
(62,61,l),
(66,47,l),
(153,98,ls),
(252,156,o),
(397,241,o),
(397,342,cs),
(397,411,o),
(340,454,o),
(259,454,cs),
(142,454,o),
(70,371,o),
(70,289,cs),
(70,253,o),
(87,225,o),
(113,211,c),
(130,232,l),
(116,238,o),
(100,256,o),
(100,288,cs),
(100,345,o),
(149,423,o),
(235,423,cs),
(279,423,o),
(316,398,o),
(316,338,cs),
(316,242,o),
(188,150,o),
(85,78,cs),
(2,20,l),
(-5,0,l),
(140,0,ls),
(229,0,o),
(227,-15,o),
(216,-70,cs),
(213,-85,l)
);
}
);
width = 423;
},
{
layerId = m002;
shapes = (
{
closed = 1;
nodes = (
(312,-86,l),
(358,56,l),
(374,98,l),
(99,88,l),
(84,58,l),
(233,140,ls),
(313,184,o),
(441,255,o),
(441,346,cs),
(441,408,o),
(380,459,o),
(275,459,cs),
(138,459,o),
(60,372,o),
(60,295,cs),
(60,260,o),
(77,225,o),
(112,205,c),
(140,235,l),
(116,253,o),
(106,274,o),
(106,300,cs),
(106,360,o),
(159,389,o),
(207,389,cs),
(257,389,o),
(279,358,o),
(279,327,cs),
(279,250,o),
(151,139,o),
(62,78,cs),
(-11,28,l),
(-19,0,l),
(201,0,ls),
(277,0,o),
(286,-11,o),
(275,-70,cs),
(272,-86,l)
);
}
);
width = 465;
}
);
unicode = 50;
},
{
color = 6;
glyphname = three;
kernLeft = o;
kernRight = o;
layers = (
{
layerId = "9372F035-DA38-4B54-966C-CEBA9B53DD02";
shapes = (
{
closed = 1;
nodes = (
(185,-293,o),
(339,-152,o),
(339,-4,cs),
(339,64,o),
(297,112,o),
(226,112,cs),
(202,112,o),
(187,109,o),
(168,105,c),
(166,98,l),
(270,144,ls),
(374,190,o),
(446,262,o),
(446,340,cs),
(446,404,o),
(398,454,o),
(301,454,cs),
(190,454,o),
(109,376,o),
(109,287,cs),
(109,248,o),
(130,218,o),
(160,203,c),
(177,226,l),
(156,235,o),
(139,257,o),
(139,289,cs),
(139,352,o),
(194,423,o),
(275,423,cs),
(334,423,o),
(365,389,o),
(365,338,cs),
(365,236,o),
(257,167,o),
(168,117,cs),
(145,104,o),
(135,99,o),
(115,92,c),
(116,66,l),
(138,76,o),
(164,85,o),
(188,85,cs),
(229,85,o),
(262,63,o),
(262,-1,cs),
(262,-100,o),
(160,-266,o),
(27,-266,cs),
(-18,-266,o),
(-46,-243,o),
(-46,-225,cs),
(-46,-200,o),
(-17,-196,o),
(-17,-165,cs),
(-17,-129,o),
(-48,-119,o),
(-60,-119,cs),
(-97,-119,o),
(-116,-146,o),
(-116,-179,cs),
(-116,-259,o),
(-39,-293,o),
(28,-293,cs)
);
}
);
width = 473;
},
{
layerId = m002;
shapes = (
{
closed = 1;
nodes = (
(246,-293,o),
(380,-135,o),
(380,-16,cs),
(380,60,o),
(328,114,o),
(215,114,cs),
(192,114,o),
(170,112,o),
(153,110,c),
(172,103,l),
(238,128,ls),
(394,187,o),
(475,258,o),
(475,338,cs),
(475,415,o),
(400,460,o),
(299,460,cs),
(162,460,o),
(85,377,o),
(85,300,cs),
(85,257,o),
(108,223,o),
(142,204,c),
(169,234,l),
(146,251,o),
(132,272,o),
(132,303,cs),
(132,360,o),
(183,390,o),
(232,390,cs),
(272,390,o),
(313,370,o),
(313,319,cs),
(313,256,o),
(255,198,o),
(160,130,cs),
(138,114,o),
(109,98,o),
(92,89,c),
(93,52,l),
(113,65,o),
(139,70,o),
(156,70,cs),
(199,70,o),
(220,40,o),
(220,-8,cs),
(220,-101,o),
(136,-253,o),
(42,-253,cs),
(21,-253,o),
(8,-246,o),
(8,-227,cs),
(8,-206,o),
(27,-189,o),
(27,-165,cs),
(27,-127,o),
(-10,-108,o),
(-43,-108,cs),
(-84,-108,o),
(-128,-133,o),
(-128,-186,cs),
(-128,-238,o),
(-82,-293,o),
(40,-293,cs)
);
}
);
width = 507;
}
);
unicode = 51;
},
{
color = 6;
glyphname = four;
kernLeft = four.lf;
kernRight = four.lf;
layers = (
{
layerId = "9372F035-DA38-4B54-966C-CEBA9B53DD02";
shapes = (
{
closed = 1;
nodes = (
(270,0,l),
(392,-3,l),
(400,20,l),
(385,22,ls),
(348,27,o),
(330,29,o),
(330,53,cs),
(329,67,o),
(334,88,o),
(345,121,cs),
(375,212,l),
(487,212,l),
(498,245,l),
(386,245,l),
(539,710,l),
(517,710,l),
(22,241,l),
(12,212,l),
(307,212,l),
(276,121,ls),
(245,31,o),
(231,26,o),
(171,22,cs),
(155,21,l),
(146,-2,l)
);
},
{
closed = 1;
nodes = (
(464,625,l),
(448,634,l),
(318,245,l),
(32,245,l),
(41,224,l)
);
}
);
width = 512;
},
{
layerId = m002;
shapes = (
{
closed = 1;
nodes = (
(258,0,l),
(397,-3,l),
(408,31,l),
(392,34,ls),
(366,39,o),
(360,46,o),
(360,64,cs),
(360,77,o),
(364,98,o),
(374,128,cs),
(401,210,l),
(489,210,l),
(505,260,l),
(417,260,l),
(563,710,l),
(498,710,l),
(13,248,l),
(1,210,l),
(255,210,l),
(228,128,ls),
(204,55,o),
(192,41,o),
(150,34,cs),
(132,31,l),
(121,-3,l)
);
},
{
closed = 1;
nodes = (
(405,579,l),
(381,598,l),
(271,260,l),
(41,260,l),
(34,219,l)
);
}
);
width = 513;
}
);
unicode = 52;
},
{
color = 6;
glyphname = five;
kernLeft = five.lf;
kernRight = six.lf;
layers = (
{
layerId = "9372F035-DA38-4B54-966C-CEBA9B53DD02";
shapes = (
{
closed = 1;
nodes = (
(285,-14,o),
(431,173,o),
(431,321,cs),
(431,412,o),
(382,454,o),
(312,454,cs),
(263,454,o),
(212,430,o),
(177,395,c),
(191,392,l),
(315,674,l),
(279,637,l),
(335,637,ls),
(439,637,o),
(519,644,o),
(543,717,cs),
(548,732,l),
(538,732,l),
(511,713,o),
(466,710,o),
(419,710,cs),
(329,710,l),
(341,738,l),
(315,738,l),
(148,354,l),
(167,354,l),
(196,389,o),
(239,421,o),
(284,421,cs),
(320,421,o),
(350,398,o),
(350,336,cs),
(350,204,o),
(247,12,o),
(123,12,cs),
(84,12,o),
(63,32,o),
(63,54,cs),
(63,85,o),
(94,83,o),
(94,120,cs),
(94,135,o),
(81,158,o),
(49,158,cs),
(20,158,o),
(-6,136,o),
(-6,97,cs),
(-6,28,o),
(49,-14,o),
(120,-14,cs)
);
}
);
width = 462;
},
{
layerId = m002;
shapes = (
{
closed = 1;
nodes = (
(308,-14,o),
(468,142,o),
(468,317,cs),
(468,397,o),
(424,460,o),
(318,460,cs),
(248,460,o),
(189,430,o),
(151,377,c),
(156,359,l),
(261,629,l),
(206,570,l),
(349,570,ls),
(436,570,o),
(509,586,o),
(554,710,cs),
(562,732,l),
(535,732,l),
(527,711,o),
(503,710,o),
(476,710,cs),
(293,710,l),
(301,732,l),
(261,732,l),
(100,326,l),
(142,326,l),
(169,373,o),
(221,404,o),
(259,404,cs),
(293,404,o),
(318,381,o),
(318,322,cs),
(318,225,o),
(238,32,o),
(153,32,cs),
(125,32,o),
(108,51,o),
(108,76,cs),
(108,117,o),
(149,120,o),
(149,166,cs),
(149,202,o),
(121,219,o),
(91,219,cs),
(27,219,o),
(-11,171,o),
(-11,101,cs),
(-11,35,o),
(37,-14,o),
(142,-14,cs)
);
}
);
width = 493;
}
);
unicode = 53;
},
{
color = 6;
glyphname = six;
kernLeft = zero.lf;
kernRight = six.lf;
layers = (
{
layerId = "9372F035-DA38-4B54-966C-CEBA9B53DD02";
shapes = (
{
closed = 1;
nodes = (
(321,-14,o),
(460,156,o),
(460,305,cs),
(460,394,o),
(402,431,o),
(338,431,cs),
(276,431,o),
(203,393,o),
(137,278,c),
(146,278,l),
(234,570,o),
(357,693,o),
(435,693,cs),
(461,693,o),
(473,681,o),
(473,652,cs),
(473,627,o),
(487,609,o),
(517,609,cs),
(549,609,o),
(570,636,o),
(570,664,cs),
(570,710,o),
(518,724,o),
(477,724,cs),
(205,724,o),
(44,294,o),
(44,128,cs),
(44,38,o),
(95,-14,o),
(180,-14,cs)
);
},
{
closed = 1;
nodes = (
(144,11,o),
(113,39,o),
(113,92,cs),
(113,212,o),
(217,403,o),
(316,403,cs),
(358,403,o),
(379,375,o),
(379,318,cs),
(379,198,o),
(293,11,o),
(185,11,cs)
);
}
);
width = 506;
},
{
layerId = m002;
shapes = (
{
closed = 1;
nodes = (
(381,-14,o),
(512,143,o),
(512,289,cs),
(512,390,o),
(444,429,o),
(378,429,cs),
(310,429,o),
(248,389,o),
(192,312,c),
(240,332,l),
(308,541,o),
(379,678,o),
(451,678,cs),
(478,678,o),
(486,659,o),
(486,604,cs),
(486,557,o),
(518,541,o),
(552,541,cs),
(589,541,o),
(628,574,o),
(628,629,cs),
(628,690,o),
(562,724,o),
(474,724,cs),
(227,724,o),
(43,360,o),
(43,160,cs),
(43,61,o),
(90,-14,o),
(220,-14,cs)
);
},
{
closed = 1;
nodes = (
(188,32,o),
(179,62,o),
(179,100,cs),
(179,209,o),
(252,378,o),
(320,378,cs),
(350,378,o),
(363,350,o),
(363,310,cs),
(363,202,o),
(282,32,o),
(219,32,cs)
);
}
);
width = 554;
}
);
unicode = 54;
},
{
color = 6;
glyphname = seven;
kernLeft = seven;
kernRight = seven;
layers = (
{
layerId = "9372F035-DA38-4B54-966C-CEBA9B53DD02";
shapes = (
{
closed = 1;
nodes = (
(-8,-294,o),
(20,-273,o),
(44,-237,cs),
(474,424,l),
(474,440,l),
(131,440,l),
(149,490,l),
(127,490,l),
(42,258,l),
(64,258,l),
(101,358,l),
(421,358,l),
(426,383,l),
(-22,-197,ls),
(-48,-230,o),
(-57,-254,o),
(-57,-270,cs),
(-57,-285,o),
(-49,-294,o),
(-34,-294,cs)
);
}
);
width = 438;
},
{
layerId = m002;
shapes = (
{
closed = 1;
nodes = (
(62,-295,o),
(107,-248,o),
(155,-168,cs),
(502,416,l),
(502,446,l),
(136,446,l),
(152,496,l),
(109,496,l),
(23,227,l),
(65,227,l),
(91,306,l),
(418,306,l),
(465,392,l),
(-9,-164,ls),
(-40,-200,o),
(-57,-233,o),
(-57,-256,cs),
(-57,-281,o),
(-39,-296,o),
(-3,-295,cs)
);
}
);
width = 459;
}
);
unicode = 55;
},
{
color = 6;
glyphname = eight;
kernLeft = zero.lf;
kernRight = zero.lf;
layers = (
{
layerId = "9372F035-DA38-4B54-966C-CEBA9B53DD02";
shapes = (
{
closed = 1;
nodes = (
(319,-15,o),
(446,81,o),
(446,197,cs),
(446,278,o),
(376,353,o),
(333,409,cs),
(292,467,o),
(266,505,o),
(266,554,cs),
(266,627,o),
(319,691,o),
(414,691,cs),
(473,691,o),
(514,659,o),
(514,607,cs),
(514,515,o),
(410,445,o),
(302,404,c),
(323,381,l),
(440,430,o),
(546,509,o),
(546,614,cs),
(546,678,o),
(491,723,o),
(413,723,cs),
(284,723,o),
(186,647,o),
(186,547,cs),
(186,482,o),
(234,416,o),
(270,365,cs),
(322,298,o),
(365,256,o),
(365,189,cs),
(365,93,o),
(306,16,o),
(189,16,cs),
(107,16,o),
(61,60,o),
(61,133,cs),
(61,231,o),
(154,300,o),
(296,368,c),
(277,389,l),
(127,315,o),
(29,239,o),
(29,125,cs),
(29,47,o),
(90,-15,o),
(186,-15,cs)
);
}
);
width = 512;
},
{
layerId = m002;
shapes = (
{
closed = 1;
nodes = (
(354,-14,o),
(462,98,o),
(462,225,cs),
(462,305,o),
(419,363,o),
(372,418,cs),
(327,472,o),
(283,517,o),
(283,569,cs),
(283,635,o),
(340,675,o),
(397,675,cs),
(444,675,o),
(485,649,o),
(485,590,cs),
(485,527,o),
(429,463,o),
(318,415,c),
(356,395,l),
(485,447,o),
(545,531,o),
(545,596,cs),
(545,667,o),
(496,724,o),
(393,724,cs),
(242,724,o),
(151,621,o),
(151,511,cs),
(151,435,o),
(195,380,o),
(221,348,cs),
(279,278,o),
(317,242,o),
(317,180,cs),
(317,112,o),
(270,36,o),
(175,36,cs),
(111,36,o),
(74,78,o),
(74,141,cs),
(74,211,o),
(143,303,o),
(274,354,c),
(235,375,l),
(90,317,o),
(14,219,o),
(14,132,cs),
(14,46,o),
(67,-14,o),
(183,-14,cs)
);
}
);
width = 512;
}
);
unicode = 56;
},
{
color = 6;
glyphname = zero.lf;
kernLeft = zero.lf;
kernRight = zero.lf;
layers = (
{
layerId = "9372F035-DA38-4B54-966C-CEBA9B53DD02";
shapes = (
{
closed = 1;
nodes = (
(411,-14,o),
(563,151,o),
(622,342,cs),
(673,510,o),
(662,724,o),
(463,724,cs),
(311,724,o),
(154,557,o),
(95,365,cs),
(45,199,o),
(67,-14,o),
(244,-14,cs)
);
},
{
closed = 1;
nodes = (
(112,13,o),
(150,236,o),
(186,354,cs),
(240,527,o),
(350,697,o),
(466,697,cs),
(608,697,o),
(572,476,o),
(533,348,cs),
(479,173,o),
(366,13,o),
(250,13,cs)
);
}
);
width = 630;
},
{
layerId = m002;
shapes = (
{
closed = 1;
nodes = (
(424,-14,o),
(593,151,o),
(651,344,cs),
(704,513,o),
(696,724,o),
(473,724,cs),
(314,724,o),
(145,559,o),
(87,366,cs),
(34,197,o),
(42,-14,o),
(265,-14,cs)
);
},
{
closed = 1;
nodes = (
(191,32,o),
(175,148,o),
(245,358,cs),
(308,550,o),
(386,678,o),
(477,678,cs),
(549,678,o),
(565,562,o),
(495,352,cs),
(432,160,o),
(354,32,o),
(263,32,cs)
);
}
);
width = 652;
}
);
},
